SplineFontDB: 3.0
FontName: Coustard
FullName: Coustard
FamilyName: Coustard
Weight: Regular
Copyright: Copyright (c) 2011 by vernon adams. All rights reserved. with\nReserved Font Names "Coustard" and "Coustard Regular". This\nFont Software is licensed under the SIL Open Font License, Version\n1.1. This license is available with a FAQ at:\nhttp://scripts.sil.org/OFL
Version: 001
ItalicAngle: 0
UnderlinePosition: 0
UnderlineWidth: 0
Ascent: 1638
Descent: 410
sfntRevision: 0x00010000
LayerCount: 2
Layer: 0 0 "Back"  1
Layer: 1 0 "Fore"  0
NeedsXUIDChange: 1
XUID: [1021 14 500265001 3801539]
FSType: 0
OS2Version: 2
OS2_WeightWidthSlopeOnly: 0
OS2_UseTypoMetrics: 1
CreationTime: 1309244640
ModificationTime: 1312536693
PfmFamily: 17
TTFWeight: 400
TTFWidth: 5
LineGap: 0
VLineGap: 0
Panose: 2 11 8 3 5 3 2 2 2 4
OS2TypoAscent: 1629
OS2TypoAOffset: 0
OS2TypoDescent: -507
OS2TypoDOffset: 0
OS2TypoLinegap: 0
OS2WinAscent: 1680
OS2WinAOffset: 0
OS2WinDescent: 534
OS2WinDOffset: 0
HheadAscent: 1680
HheadAOffset: 0
HheadDescent: -534
HheadDOffset: 0
OS2SubXSize: 1331
OS2SubYSize: 1228
OS2SubXOff: 0
OS2SubYOff: 153
OS2SupXSize: 1331
OS2SupYSize: 1228
OS2SupXOff: 0
OS2SupYOff: 716
OS2StrikeYSize: 0
OS2StrikeYPos: 640
OS2Vendor: 'newt'
OS2CodePages: 20000093.00000000
OS2UnicodeRanges: 00000007.00000000.00000000.00000000
Lookup: 4 0 1 "'liga' Standard Ligatures in Latin lookup 0"  {"'liga' Standard Ligatures in Latin lookup 0-1"  } ['liga' ('DFLT' <'dflt' > 'latn' <'dflt' > ) ]
Lookup: 258 0 0 "'kern' Horizontal Kerning in Latin lookup 0"  {"'kern' Horizontal Kerning in Latin lookup 0-2" [507,0,2] "'kern' Horizontal Kerning in Latin lookup 0-1" [307,30,0] } ['kern' ('latn' <'dflt' > ) ]
MarkAttachClasses: 1
DEI: 91125
KernClass2: 6 4 "'kern' Horizontal Kerning in Latin lookup 0-2" 
 1 T
 5 V W Y
 1 F
 1 f
 66 A Aacute Acircumflex Adieresis Agrave Aring Atilde Amacron Aogonek

StartChar: exclam
Encoding: 258 33 2
Width: 437
Flags: HMW
HStem: 38 441 396 20G<167.5 259.5>
VStem: -16 543
LayerCount: 2
Fore
SplineSet
214 416 m 0x60
 121 416 146 437 130 652 c 0
 111 913 65 1397 65 1438 c 0
 65 1495 94 1516 155 1516 c 2
 271 1516 l 2
 332 1516 361 1495 361 1438 c 0
 361 1397 312 913 293 652 c 0
 277 437 305 416 214 416 c 0x60
45 137 m 0
 45 221 100 300 226 300 c 0
 351 300 401 218 401 137 c 0
 401 57 351 -26 226 -26 c 0
 100 -26 45 54 45 137 c 0
EndSplineSet
Validated: 1
EndChar

StartChar: quotedbl
Encoding: 259 34 3
Width: 940
Flags: HMW
HStem: 1545 20G
VStem: -25 477 488 479
LayerCount: 2
Fore
SplineSet
583 986 m 0
 583 1031 682 1139 682 1155 c 0
 682 1193 505 1181 505 1340 c 0
 505 1442 582 1512 693 1512 c 0
 800 1512 884 1432 884 1331 c 0
 884 1155 761 955 631 955 c 0
 601 955 583 967 583 986 c 0
122 986 m 0
 122 1031 221 1139 221 1155 c 0
 221 1193 44 1181 44 1340 c 0
 44 1442 121 1512 232 1512 c 0
 339 1512 423 1432 423 1331 c 0
 423 1155 300 955 170 955 c 0
 140 955 122 967 122 986 c 0
EndSplineSet
Validated: 1
EndChar

StartChar: numbersign
Encoding: 260 35 4
Width: 1118
Flags: HMW
HStem: 597 286 793 90 1176 67
LayerCount: 2
Fore
SplineSet
533 536 m 0x20
 542 586 561 657 584 735 c 1
 384 735 l 1
 363 663 344 594 327 533 c 0
 310 473 300 436 218 436 c 0
 193 436 123 451 123 518 c 0
 123 562 150 645 174 731 c 1
 155 731 136 730 118 730 c 2
 102 730 l 2
 63 730 38 735 38 778 c 0
 38 783 38 789 39 795 c 0
 41 815 61 876 122 893 c 1
 146 897 183 900 223 901 c 1
 242 965 262 1028 281 1091 c 1
 257 1091 232 1090 210 1090 c 2
 194 1090 l 2
 155 1090 130 1095 130 1138 c 0
 130 1143 130 1149 131 1155 c 0
 133 1175 153 1236 214 1253 c 1
 244 1258 286 1259 333 1262 c 1
 355 1335 374 1399 385 1444 c 0
 395 1483 427 1496 484 1496 c 0
 517 1496 585 1494 585 1434 c 0
 585 1402 555 1329 536 1265 c 1
 742 1265 l 1
 764 1337 782 1400 793 1444 c 0
 803 1483 835 1496 892 1496 c 0
 925 1496 993 1494 993 1434 c 0
 993 1417 985 1397 977 1371 c 2
 944 1268 l 1
 1044 1268 l 2
 1071 1268 1081 1253 1081 1223 c 2
 1081 1217 l 2
 1081 1191 1074 1100 985 1100 c 2
 895 1100 l 1
 840 908 l 1
 952 908 l 2
 979 908 989 893 989 863 c 2
 989 857 l 2
 989 831 982 740 893 740 c 2
 793 740 l 1
 735 533 l 2
 718 473 708 436 626 436 c 0
 601 436 531 451 531 518 c 0
 531 524 531 529 533 536 c 0x20
486 1095 m 1
 432 905 l 1
 632 905 l 1
 691 1095 l 1
 486 1095 l 1
EndSplineSet
Validated: 1
EndChar

StartChar: dollar
Encoding: 261 36 5
Width: 999
Flags: HMW
HStem: -27 266<323 613 522.5 570> 192 47<497 613 497 628> 1250 64<479 595 479 479>
VStem: 44 221<394 456.5> 53 247<926 1065.5 926 1130.5> 266 116<1249 1441> 284 116<48 240 238 240> 479 116<1250 1250> 497 116<239 239> 712 221<1038.5 1116 1116 1116> 724 234<445 615.5>
LayerCount: 2
Fore
SplineSet
284 238 m 1x62a0
 400 240 l 1x68c0
 392 97 410 -27 336 -27 c 0
 310 -27 284 -3 284 48 c 2x68a0
 284 238 l 1x62a0
497 239 m 1
 613 239 l 1
 613 48 l 2
 613 -1 584 -27 556 -27 c 0
 489 -27 505 92 497 239 c 1
382 1249 m 1
 266 1251 l 1x72a0
 266 1441 l 2
 266 1492 292 1516 318 1516 c 0x68a0
 392 1516 374 1391 382 1249 c 1
595 1250 m 1
 479 1250 l 1
 487 1396 471 1516 538 1516 c 0
 566 1516 595 1490 595 1441 c 2
 595 1250 l 1
958 484 m 0x62a0
 958 276 761 192 495 192 c 0
 223 192 44 267 44 440 c 0x6320
 44 473 47 583 219 583 c 0
 257 583 265 571 265 530 c 2
 265 394 l 1
 317 366 429 352 521 352 c 0
 634 352 724 401 724 489 c 0x64a0
 724 742 53 651 53 1037 c 0
 53 1224 277 1314 485 1314 c 0xa2a0
 800 1314 933 1220 933 1054 c 0
 933 1023 916 923 767 923 c 0
 712 923 712 941 712 976 c 2x62a0
 712 1116 l 1
 694 1134 572 1164 501 1164 c 0xa2a0
 356 1164 300 1101 300 1030 c 0
 300 822 958 893 958 484 c 0x62a0
EndSplineSet
Validated: 5
EndChar

StartChar: percent
Encoding: 262 37 6
Width: 1733
Flags: HMW
HStem: 26 21G
VStem: 389 175 1154 150
LayerCount: 2
Fore
SplineSet
34 1053 m 0
 34 1274 212 1403 383 1403 c 0
 558 1403 728 1296 728 1052 c 0
 728 820 547 696 370 696 c 0
 200 696 34 810 34 1053 c 0
554 1042 m 0
 554 1212 468 1290 380 1290 c 0
 291 1290 201 1208 201 1060 c 0
 201 896 291 816 380 816 c 0
 467 816 554 893 554 1042 c 0
368 86 m 0
 459 235 1048 1230 1155 1409 c 0
 1179 1449 1222 1472 1279 1472 c 0
 1296 1472 1327 1448 1327 1404 c 0
 1327 1392 1320 1379 1312 1365 c 0
 1189 1144 666 271 574 105 c 0
 540 44 492 18 431 18 c 0
 418 18 366 46 366 78 c 0
 366 81 367 83 368 86 c 0
1000 440 m 0
 1000 661 1178 790 1349 790 c 0
 1524 790 1694 683 1694 439 c 0
 1694 207 1513 83 1336 83 c 0
 1166 83 1000 197 1000 440 c 0
1520 429 m 0
 1520 599 1434 677 1346 677 c 0
 1257 677 1167 595 1167 447 c 0
 1167 283 1257 203 1346 203 c 0
 1433 203 1520 280 1520 429 c 0
EndSplineSet
Validated: 1
EndChar

StartChar: ampersand
Encoding: 263 38 7
Width: 1588
Flags: HMW
HStem: -29 176 608 545 1196 348
LayerCount: 2
Fore
SplineSet
1406 583 m 1
 1305 186 984 -28 544 -28 c 0
 265 -28 37 107 37 357 c 0
 37 780 863 882 863 1189 c 0
 863 1285 736 1348 613 1348 c 0
 492 1348 375 1292 375 1153 c 0
 375 1087 433 1000 562 870 c 0
 677 755 835 586 1032 389 c 0
 1134 286 1242 156 1405 156 c 0
 1471 156 1524 168 1543 175 c 1
 1543 175 1546 23 1546 -2 c 1
 1471 -21 1399 -27 1336 -27 c 0
 1197 -27 1132 -4 947 172 c 1
 688 424 512 617 381 757 c 1
 229 911 152 1036 152 1157 c 0
 152 1482 540 1515 618 1515 c 0
 861 1515 1090 1404 1090 1185 c 0
 1090 724 291 675 291 348 c 0
 291 220 419 157 562 157 c 0
 918 157 1150 372 1223 608 c 1
 1142 620 l 2
 1112 624 1085 628 1085 680 c 0
 1085 712 1088 755 1091 791 c 1
 1095 791 l 2
 1092 791 1462 797 1517 797 c 0
 1527 797 1528 748 1528 696 c 0
 1528 671 1526 649 1521 643 c 0
 1498 615 1453 616 1424 601 c 1
 1406 583 l 1
EndSplineSet
Validated: 37
EndChar

StartChar: quoteright
Encoding: 264 8217 8
Width: 497
Flags: HMW
HStem: 1545 20G 1555 20G
VStem: 33 495 43 481
LayerCount: 2
Fore
SplineSet
176 986 m 0x00
 176 1031 275 1139 275 1155 c 0
 275 1193 98 1181 98 1340 c 0
 98 1442 175 1512 286 1512 c 0
 393 1512 477 1432 477 1331 c 0
 477 1155 354 955 224 955 c 0
 194 955 176 967 176 986 c 0x00
EndSplineSet
Validated: 1
EndChar

StartChar: parenleft
Encoding: 265 40 9
Width: 664
Flags: HMW
HStem: -155 1780<531 531>
VStem: 51 239<585 884.5 585 899.5> 531 111
LayerCount: 2
Fore
SplineSet
531 -155 m 1
 212 30 51 376 51 726 c 0
 51 1073 210 1424 531 1625 c 1
 577 1620 640 1537 642 1504 c 1
 407 1334 290 1034 290 735 c 0
 290 435 407 136 642 -34 c 1
 640 -67 577 -150 531 -155 c 1
EndSplineSet
Validated: 1
EndChar

StartChar: parenright
Encoding: 266 41 10
Width: 666
Flags: HMW
HStem: 1484 20G
VStem: 24 111 376 239<585 884.5>
LayerCount: 2
Fore
SplineSet
135 -155 m 1
 89 -150 26 -67 24 -34 c 1
 259 136 376 435 376 735 c 0
 376 1034 259 1334 24 1504 c 1
 26 1537 89 1620 135 1625 c 1
 456 1424 615 1073 615 726 c 0
 615 376 454 30 135 -155 c 1
EndSplineSet
Validated: 1
EndChar

StartChar: asterisk
Encoding: 267 42 11
Width: 1164
Flags: HMW
HStem: 924 290 1492 20G<526 605>
VStem: 32 1094<1061 1098.5>
LayerCount: 2
Fore
SplineSet
211 1205 m 2
 510 1041 l 1
 417 1364 l 2
 416 1370 415 1376 415 1381 c 0
 415 1449 486 1512 566 1512 c 0
 644 1512 722 1461 724 1390 c 0
 724 1387 723 1380 723 1371 c 1
 724 1374 l 1
 651 1045 l 1
 937 1226 l 1
 951 1232 968 1239 984 1239 c 0
 1054 1239 1126 1173 1126 1090 c 0
 1126 1032 1092 973 1036 960 c 1
 678 921 l 1
 760 864 890 772 974 714 c 1
 998 681 1010 653 1010 633 c 0
 1010 542 939 463 839 463 c 0
 804 463 763 477 747 508 c 2
 585 827 l 1
 443 499 l 2
 429 466 382 448 345 448 c 0
 254 448 171 518 171 609 c 0
 171 634 180 659 194 681 c 1
 203 692 l 1
 488 915 l 1
 131 934 l 1
 74 943 32 1001 32 1058 c 0
 32 1139 90 1215 165 1215 c 0
 178 1215 200 1210 211 1205 c 2
EndSplineSet
Validated: 1
EndChar

StartChar: plus
Encoding: 268 43 12
Width: 947
Flags: HMW
HStem: 0 59 828 615 828 647
VStem: 765 647
LayerCount: 2
Fore
SplineSet
722 831 m 0x90
 776 831 852 833 865 834 c 1
 891 824 901 797 901 749 c 0
 901 676 878 644 846 644 c 1
 833 649 579 650 579 650 c 1
 566 650 l 1
 567 576 567 524 567 416 c 0
 567 389 567 379 570 347 c 1
 559 321 532 310 485 310 c 0
 412 310 380 333 380 365 c 1
 385 379 386 632 386 632 c 1
 386 648 l 1
 368 648 l 1
 368 648 114 647 101 642 c 1
 69 642 46 674 46 747 c 0
 46 795 56 822 82 832 c 1
 95 831 171 829 225 829 c 2
 384 829 l 1
 384 843 l 1
 384 843 383 1097 378 1110 c 1
 378 1142 410 1166 483 1166 c 0
 530 1166 557 1155 568 1129 c 1
 567 1116 565 1040 565 986 c 2
 565 830 l 1
 649 831 715 831 722 831 c 0x90
EndSplineSet
Validated: 1
EndChar

StartChar: comma
Encoding: 269 44 13
Width: 514
Flags: HMW
HStem: 462 20G
VStem: 26 495
LayerCount: 2
Fore
SplineSet
157 -176 m 0
 157 -146 246 -76 246 -57 c 0
 246 -4 69 -31 69 128 c 0
 69 230 146 300 257 300 c 0
 364 300 448 220 448 119 c 0
 448 -32 330 -207 205 -207 c 0
 175 -207 157 -195 157 -176 c 0
EndSplineSet
Validated: 1
EndChar

StartChar: hyphen
Encoding: 270 45 14
Width: 913
Flags: HMW
HStem: 699 21G 701 345
LayerCount: 2
Fore
SplineSet
124 618 m 5x00
 65 618 56 668 56 716 c 0
 56 766 75 806 132 806 c 0
 257 806 394 805 553 805 c 0
 639 805 740 805 789 805 c 0
 836 805 857 798 857 768 c 0
 857 702 848 622 790 622 c 4
 657 622 495 622 361 622 c 4
 280 622 199 622 124 618 c 5x00
EndSplineSet
Validated: 1
EndChar

StartChar: period
Encoding: 271 46 15
Width: 491
Flags: HMW
HStem: -26 326<188 313.5>
VStem: 70 356<97 177.5 97 179>
LayerCount: 2
Fore
SplineSet
70 137 m 0
 70 221 125 300 251 300 c 0
 376 300 426 218 426 137 c 0
 426 57 376 -26 251 -26 c 0
 125 -26 70 54 70 137 c 0
EndSplineSet
Validated: 1
EndChar

StartChar: slash
Encoding: 272 47 16
Width: 1030
Flags: HMW
HStem: -47 1620<83 943.5>
VStem: 30 971
LayerCount: 2
Fore
SplineSet
49 107 m 0
 216 393 673 1247 814 1505 c 0
 840 1553 884 1573 923 1573 c 0
 964 1573 1001 1542 1001 1491 c 0
 1001 1471 995 1449 981 1425 c 0
 829 1155 461 480 214 26 c 0
 186 -26 143 -47 106 -47 c 0
 60 -47 30 -12 30 43 c 0
 30 62 36 84 49 107 c 0
EndSplineSet
Validated: 1
EndChar

StartChar: zero
Encoding: 273 48 17
Width: 1422
Flags: HMW
HStem: -29 228 1283 232
LayerCount: 2
Fore
SplineSet
711 1516 m 0
 1041 1516 1371 1260 1371 747 c 0
 1371 231 1041 -27 711 -27 c 0
 381 -27 51 231 51 747 c 0
 51 1260 381 1516 711 1516 c 0
711 153 m 0
 914 153 1116 349 1116 743 c 0
 1116 1138 914 1336 711 1336 c 0
 508 1336 306 1138 306 743 c 0
 306 349 508 153 711 153 c 0
EndSplineSet
Validated: 1
EndChar

StartChar: one
Encoding: 274 49 18
Width: 658
Flags: HMW
HStem: 45 21G
VStem: 205 579
LayerCount: 2
Fore
SplineSet
452 1475 m 2
 452 265 l 2
 452 235 453 200 516 200 c 0
 570 200 628 187 628 152 c 0
 628 95 618 15 585 -8 c 1
 520 -3 432 0 338 0 c 0
 249 0 163 -3 99 -8 c 1
 59 15 46 95 46 152 c 0
 46 187 104 200 158 200 c 0
 215 200 221 230 221 263 c 2
 221 1227 l 2
 221 1260 215 1290 158 1290 c 0
 104 1290 46 1303 46 1338 c 0
 46 1395 53 1460 69 1498 c 1
 143 1492 205 1490 259 1490 c 0
 322 1490 375 1493 427 1498 c 1
 444 1498 452 1490 452 1475 c 2
EndSplineSet
Validated: 1
EndChar

StartChar: two
Encoding: 275 50 19
Width: 1175
Flags: HMW
HStem: 0 1153 1021 102
LayerCount: 2
Fore
SplineSet
115 1433 m 1x40
 203 1459 382 1511 558 1511 c 0
 832 1511 1095 1417 1095 1140 c 0
 1095 925 891 707 316 170 c 1
 672 170 l 2
 908 170 876 254 950 437 c 1
 961 446 978 450 998 450 c 0
 1060 450 1147 414 1147 414 c 1
 1147 349 1063 77 1038 38 c 1
 990 4 795 0 619 0 c 2
 127 0 l 1x80
 101 19 68 123 64 207 c 1
 294 470 851 908 851 1139 c 0
 851 1283 732 1345 595 1345 c 0
 340 1345 264 1263 209 997 c 1
 148 997 32 1019 32 1039 c 0
 32 1095 86 1357 115 1433 c 1x40
EndSplineSet
Validated: 1
EndChar

StartChar: three
Encoding: 276 51 20
Width: 1231
Flags: HMW
HStem: 742 195 1207 127 1337 39
LayerCount: 2
Fore
SplineSet
600 145 m 0
 755 145 944 233 944 423 c 0
 944 688 721 712 497 712 c 0
 439 712 382 708 320 707 c 1
 312 711 307 734 307 807 c 0
 307 853 316 887 332 902 c 1
 355 900 479 900 506 900 c 0
 730 900 832 1021 832 1135 c 0
 832 1243 741 1348 577 1348 c 0
 419 1348 249 1289 209 1054 c 0
 209 1051 201 1050 190 1050 c 0
 145 1050 34 1069 34 1080 c 1
 51 1240 82 1341 104 1425 c 1
 108 1437 l 1
 279 1477 431 1494 575 1494 c 0
 941 1494 1077 1311 1077 1139 c 0
 1077 1001 966 868 800 830 c 1
 1039 798 1196 632 1196 435 c 0
 1196 123 950 -27 631 -27 c 0
 478 -27 317 -10 134 30 c 1
 130 42 l 1
 108 126 77 227 60 387 c 1
 60 398 171 417 216 417 c 0
 227 417 235 416 235 413 c 0
 276 226 437 145 600 145 c 0
EndSplineSet
Validated: 1
EndChar

StartChar: four
Encoding: 277 52 21
Width: 1224
Flags: HMW
HStem: 36 21G 483 357 1487 20G
VStem: -8 568 450 600
LayerCount: 2
Fore
SplineSet
667 639 m 1xe0
 668 683 668 747 668 820 c 2
 668 1055 l 2
 668 1163 668 1253 670 1303 c 1
 623 1232 575 1153 524 1075 c 1
 459 988 343 797 277 688 c 0
 270 676 265 663 265 658 c 0
 265 637 366 636 509 636 c 0
 558 636 619 636 667 639 c 1xe0
668 263 m 2
 668 456 l 1
 369 456 l 2
 272 456 173 456 127 479 c 1
 65 532 39 672 39 695 c 0
 39 710 43 725 51 742 c 1
 216 1012 397 1255 543 1445 c 0
 573 1483 638 1489 711 1489 c 0
 739 1489 767 1488 810 1488 c 0
 863 1488 902 1470 902 1416 c 0
 902 1273 899 1116 899 951 c 2
 899 653 l 2
 899 647 900 643 908 643 c 0
 994 643 1063 644 1111 644 c 0
 1171 644 1189 628 1195 598 c 1
 1194 547 1183 518 1160 483 c 1
 1145 457 1094 456 978 456 c 2
 899 456 l 1
 899 265 l 2
 899 235 900 200 963 200 c 0
 1017 200 1075 187 1075 152 c 0
 1075 95 1065 15 1032 -8 c 1
 967 -3 879 0 785 0 c 0
 696 0 610 -3 546 -8 c 1
 506 15 493 95 493 152 c 0
 493 187 551 200 605 200 c 0
 662 200 668 230 668 263 c 2
EndSplineSet
Validated: 1
EndChar

StartChar: five
Encoding: 278 53 22
Width: 1200
Flags: HMW
HStem: 742 195 1207 127 1337 39
LayerCount: 2
Fore
SplineSet
316 852 m 1
 426 899 548 921 682 921 c 0
 1066 921 1160 645 1160 455 c 0
 1160 82 889 -27 578 -27 c 0
 425 -27 263 6 118 50 c 1
 114 62 l 1
 92 146 61 247 44 407 c 1
 44 418 155 437 200 437 c 0
 211 437 219 436 219 433 c 1
 289 247 475 149 645 149 c 0
 834 149 936 305 936 455 c 0
 936 601 840 743 641 743 c 0
 501 743 367 674 222 674 c 0
 182 674 141 678 98 687 c 0
 89 689 85 720 85 809 c 2
 85 1338 l 2
 85 1395 99 1475 138 1498 c 1
 244 1493 366 1490 511 1490 c 0
 728 1490 936 1504 1019 1506 c 1
 1033 1489 1077 1206 1077 1173 c 0
 1077 1163 1040 1122 924 1122 c 1
 883 1219 878 1311 680 1311 c 0
 515 1311 548 1310 330 1310 c 0
 317 1310 316 1297 316 1286 c 2
 316 852 l 1
EndSplineSet
Validated: 1
EndChar

StartChar: six
Encoding: 279 54 23
Width: 1208
Flags: HMW
HStem: -27 145<540.5 745 540.5 795> 732 161<624 722> 1366 146<582.5 727>
VStem: 56 247<462 631 802 965.5> 947 224<347 527>
LayerCount: 2
Fore
SplineSet
928 1072 m 0
 899 1307 784 1366 670 1366 c 0
 495 1366 303 1157 303 802 c 1
 432 867 569 893 679 893 c 0
 1004 893 1171 665 1171 431 c 0
 1171 205 985 -27 605 -27 c 0
 240 -27 56 249 56 675 c 0
 56 1256 328 1512 712 1512 c 0
 811 1512 918 1495 1029 1455 c 1
 1033 1443 l 1
 1055 1359 1086 1258 1103 1098 c 1
 1103 1087 992 1068 947 1068 c 0
 936 1068 928 1069 928 1072 c 0
947 409 m 0
 947 645 797 732 647 732 c 0
 478 732 361 688 303 631 c 1
 303 233 464 118 617 118 c 0
 873 118 947 285 947 409 c 0
EndSplineSet
Validated: 1
EndChar

StartChar: seven
Encoding: 280 55 24
Width: 1134
Flags: HMW
HStem: -27 21G<449.5 549> 1311 177<514.5 679 514.5 840>
VStem: 30 1063<1092 1398> 321 291<185 239 185 279.5>
LayerCount: 2
Fore
SplineSet
689 149 m 1xd0
 689 83 l 2
 689 15 595 -27 503 -27 c 0
 396 -27 321 37 321 182 c 0
 321 377 435 625 840 1311 c 1
 286 1311 l 1
 241 1194 223 1053 190 1053 c 0
 129 1053 30 1068 30 1116 c 0
 30 1176 77 1387 126 1516 c 1
 286 1496 438 1488 591 1488 c 0
 767 1488 942 1501 1068 1516 c 1
 1077 1516 1093 1484 1093 1454 c 2
 1093 1398 l 2
 1093 1375 1090 1326 1070 1290 c 0
 612 473 612 273 612 205 c 0
 612 165 651 153 689 149 c 1xd0
EndSplineSet
Validated: 1
EndChar

StartChar: eight
Encoding: 281 56 25
Width: 1368
Flags: HMW
HStem: -27 191<581 844.5 564.5 928> 1367 146<561.5 789 470 794.5>
VStem: 38 267<317 447 317 463> 93 225<1112 1221.5 1112 1258> 1054 227<1092.5 1225> 1069 266<318.5 439 242.5 450.5>
LayerCount: 2
Fore
SplineSet
452 807 m 1xd8
 217 881 93 1029 93 1170 c 0
 93 1346 278 1513 662 1513 c 0
 916 1513 1281 1461 1281 1170 c 0xd8
 1281 1009 1117 873 926 806 c 1
 1194 682 1335 536 1335 342 c 0
 1335 143 1151 -27 705 -27 c 0
 457 -27 38 21 38 358 c 0xe4
 38 568 263 729 452 807 c 1xd8
687 719 m 1xe4
 519 663 305 520 305 374 c 0
 305 260 411 164 718 164 c 0
 971 164 1069 261 1069 376 c 0
 1069 525 862 657 687 719 c 1xe4
686 1367 m 0xd8
 437 1367 318 1274 318 1169 c 0
 318 1055 479 971 697 893 c 1
 697 893 1054 1022 1054 1163 c 0
 1054 1287 903 1367 686 1367 c 0xd8
EndSplineSet
Validated: 1
EndChar

StartChar: nine
Encoding: 282 57 26
Width: 1217
Flags: HMW
HStem: -29 411 1492 20G<390 769.5>
LayerCount: 2
Fore
SplineSet
274 433 m 0
 357 151 479 128 594 128 c 0
 761 128 915 322 915 628 c 2
 915 673 l 1
 786 622 649 602 539 602 c 0
 202 602 35 822 35 1045 c 0
 35 1277 214 1512 566 1512 c 0
 973 1512 1162 1208 1162 740 c 0
 1162 204 906 -27 529 -27 c 0
 424 -27 310 -7 189 30 c 1
 176 68 l 2
 148 148 114 247 95 397 c 1
 95 411 207 437 255 437 c 0
 266 437 273 436 274 433 c 0
548 1361 m 0
 362 1361 272 1214 272 1064 c 0
 272 915 373 763 571 763 c 0
 740 763 857 799 915 844 c 1
 915 1243 724 1361 548 1361 c 0
EndSplineSet
Validated: 1
EndChar

StartChar: colon
Encoding: 283 58 27
Width: 466
Flags: HMW
HStem: 38 326<172 297.5> 769 326<172 297.5>
VStem: 54 356<161 241.5 161 243 892 972.5>
LayerCount: 2
Fore
SplineSet
54 201 m 0
 54 285 109 364 235 364 c 0
 360 364 410 282 410 201 c 0
 410 121 360 38 235 38 c 0
 109 38 54 118 54 201 c 0
54 932 m 0
 54 1016 109 1095 235 1095 c 0
 360 1095 410 1013 410 932 c 0
 410 852 360 769 235 769 c 0
 109 769 54 849 54 932 c 0
EndSplineSet
Validated: 1
EndChar

StartChar: semicolon
Encoding: 284 59 28
Width: 472
Flags: HMW
HStem: 460 285 462 20G 745 436
VStem: -15 494 -15 517 -1 495
LayerCount: 2
Fore
SplineSet
50 932 m 0x00
 50 1016 105 1095 231 1095 c 0
 356 1095 406 1013 406 932 c 0
 406 852 356 769 231 769 c 0
 105 769 50 849 50 932 c 0x00
138 5 m 0
 138 35 227 105 227 124 c 0
 227 177 50 150 50 309 c 0
 50 411 127 481 238 481 c 0
 345 481 429 401 429 300 c 0
 429 149 311 -26 186 -26 c 0
 156 -26 138 -14 138 5 c 0
EndSplineSet
Validated: 1
EndChar

StartChar: less
Encoding: 285 60 29
Width: 765
Flags: HMW
HStem: -1 21G<590 610.5> 1049 20G<590 609.5> 1061 8
VStem: 37 690<129 578.5>
LayerCount: 2
Fore
SplineSet
37 534 m 0xb0
 37 623 575 1061 575 1061 c 2
 579 1064 584 1069 596 1069 c 0
 623 1069 717 963 717 915 c 0
 717 904 713 895 704 886 c 2
 306 534 l 1
 714 182 l 2
 723 173 727 164 727 153 c 0
 727 105 625 -1 596 -1 c 0
 584 -1 579 4 575 7 c 2
 575 7 37 445 37 534 c 0xb0
EndSplineSet
Validated: 1
EndChar

StartChar: equal
Encoding: 286 61 30
Width: 1130
Flags: HMW
HStem: 390 170<276 905> 722 171<276 907>
VStem: 76 983<444 835 778 833>
LayerCount: 2
Fore
SplineSet
255 892 m 1
 307 893 873 893 880 893 c 0
 934 893 1010 895 1023 896 c 1
 1049 886 1059 859 1059 811 c 0
 1059 745 1036 716 1004 716 c 1
 992 721 777 722 777 722 c 1
 276 722 l 1
 276 722 138 718 131 714 c 1
 99 714 76 743 76 809 c 0
 76 857 86 884 112 894 c 1
 125 893 201 892 255 892 c 1
255 559 m 1
 305 560 871 560 878 560 c 0
 932 560 1008 563 1021 564 c 1
 1047 554 1057 527 1057 479 c 0
 1057 413 1034 384 1002 384 c 1
 991 388 775 390 775 390 c 1
 276 390 l 1
 276 390 138 386 131 382 c 1
 99 382 76 411 76 477 c 0
 76 525 86 552 112 562 c 1
 125 561 201 559 255 559 c 1
EndSplineSet
Validated: 1
EndChar

StartChar: greater
Encoding: 287 62 31
Width: 760
Flags: HMW
HStem: -1 21G<153.5 174> 1049 20G<154.5 174> 1061 8
VStem: 37 690<129 578.5>
LayerCount: 2
Fore
SplineSet
727 534 m 0xd0
 727 445 189 7 189 7 c 2
 185 4 180 -1 168 -1 c 0
 139 -1 37 105 37 153 c 0
 37 164 41 173 50 182 c 2
 458 534 l 1
 60 886 l 2
 51 895 47 904 47 915 c 0
 47 963 141 1069 168 1069 c 0
 180 1069 185 1064 189 1061 c 2xb0
 189 1061 727 623 727 534 c 0xd0
EndSplineSet
Validated: 1
EndChar

StartChar: question
Encoding: 288 63 32
Width: 912
Flags: HMW
HStem: -26 326<339 464.5> 1349 163<385 518.5>
VStem: 32 221<1212.5 1308 1123.5 1316.5> 251 213<598 695.5> 653 219<1118.5 1243.5>
LayerCount: 2
Fore
SplineSet
221 137 m 0xe8
 221 221 276 300 402 300 c 0
 527 300 577 218 577 137 c 0
 577 57 527 -26 402 -26 c 0
 276 -26 221 54 221 137 c 0xe8
450 1349 m 0
 320 1349 253 1308 253 1308 c 1
 253 1155 l 2
 253 1092 246 1085 192 1085 c 0
 73 1085 32 1179 32 1246 c 0xe8
 32 1387 145 1512 455 1512 c 0
 699 1512 872 1397 872 1188 c 0
 872 819 464 808 464 617 c 0
 464 579 466 553 466 526 c 0
 466 474 435 465 408 465 c 0
 374 465 333 467 324 467 c 0
 283 467 251 544 251 636 c 0xd8
 251 755 290 773 404 871 c 0
 492 947 653 1033 653 1204 c 0
 653 1283 587 1349 450 1349 c 0
EndSplineSet
Validated: 1
EndChar

StartChar: at
Encoding: 289 64 33
Width: 1676
Flags: HMW
HStem: -206 155<647.5 955.5 647.5 1034> 130 138<748 801.5> 171 143<1260 1345.5 1260 1368> 870 128<834 940> 1191 148<681 1037.5>
VStem: 53 181<393 731.5 393 744> 488 182<325 398.5 325 459> 1038 175<378 386 386 515 515 515> 1466 162<566.5 838>
LayerCount: 2
Fore
SplineSet
1279 171 m 0xbf80
 1151 171 1112 209 1069 276 c 1
 989 183 861 130 742 130 c 0xdf80
 604 130 488 203 488 359 c 0
 488 559 718 592 1037 639 c 1
 1037 811 1004 870 876 870 c 0
 792 870 654 831 580 753 c 1
 536 790 517 826 517 856 c 0
 517 947 730 998 888 998 c 0
 1084 998 1213 908 1213 614 c 2
 1213 386 l 2
 1213 320 1230 317 1260 314 c 1
 1431 314 1466 467 1466 666 c 0
 1466 1010 1183 1191 892 1191 c 0
 470 1191 234 919 234 544 c 0
 234 242 418 -51 877 -51 c 0
 1034 -51 1206 -18 1372 61 c 1
 1392 43 1404 11 1404 -25 c 0
 1404 -100 1171 -206 897 -206 c 0
 369 -206 53 124 53 547 c 0
 53 941 336 1339 889 1339 c 0
 1295 1339 1628 1078 1628 674 c 0
 1628 369 1457 171 1279 171 c 0xbf80
778 268 m 0xdf80
 882 268 1017 339 1038 378 c 1
 1038 515 l 1
 759 466 670 436 670 361 c 0
 670 289 718 268 778 268 c 0xdf80
EndSplineSet
Validated: 1
EndChar

StartChar: A
Encoding: 290 65 34
Width: 1536
Flags: HMW
HStem: 604 0
LayerCount: 2
Fore
SplineSet
744 1479 m 0
 806 1479 869 1479 914 1487 c 1
 914 1483 l 1
 923 1418 984 1233 991 1216 c 2
 1361 252 l 2
 1374 219 1391 189 1448 189 c 0
 1489 189 1538 176 1548 141 c 1
 1546 109 1544 71 1544 38 c 0
 1544 18 1539 -3 1527 -11 c 1
 1459 -6 1368 0 1275 0 c 0
 1165 0 1071 0 996 -11 c 1
 989 13 979 91 979 149 c 0
 979 206 1121 169 1121 217 c 0
 1121 229 1117 241 1112 254 c 2
 1017 523 l 1
 492 523 l 1
 401 254 l 2
 396 239 392 229 392 217 c 0
 392 169 536 206 536 149 c 1
 531 94 520 12 509 -11 c 1
 437 -6 352 0 246 0 c 0
 157 0 71 -7 6 -11 c 1
 -6 -3 -11 18 -11 38 c 0
 -11 71 -8 109 -5 141 c 1
 5 176 52 189 93 189 c 0
 150 189 167 219 180 252 c 2
 550 1236 l 2
 554 1247 558 1259 558 1269 c 0
 558 1328 425 1270 425 1337 c 0
 425 1339 426 1343 427 1347 c 0
 433 1396 446 1466 462 1487 c 1
 539 1482 635 1479 744 1479 c 0
757 1256 m 1
 757 1256 652 1001 544 675 c 1
 964 675 l 1
 855 1001 757 1256 757 1256 c 1
EndSplineSet
Validated: 1
EndChar

StartChar: B
Encoding: 291 66 35
Width: 1479
Flags: HMW
VStem: 264 567 1005 517 1035 593
LayerCount: 2
Fore
SplineSet
122 -11 m 1x80
 82 12 69 95 69 152 c 0
 69 187 127 200 181 200 c 0
 238 200 244 230 244 263 c 2
 244 1229 l 2
 244 1262 238 1292 181 1292 c 0
 137 1292 69 1299 69 1344 c 0
 69 1398 83 1481 122 1503 c 1
 244 1491 386 1490 490 1490 c 0
 649 1490 782 1506 881 1506 c 0
 1181 1506 1331 1298 1331 1091 c 0
 1331 990 1267 869 1139 818 c 1
 1349 754 1435 582 1435 431 c 0
 1435 211 1249 -11 892 -11 c 0
 813 -11 636 0 434 0 c 0
 333 0 226 -5 122 -11 c 1x80
861 714 m 2
 475 714 l 1
 475 215 l 2
 475 201 476 176 489 176 c 2
 911 176 l 2
 1109 176 1214 306 1214 438 c 0
 1214 575 1101 714 861 714 c 2
475 873 m 1
 861 873 l 2
 1023 873 1110 978 1110 1084 c 0
 1110 1202 1037 1322 891 1322 c 2
 475 1322 l 1
 475 873 l 1
EndSplineSet
Validated: 1
EndChar

StartChar: C
Encoding: 292 67 36
Width: 1336
Flags: HMW
HStem: -27 210<648 905 648 920.5> 994 496<1137.5 1160 1160 1243> 1325 187<588.5 790.5 520 879>
VStem: 29 242<600.5 882.5 600.5 945> 1092 199<1340 1340>
LayerCount: 2
Fore
SplineSet
1243 994 m 1xd8
 1160 994 l 2
 1115 994 1010 1325 748 1325 c 0
 429 1325 271 1027 271 738 c 0
 271 463 461 183 835 183 c 0
 975 183 1128 228 1265 330 c 1
 1292 294 1304 260 1304 228 c 0
 1304 76 1033 -27 808 -27 c 0
 280 -27 29 355 29 734 c 0
 29 1156 309 1512 731 1512 c 0xb8
 850 1512 1004 1461 1092 1340 c 1
 1092 1340 1092 1490 1131 1490 c 2
 1243 1490 l 2
 1267 1490 1291 1466 1291 1386 c 2
 1291 1119 l 2
 1291 1002 1278 998 1243 994 c 1xd8
EndSplineSet
Validated: 1
EndChar

StartChar: D
Encoding: 293 68 37
Width: 1621
Flags: HMW
HStem: -16 217 -14 21G 1297 207
VStem: 185 582
LayerCount: 2
Fore
SplineSet
466 173 m 5x30
 854 173 l 6
 1146 173 1304 458 1304 743 c 4
 1304 1028 1138 1322 824 1322 c 6
 466 1322 l 5
 466 173 l 5x30
113 1503 m 5
 235 1491 377 1490 481 1490 c 4
 620 1490 739 1503 824 1503 c 4
 1336 1503 1564 1122 1564 747 c 4
 1564 366 1343 -11 854 -11 c 4
 755 -11 654 0 492 0 c 4
 398 0 256 -7 113 -11 c 5
 73 12 60 95 60 152 c 4
 60 187 118 200 172 200 c 4
 229 200 235 230 235 263 c 6
 235 1229 l 6
 235 1262 229 1292 172 1292 c 4
 128 1292 60 1299 60 1344 c 4
 60 1398 74 1481 113 1503 c 5
EndSplineSet
Validated: 1
EndChar

StartChar: E
Encoding: 294 69 38
Width: 1324
Flags: HMW
VStem: 216 600 975 255
LayerCount: 2
Fore
SplineSet
113 1503 m 1
 267 1498 442 1490 651 1490 c 0
 864 1490 1068 1501 1149 1503 c 1
 1173 1482 1257 1116 1257 1073 c 0
 1257 1057 1222 992 1114 992 c 0
 1079 992 1039 1248 1015 1311 c 1
 860 1311 692 1310 500 1310 c 0
 467 1310 466 1275 466 1246 c 2
 466 869 l 1
 537 894 666 921 766 921 c 0
 840 921 898 887 898 793 c 0
 898 717 836 662 769 662 c 1
 713 733 643 753 563 753 c 0
 532 753 499 750 466 746 c 1
 466 244 l 2
 466 214 467 179 500 179 c 0
 708 179 888 178 1055 178 c 1
 1085 249 1140 537 1184 537 c 0
 1292 537 1327 472 1327 456 c 0
 1327 408 1227 11 1199 -11 c 1
 1098 -5 916 0 651 0 c 0
 473 0 294 -2 113 -11 c 1
 73 12 60 95 60 152 c 0
 60 187 118 200 172 200 c 0
 229 200 235 230 235 263 c 2
 235 1229 l 2
 235 1262 229 1292 172 1292 c 0
 128 1292 60 1299 60 1344 c 0
 60 1398 74 1481 113 1503 c 1
EndSplineSet
Validated: 1
EndChar

StartChar: F
Encoding: 295 70 39
Width: 1244
Flags: HMW
HStem: 822 21G
VStem: 110 1380
LayerCount: 2
Fore
SplineSet
113 1503 m 1
 209 1493 417 1490 671 1490 c 0
 876 1490 1022 1498 1099 1503 c 1
 1131 1482 1247 1135 1247 1093 c 0
 1247 1077 1212 1012 1104 1012 c 0
 1057 1012 997 1252 965 1311 c 1
 825 1311 672 1310 500 1310 c 0
 467 1310 466 1297 466 1286 c 2
 466 877 l 5
 537 902 666 929 766 929 c 4
 858 929 928 895 928 801 c 4
 928 725 866 670 799 670 c 5
 751 732 687 762 613 762 c 4
 567 762 515 756 466 745 c 5
 466 265 l 2
 466 235 467 200 530 200 c 0
 584 200 642 187 642 152 c 0
 642 95 632 12 599 -11 c 1
 534 -6 446 0 352 0 c 0
 263 0 177 -6 113 -11 c 1
 73 12 60 95 60 152 c 0
 60 187 118 200 172 200 c 0
 229 200 235 230 235 263 c 2
 235 1229 l 2
 235 1262 229 1292 172 1292 c 0
 128 1292 60 1299 60 1344 c 0
 60 1398 74 1481 113 1503 c 1
EndSplineSet
Validated: 1
EndChar

StartChar: G
Encoding: 296 71 40
Width: 1615
Flags: HMW
HStem: 828 142 1007 494 1487 20G
VStem: 172 568
LayerCount: 2
Fore
SplineSet
1441 472 m 2x90
 1442 53 l 1
 1415 26 1388 17 1361 17 c 0
 1322 17 1283 42 1250 59 c 1
 1134 11 961 -27 816 -27 c 0
 302 -27 57 355 57 734 c 0
 57 1156 337 1512 759 1512 c 0
 905 1512 1104 1461 1210 1340 c 1
 1210 1340 1210 1490 1249 1490 c 2
 1361 1490 l 2
 1385 1490 1409 1466 1409 1386 c 2
 1409 1139 l 2
 1409 1022 1396 1018 1361 1014 c 1
 1278 1014 l 2
 1241 1014 1092 1325 776 1325 c 0
 457 1325 299 1027 299 738 c 0
 299 463 483 183 843 183 c 0
 964 183 1096 198 1220 229 c 1
 1220 435 l 2
 1220 513 1205 588 1067 588 c 0
 1040 588 1035 610 1035 666 c 0
 1035 708 1050 757 1068 786 c 1
 1162 778 1246 775 1322 775 c 0
 1438 775 1522 786 1544 786 c 1
 1554 776 1567 727 1567 696 c 0
 1567 555 1441 634 1441 472 c 2x90
EndSplineSet
Validated: 1
EndChar

StartChar: H
Encoding: 297 72 41
Width: 1759
Flags: HMW
HStem: 692 226 1478 20G
VStem: 164 590 1142 603
LayerCount: 2
Fore
SplineSet
113 -11 m 1
 73 12 60 95 60 152 c 0
 60 187 118 200 172 200 c 0
 229 200 235 230 235 263 c 2
 235 1229 l 2
 235 1262 229 1292 172 1292 c 0
 128 1292 60 1299 60 1344 c 0
 60 1398 74 1481 113 1503 c 1
 177 1498 263 1490 352 1490 c 0
 446 1490 534 1497 599 1502 c 1
 632 1479 642 1395 642 1338 c 0
 642 1303 584 1290 530 1290 c 0
 467 1290 466 1255 466 1225 c 2
 466 884 l 2
 466 874 466 863 485 863 c 2
 1273 863 l 2
 1292 863 1292 874 1292 884 c 2
 1292 1227 l 2
 1292 1260 1286 1290 1229 1290 c 0
 1175 1290 1117 1303 1117 1338 c 0
 1117 1395 1130 1479 1170 1502 c 1
 1234 1497 1320 1490 1409 1490 c 0
 1503 1490 1591 1497 1656 1502 c 1
 1689 1479 1699 1395 1699 1338 c 0
 1699 1303 1641 1290 1587 1290 c 0
 1524 1290 1523 1255 1523 1225 c 2
 1523 265 l 2
 1523 235 1524 200 1587 200 c 0
 1641 200 1699 187 1699 152 c 0
 1699 95 1689 12 1656 -11 c 1
 1591 -6 1503 0 1409 0 c 0
 1320 0 1234 -6 1170 -11 c 1
 1130 12 1117 95 1117 152 c 0
 1117 187 1175 200 1229 200 c 0
 1286 200 1292 230 1292 263 c 2
 1292 686 l 2
 1292 696 1292 707 1273 707 c 2
 485 707 l 2
 466 707 466 696 466 686 c 2
 466 265 l 2
 466 235 467 200 530 200 c 0
 584 200 642 187 642 152 c 0
 642 95 632 12 599 -11 c 1
 534 -6 446 0 352 0 c 0
 263 0 177 -6 113 -11 c 1
EndSplineSet
Validated: 1
EndChar

StartChar: I
Encoding: 298 73 42
Width: 702
Flags: HMW
HStem: 1487 20G
VStem: 199 568
LayerCount: 2
Fore
SplineSet
113 1503 m 1
 177 1498 263 1490 352 1490 c 0
 446 1490 534 1498 599 1503 c 1
 632 1480 642 1395 642 1338 c 0
 642 1303 584 1290 530 1290 c 0
 467 1290 466 1255 466 1225 c 2
 466 265 l 2
 466 235 467 200 530 200 c 0
 584 200 642 187 642 152 c 0
 642 95 632 12 599 -11 c 1
 534 -6 446 0 352 0 c 0
 263 0 177 -6 113 -11 c 1
 73 12 60 95 60 152 c 0
 60 187 118 200 172 200 c 0
 229 200 235 230 235 263 c 2
 235 1229 l 2
 235 1262 229 1292 172 1292 c 0
 128 1292 60 1299 60 1344 c 0
 60 1398 74 1481 113 1503 c 1
EndSplineSet
Validated: 1
EndChar

StartChar: J
Encoding: 299 74 43
Width: 957
Flags: HMW
HStem: 1171 319
VStem: 4 555 304 7
LayerCount: 2
Fore
SplineSet
482 351 m 2x80
 481 1227 l 2
 481 1260 475 1290 418 1290 c 0
 364 1290 306 1303 306 1338 c 0
 306 1395 319 1475 359 1498 c 1
 423 1493 509 1490 598 1490 c 0
 692 1490 780 1493 845 1498 c 1
 878 1475 888 1395 888 1338 c 0
 888 1303 830 1290 776 1290 c 0
 713 1290 712 1255 712 1225 c 2
 712 375 l 2
 712 145 664 -85 376 -85 c 0
 250 -85 57 -34 57 134 c 0
 57 194 117 229 176 229 c 0
 315 229 244 106 368 106 c 0
 470 106 482 211 482 351 c 2x80
EndSplineSet
Validated: 1
EndChar

StartChar: K
Encoding: 300 75 44
Width: 1598
Flags: HMW
HStem: 0 21<307.5 399>
VStem: -129 21
LayerCount: 2
Fore
SplineSet
113 1503 m 1
 177 1498 263 1490 352 1490 c 0
 446 1490 534 1498 599 1503 c 1
 632 1480 642 1395 642 1338 c 0
 642 1303 584 1290 530 1290 c 0
 467 1290 466 1255 466 1225 c 2
 466 792 l 1
 1025 1227 l 2
 1042 1240 1047 1249 1047 1258 c 0
 1047 1317 952 1273 952 1321 c 0
 952 1344 959 1360 969 1398 c 1
 983 1433 992 1487 1005 1503 c 1
 1072 1498 1162 1490 1259 1490 c 0
 1357 1490 1440 1498 1511 1503 c 1
 1537 1469 1541 1363 1541 1338 c 0
 1541 1301 1492 1290 1465 1290 c 0
 1384 1290 1352 1265 1320 1238 c 2
 786 793 l 1
 1084 423 1137 182 1444 182 c 0
 1503 182 1566 177 1566 156 c 2
 1566 119 l 2
 1566 45 1556 -27 1393 -27 c 0
 937 -27 938 256 621 693 c 1
 466 576 l 1
 466 265 l 2
 466 235 467 200 530 200 c 0
 584 200 642 187 642 152 c 0
 642 95 632 12 599 -11 c 1
 534 -6 446 0 352 0 c 0
 263 0 177 -6 113 -11 c 1
 73 12 60 95 60 152 c 0
 60 187 118 200 172 200 c 0
 229 200 235 230 235 263 c 2
 235 1229 l 2
 235 1262 229 1292 172 1292 c 0
 128 1292 60 1299 60 1344 c 0
 60 1398 74 1481 113 1503 c 1
EndSplineSet
Validated: 1
EndChar

StartChar: L
Encoding: 301 76 45
Width: 1320
Flags: HMW
HStem: 17 20G 42 21G
VStem: -246 20
LayerCount: 2
Fore
SplineSet
122 1503 m 1
 155 1494 265 1490 360 1490 c 0
 460 1490 543 1494 578 1503 c 1
 617 1481 631 1413 631 1359 c 0
 631 1324 583 1311 539 1311 c 0
 476 1311 475 1276 475 1246 c 2
 475 214 l 2
 475 198 476 179 489 179 c 0
 661 179 814 178 954 178 c 1
 994 249 1074 537 1133 537 c 0
 1241 537 1276 472 1276 456 c 0
 1276 407 1120 11 1078 -11 c 1
 929 -5 748 0 577 0 c 0
 399 0 232 -6 122 -11 c 1
 82 12 69 95 69 152 c 0
 69 187 127 200 181 200 c 0
 238 200 244 230 244 263 c 2
 244 1229 l 2
 244 1262 238 1292 181 1292 c 0
 137 1292 69 1299 69 1344 c 0
 69 1398 83 1481 122 1503 c 1
EndSplineSet
Validated: 1
EndChar

StartChar: M
Encoding: 302 77 46
Width: 2034
Flags: HMW
HStem: 33 21G<963.5 1009.5>
VStem: 265 268
LayerCount: 2
Fore
SplineSet
122 1503 m 1
 186 1498 231 1490 320 1490 c 0
 389 1490 453 1497 486 1497 c 0
 491 1497 495 1496 498 1496 c 0
 521 1492 889 641 1021 339 c 1
 1152 660 1512 1492 1536 1496 c 1
 1536 1496 1542 1497 1548 1497 c 0
 1577 1497 1638 1490 1699 1490 c 0
 1788 1490 1843 1491 1907 1503 c 1
 1940 1479 1950 1396 1950 1335 c 0
 1950 1300 1892 1287 1838 1287 c 0
 1781 1287 1775 1257 1775 1224 c 2
 1775 261 l 2
 1775 228 1781 198 1838 198 c 0
 1892 198 1950 185 1950 150 c 0
 1950 93 1936 12 1897 -11 c 1
 1836 -6 1753 0 1668 0 c 0
 1574 0 1481 -6 1416 -11 c 1
 1384 12 1373 95 1373 152 c 0
 1373 187 1431 200 1485 200 c 0
 1548 200 1549 235 1549 265 c 2
 1549 1146 l 2
 1549 1149 1093 86 1093 86 c 2
 1093 84 1034 33 985 33 c 0
 942 33 917 69 898 111 c 0
 850 219 441 1149 441 1146 c 2
 441 265 l 2
 441 235 442 200 505 200 c 0
 559 200 617 187 617 152 c 0
 617 95 606 12 574 -11 c 1
 518 -6 433 0 351 0 c 0
 266 0 183 -6 122 -11 c 1
 82 12 69 95 69 152 c 0
 69 187 127 200 181 200 c 0
 238 200 244 230 244 263 c 2
 244 1229 l 2
 244 1262 238 1292 181 1292 c 0
 137 1292 69 1299 69 1344 c 0
 69 1398 83 1481 122 1503 c 1
EndSplineSet
Validated: 33
EndChar

StartChar: N
Encoding: 303 78 47
Width: 1714
Flags: HMW
HStem: 808 20G
VStem: 64 22 1106 194
LayerCount: 2
Fore
SplineSet
122 1503 m 1
 186 1498 231 1490 320 1490 c 0
 377 1490 429 1497 456 1497 c 0
 461 1497 465 1496 468 1496 c 0
 518 1492 1185 547 1259 442 c 1
 1259 1226 l 2
 1259 1259 1253 1289 1196 1289 c 0
 1142 1289 1084 1302 1084 1337 c 0
 1084 1394 1095 1474 1127 1497 c 1
 1191 1492 1277 1490 1366 1490 c 0
 1456 1490 1541 1492 1603 1497 c 1
 1635 1474 1646 1394 1646 1337 c 0
 1646 1302 1588 1289 1534 1289 c 0
 1471 1289 1470 1254 1470 1224 c 2
 1470 414 l 2
 1470 289 1483 84 1483 14 c 1
 1467 -2 1424 -37 1375 -37 c 0
 1332 -37 1315 3 1288 41 c 0
 1179 194 455 1199 455 1196 c 2
 455 265 l 2
 455 235 456 200 519 200 c 0
 573 200 631 187 631 152 c 0
 631 95 620 12 588 -11 c 1
 526 -6 441 0 351 0 c 0
 266 0 183 -6 122 -11 c 1
 82 12 69 95 69 152 c 0
 69 187 127 200 181 200 c 0
 238 200 244 230 244 263 c 2
 244 1229 l 2
 244 1262 238 1292 181 1292 c 0
 137 1292 69 1299 69 1344 c 0
 69 1398 83 1481 122 1503 c 1
EndSplineSet
Validated: 33
EndChar

StartChar: O
Encoding: 304 79 48
Width: 1634
Flags: HMW
HStem: -16 217 1297 207
LayerCount: 2
Fore
SplineSet
817 -27 m 0
 313 -27 57 361 57 747 c 0
 57 1132 311 1512 817 1512 c 0
 1323 1512 1577 1132 1577 747 c 0
 1577 361 1321 -27 817 -27 c 0
817 153 m 1
 1152 154 1322 448 1322 743 c 0
 1322 1038 1152 1333 817 1333 c 0
 482 1333 312 1038 312 743 c 0
 312 448 482 154 817 153 c 1
EndSplineSet
Validated: 1
EndChar

StartChar: P
Encoding: 305 80 49
Width: 1462
Flags: HMW
HStem: 42 21G 1487 20G
VStem: 207 568 211 565 1011 630
LayerCount: 2
Fore
SplineSet
244 263 m 2xc8
 244 1229 l 2
 244 1262 238 1292 181 1292 c 0
 137 1292 69 1299 69 1344 c 0
 69 1398 83 1481 122 1503 c 1
 244 1491 386 1490 490 1490 c 0
 641 1490 768 1506 861 1506 c 0
 1231 1506 1411 1273 1411 1041 c 0
 1411 812 1226 584 861 584 c 2
 475 584 l 1
 475 265 l 2
 475 235 476 200 539 200 c 0
 593 200 651 187 651 152 c 0
 651 95 641 12 608 -11 c 1
 543 -6 455 0 361 0 c 0
 272 0 186 -6 122 -11 c 1
 82 12 69 95 69 152 c 0
 69 187 127 200 181 200 c 0
 238 200 244 230 244 263 c 2xc8
475 753 m 1
 861 753 l 2
 1071 753 1180 893 1180 1034 c 0
 1180 1177 1077 1322 861 1322 c 2
 475 1322 l 1
 475 753 l 1
EndSplineSet
Validated: 1
EndChar

StartChar: Q
Encoding: 306 81 50
Width: 1628
Flags: HMW
HStem: -16 217 1297 207
LayerCount: 2
Fore
SplineSet
1028 14 m 1
 1054 -123 1101 -203 1238 -203 c 0
 1287 -203 1347 -193 1421 -172 c 1
 1421 -172 1426 -219 1426 -243 c 0
 1426 -263 1422 -280 1411 -287 c 0
 1342 -328 1265 -350 1192 -350 c 0
 1028 -350 883 -241 883 -11 c 1
 1028 14 l 1
815 -27 m 0
 311 -27 55 361 55 747 c 0
 55 1132 309 1512 815 1512 c 0
 1321 1512 1575 1132 1575 747 c 0
 1575 361 1319 -27 815 -27 c 0
815 153 m 1
 1150 154 1320 448 1320 743 c 0
 1320 1038 1150 1333 815 1333 c 0
 480 1333 310 1038 310 743 c 0
 310 448 480 154 815 153 c 1
EndSplineSet
Validated: 5
EndChar

StartChar: R
Encoding: 307 82 51
Width: 1572
Flags: HMW
HStem: 0 21<305.5 401> 1487 20G
VStem: 814 842 998 637 1037 568
LayerCount: 2
Fore
SplineSet
466 843 m 1xc0
 882 843 l 2
 1057 843 1151 958 1151 1074 c 0
 1151 1197 1057 1322 862 1322 c 2
 466 1322 l 1
 466 843 l 1xc0
113 1503 m 1
 235 1491 377 1490 481 1490 c 0
 636 1490 766 1506 862 1506 c 0
 1211 1506 1382 1293 1382 1081 c 0
 1382 913 1248 717 988 705 c 1
 1265 616 1214 190 1388 190 c 0
 1457 190 1530 185 1530 164 c 2
 1530 127 l 2
 1530 53 1518 -19 1337 -19 c 0
 938 -19 1127 604 678 674 c 1
 466 674 l 1
 466 265 l 2
 466 235 467 200 530 200 c 0
 584 200 642 187 642 152 c 0
 642 95 634 12 609 -11 c 1
 541 -6 450 0 352 0 c 0
 259 0 180 -6 113 -11 c 1
 73 12 60 95 60 152 c 0
 60 187 118 200 172 200 c 0
 229 200 235 230 235 263 c 2
 235 1229 l 2
 235 1262 229 1292 172 1292 c 0
 128 1292 60 1299 60 1344 c 0
 60 1398 74 1481 113 1503 c 1
EndSplineSet
Validated: 1
EndChar

StartChar: S
Encoding: 308 83 52
Width: 1295
Flags: HMW
HStem: -29 174 1134 380 1356 158
LayerCount: 2
Fore
SplineSet
249 -11 m 2x80
 152 -11 l 1
 129 89 87 281 87 416 c 0
 87 449 168 469 226 469 c 0
 238 469 250 468 258 466 c 1
 346 241 577 150 737 150 c 0
 882 150 997 213 997 353 c 0
 997 775 53 529 53 1127 c 0
 53 1384 309 1512 572 1512 c 0
 701 1512 833 1477 932 1406 c 1
 972 1486 924 1491 1030 1491 c 0
 1060 1491 1099 1488 1125 1486 c 1
 1125 1486 1188 1207 1188 1089 c 0
 1188 1066 1089 1053 1033 1053 c 2
 1008 1053 l 1
 962 1217 817 1353 584 1353 c 0
 391 1353 301 1269 301 1144 c 0
 301 784 1251 976 1251 389 c 0
 1251 92 1006 -27 740 -27 c 0
 593 -27 442 25 325 113 c 1
 308 14 l 2
 305 0 300 -11 249 -11 c 2x80
EndSplineSet
Validated: 1
EndChar

StartChar: T
Encoding: 309 84 53
Width: 1326
Flags: HMW
HStem: 1494 20G
VStem: 384 566
LayerCount: 2
Fore
SplineSet
547 263 m 2
 547 1296 l 2
 547 1312 547 1331 523 1331 c 0
 432 1331 338 1332 258 1332 c 1
 232 1273 188 1033 149 1033 c 0
 41 1033 6 1098 6 1114 c 0
 6 1154 74 1486 94 1506 c 1
 100 1506 100 1505 106 1505 c 0
 213 1496 398 1480 663 1480 c 0
 928 1480 1112 1496 1219 1505 c 0
 1225 1505 1225 1506 1231 1506 c 1
 1251 1486 1319 1154 1319 1114 c 0
 1319 1098 1284 1033 1176 1033 c 0
 1137 1033 1093 1273 1067 1332 c 1
 987 1332 893 1331 802 1331 c 0
 778 1331 778 1312 778 1296 c 2
 778 265 l 2
 778 235 779 200 842 200 c 0
 896 200 954 187 954 152 c 0
 954 95 946 12 921 -11 c 1
 853 -6 762 0 664 0 c 0
 567 0 475 -6 405 -11 c 1
 380 12 372 95 372 152 c 0
 372 187 430 200 484 200 c 0
 541 200 547 230 547 263 c 2
EndSplineSet
Validated: 1
EndChar

StartChar: U
Encoding: 310 85 54
Width: 1846
Flags: HMW
HStem: -16 217 1297 207
LayerCount: 2
Fore
SplineSet
918 153 m 0
 1218 153 1369 333 1369 513 c 2
 1369 1227 l 2
 1369 1260 1363 1290 1306 1290 c 0
 1252 1290 1194 1303 1194 1338 c 0
 1194 1395 1207 1475 1247 1498 c 1
 1311 1493 1397 1490 1486 1490 c 0
 1580 1490 1668 1493 1733 1498 c 1
 1766 1475 1776 1395 1776 1338 c 0
 1776 1303 1718 1290 1664 1290 c 0
 1601 1290 1600 1255 1600 1225 c 2
 1600 517 l 2
 1600 246 1366 -27 918 -27 c 0
 470 -27 236 246 236 517 c 2
 236 1225 l 2
 236 1255 235 1290 172 1290 c 0
 118 1290 60 1303 60 1338 c 0
 60 1395 70 1475 103 1498 c 1
 168 1493 256 1490 350 1490 c 0
 439 1490 525 1493 589 1498 c 1
 629 1475 642 1395 642 1338 c 0
 642 1303 584 1290 530 1290 c 0
 473 1290 467 1260 467 1227 c 2
 467 513 l 2
 467 333 618 153 918 153 c 0
EndSplineSet
Validated: 1
EndChar

StartChar: V
Encoding: 311 86 55
Width: 1640
Flags: HMW
HStem: -11 21G<731 873> 1297 199 1485 20G
VStem: 8 1623
LayerCount: 2
Fore
SplineSet
464 1232 m 0xd0
 676 631 776 364 821 249 c 1
 867 363 970 631 1185 1232 c 1xd0
 1194 1245 1194 1257 1194 1269 c 0xb0
 1194 1317 1050 1280 1050 1337 c 1
 1055 1395 1066 1481 1077 1505 c 1xd0
 1143 1500 1236 1497 1334 1497 c 0
 1439 1497 1537 1500 1614 1505 c 1xb0
 1626 1497 1631 1479 1631 1459 c 0
 1631 1423 1623 1380 1615 1345 c 1
 1603 1310 1546 1297 1497 1297 c 0
 1441 1297 1423 1267 1410 1234 c 2
 1018 243 l 2
 921 0 944 -11 802 -11 c 0
 660 -11 686 2 593 245 c 2
 215 1234 l 2
 202 1267 185 1297 128 1297 c 0xd0
 79 1297 20 1310 8 1345 c 1
 10 1380 12 1423 12 1459 c 0xb0
 12 1479 17 1497 29 1505 c 1
 103 1500 200 1497 301 1497 c 0xd0
 407 1497 498 1500 570 1505 c 1xb0
 581 1481 593 1395 597 1337 c 1
 597 1280 455 1317 455 1269 c 0
 455 1257 459 1245 464 1232 c 0xd0
EndSplineSet
Validated: 1
EndChar

StartChar: W
Encoding: 312 87 56
Width: 2333
Flags: HMW
HStem: 1489 20G
LayerCount: 2
Fore
SplineSet
464 1232 m 1
 628 649 704 394 741 282 c 1
 780 399 1000 1164 1015 1223 c 1
 1079 1403 958 1462 1201 1462 c 0
 1388 1462 1294 1394 1355 1229 c 1
 1388 1117 1608 398 1643 282 c 1
 1674 393 1876 1169 1880 1192 c 0
 1883 1207 1896 1257 1896 1269 c 0
 1896 1317 1752 1280 1752 1337 c 1
 1757 1395 1768 1481 1779 1505 c 1
 1842 1500 1932 1497 2026 1497 c 0
 2131 1497 2229 1500 2306 1505 c 1
 2318 1497 2323 1479 2323 1459 c 0
 2323 1423 2315 1380 2307 1345 c 1
 2295 1310 2238 1297 2189 1297 c 0
 2133 1297 2115 1267 2102 1234 c 1
 1840 243 l 2
 1773 -10 1766 -11 1624 -11 c 0
 1490 -11 1489 -6 1427 204 c 2
 1169 1080 l 1
 911 193 l 2
 852 -9 844 -11 712 -11 c 0
 589 -11 587 -4 531 186 c 1
 524 204 520 227 513 248 c 2
 215 1234 l 1
 201 1267 184 1297 128 1297 c 0
 79 1297 20 1310 8 1345 c 1
 11 1399 4 1488 29 1505 c 1
 103 1500 200 1497 301 1497 c 0
 407 1497 498 1500 570 1505 c 1
 581 1481 593 1395 597 1337 c 1
 597 1280 455 1317 455 1269 c 0
 455 1257 459 1245 464 1232 c 1
EndSplineSet
Validated: 1
EndChar

StartChar: X
Encoding: 313 88 57
Width: 1508
Flags: HMW
HStem: -11 21G 0 195 0 200<92.5 345> 1296 200<1145 1412.5> 1301 195 1484 20G 1485 20G
VStem: 7 1493
LayerCount: 2
Fore
SplineSet
1024 265 m 0x49
 997 304 740 623 740 623 c 1x89
 740 623 609 462 453 265 c 1
 444 252 444 240 444 228 c 0x49
 444 180 578 217 578 160 c 1
 573 102 562 13 551 -11 c 1x89
 482 -6 396 0 294 0 c 0
 193 0 98 -6 24 -11 c 1
 12 -3 7 18 7 38 c 0
 7 74 15 117 23 152 c 0
 32 187 74 200 111 200 c 0
 173 200 193 222 216 248 c 2
 640 745 l 1
 224 1234 l 2
 199 1264 155 1297 87 1297 c 0x23
 46 1297 27 1310 17 1345 c 1
 19 1380 21 1423 21 1459 c 0x49
 21 1479 26 1497 38 1505 c 1x43
 118 1500 221 1497 330 1497 c 0
 432 1497 520 1500 589 1505 c 1x49
 600 1481 616 1395 616 1337 c 0
 616 1280 468 1319 468 1271 c 0
 468 1259 474 1244 483 1232 c 0
 512 1192 766 883 766 883 c 1
 766 883 897 1040 1053 1231 c 0x51
 1062 1243 1062 1256 1062 1268 c 0x45
 1062 1316 928 1279 928 1336 c 1
 933 1394 944 1480 955 1504 c 1x51
 1018 1499 1098 1496 1192 1496 c 0
 1293 1496 1388 1500 1462 1504 c 1x45
 1474 1496 1479 1478 1479 1447 c 0
 1479 1413 1479 1376 1471 1344 c 0
 1463 1309 1441 1296 1384 1296 c 0
 1322 1296 1293 1274 1270 1248 c 2
 865 770 l 1
 1293 263 l 2
 1318 233 1362 200 1430 200 c 0x31
 1471 200 1490 187 1500 152 c 1
 1498 117 1496 74 1496 38 c 0x89
 1496 18 1491 -3 1479 -11 c 1
 1405 -6 1308 0 1207 0 c 0x49
 1093 0 996 -6 918 -11 c 1x89
 907 13 891 102 891 160 c 0
 891 217 1039 178 1039 226 c 0
 1039 238 1033 253 1024 265 c 0x49
EndSplineSet
Validated: 1
EndChar

StartChar: Y
Encoding: 314 89 58
Width: 1474
Flags: HMW
HStem: -11 21G 0 200<531 787> 1297 200<118.5 351> 1300 196 1485 20G
VStem: 621 231<263 265 250 592>
LayerCount: 2
Fore
SplineSet
853 592 m 1x94
 852 265 l 2x94
 852 235 853 200 916 200 c 0
 970 200 1028 187 1028 152 c 0x54
 1028 95 1020 12 995 -11 c 1x94
 927 -6 836 0 738 0 c 0
 645 0 556 -6 489 -11 c 1
 457 12 446 95 446 152 c 0
 446 187 504 200 558 200 c 0
 615 200 621 230 621 263 c 2
 621 592 l 1
 244 1234 l 2x64
 224 1267 198 1297 143 1297 c 0
 94 1297 35 1310 15 1345 c 1x8c
 15 1387 11 1442 11 1481 c 0
 11 1492 11 1500 20 1505 c 1x94
 99 1500 197 1497 302 1497 c 0x8c
 400 1497 494 1500 557 1505 c 1
 565 1481 574 1395 582 1337 c 0
 582 1335 583 1333 583 1331 c 0
 583 1285 452 1313 452 1274 c 0
 452 1262 461 1248 470 1232 c 0
 536 1114 714 807 714 807 c 2
 725 789 739 763 747 758 c 1
 754 760 769 788 779 807 c 2
 779 807 947 1103 1024 1232 c 0
 1033 1247 1042 1262 1042 1274 c 0
 1042 1313 911 1285 911 1331 c 0x94
 911 1333 912 1335 912 1337 c 0x8c
 920 1395 929 1481 937 1505 c 1
 996 1500 1082 1497 1172 1497 c 0x94
 1277 1497 1375 1500 1454 1505 c 1
 1463 1500 1463 1492 1463 1481 c 0
 1463 1474 1462 1467 1460 1459 c 1
 1460 1444 l 2x8c
 1460 1423 1461 1401 1461 1379 c 0
 1461 1367 1460 1356 1459 1345 c 1
 1439 1310 1380 1297 1331 1297 c 0
 1275 1297 1249 1267 1230 1234 c 2xa4
 853 592 l 1x94
EndSplineSet
Validated: 1
EndChar

StartChar: Z
Encoding: 315 90 59
Width: 1327
Flags: HMW
HStem: 1300 168
LayerCount: 2
Fore
SplineSet
118 -11 m 1
 106 -7 57 118 57 205 c 0
 57 212 59 219 62 225 c 1
 97 272 134 324 174 373 c 2
 914 1266 l 2
 927 1281 940 1293 940 1305 c 1
 940 1302 699 1301 334 1301 c 1
 315 1247 271 1015 243 1015 c 0
 172 1015 71 1052 71 1083 c 1
 71 1083 71 1092 72 1092 c 0
 88 1200 133 1382 181 1503 c 1
 369 1492 586 1488 821 1488 c 0
 956 1488 1097 1497 1190 1503 c 1
 1210 1466 1215 1444 1215 1314 c 0
 1215 1268 1079 1098 1012 1010 c 1
 962 947 450 329 329 184 c 1
 353 189 943 191 986 191 c 1
 1008 266 1063 503 1087 503 c 0
 1148 503 1284 477 1284 433 c 1
 1280 367 1181 51 1150 -11 c 1
 988 -2 809 0 627 0 c 0
 448 0 265 -2 118 -11 c 1
EndSplineSet
Validated: 1
EndChar

StartChar: bracketleft
Encoding: 316 91 60
Width: 623
Flags: HMW
HStem: 1487 20G
VStem: 38 568
LayerCount: 2
Fore
SplineSet
324 1255 m 2
 324 138 l 2
 324 123 325 103 368 103 c 0
 547 103 580 90 580 55 c 0
 580 -2 574 -82 557 -105 c 1
 494 -101 409 -98 324 -98 c 0
 253 -98 182 -100 123 -105 c 1
 100 -105 93 -95 93 -74 c 2
 93 1467 l 2
 93 1488 100 1498 123 1498 c 1
 182 1492 253 1490 324 1490 c 0
 409 1490 494 1493 557 1498 c 1
 574 1475 580 1395 580 1338 c 0
 580 1303 547 1290 368 1290 c 0
 325 1290 324 1271 324 1255 c 2
EndSplineSet
Validated: 1
EndChar

StartChar: backslash
Encoding: 317 92 61
Width: 1036
Flags: HMW
HStem: -47 1620<93 949>
VStem: 28 981
LayerCount: 2
Fore
SplineSet
990 107 m 0
 1003 84 1009 62 1009 43 c 0
 1009 -12 975 -47 923 -47 c 0
 885 -47 843 -26 815 26 c 0
 568 480 200 1155 48 1425 c 0
 34 1449 28 1471 28 1491 c 0
 28 1542 70 1573 116 1573 c 0
 155 1573 199 1553 225 1505 c 0
 366 1247 823 393 990 107 c 0
EndSplineSet
Validated: 1
EndChar

StartChar: bracketright
Encoding: 318 93 62
Width: 623
Flags: HMW
HStem: 1487 20G
VStem: 15 568
LayerCount: 2
Fore
SplineSet
297 138 m 2
 297 1255 l 2
 297 1271 296 1290 253 1290 c 0
 74 1290 41 1303 41 1338 c 0
 41 1395 47 1475 64 1498 c 1
 127 1493 212 1490 297 1490 c 0
 368 1490 439 1492 498 1498 c 1
 521 1498 528 1488 528 1467 c 2
 528 -74 l 2
 528 -95 521 -105 498 -105 c 1
 439 -100 368 -98 297 -98 c 0
 212 -98 127 -101 64 -105 c 1
 47 -82 41 -2 41 55 c 0
 41 90 74 103 253 103 c 0
 296 103 297 123 297 138 c 2
EndSplineSet
Validated: 1
EndChar

StartChar: asciicircum
Encoding: 319 94 63
Width: 864
Flags: HMW
HStem: 999 476<97.5 482 382 773>
VStem: 43 778<1039 1075>
LayerCount: 2
Fore
SplineSet
382 1475 m 1
 482 1475 l 1
 569 1386 705 1224 734 1187 c 0
 783 1125 821 1090 821 1060 c 0
 821 1018 802 999 744 999 c 0
 675 999 656 1024 618 1072 c 2
 437 1303 l 1
 256 1072 l 2
 218 1024 199 999 130 999 c 0
 65 999 43 1018 43 1060 c 0
 43 1090 81 1125 130 1187 c 0
 159 1224 294 1386 382 1475 c 1
EndSplineSet
Validated: 1
EndChar

StartChar: underscore
Encoding: 320 95 64
Width: 1269
Flags: HMW
HStem: -197 171<243 1074>
VStem: 43 1183<-141 -86>
LayerCount: 2
Fore
SplineSet
222 -27 m 1
 274 -26 1040 -26 1047 -26 c 0
 1101 -26 1177 -24 1190 -23 c 1
 1216 -33 1226 -60 1226 -108 c 0
 1226 -174 1203 -203 1171 -203 c 1
 1159 -198 944 -197 944 -197 c 1
 243 -197 l 1
 243 -197 105 -201 98 -205 c 1
 66 -205 43 -176 43 -110 c 0
 43 -62 53 -35 79 -25 c 1
 92 -26 168 -27 222 -27 c 1
EndSplineSet
Validated: 1
EndChar

StartChar: quoteleft
Encoding: 321 8216 65
Width: 497
Flags: HMW
HStem: 1545 20G 1555 20G
VStem: 33 495 43 481
LayerCount: 2
Fore
SplineSet
369 1481 m 0x00
 369 1436 270 1328 270 1312 c 0
 270 1274 447 1286 447 1127 c 0
 447 1025 370 955 259 955 c 0
 152 955 68 1035 68 1136 c 0
 68 1312 191 1512 321 1512 c 0
 351 1512 369 1500 369 1481 c 0x00
EndSplineSet
Validated: 1
EndChar

StartChar: a
Encoding: 322 97 66
Width: 1157
Flags: HMW
HStem: -27 178<336 404.5> -7 21G<814 814> 0 21G<923.5 971> 929 166<446.5 584>
VStem: -1 236<225 320.5 225 398> 710 227<293 470 470 470>
LayerCount: 2
Fore
SplineSet
772 136 m 1x9c
 672 31 510 -27 361 -27 c 4x9c
 182 -27 32 67 32 269 c 4
 32 527 325 570 731 631 c 1
 731 853 689 929 523 929 c 0
 417 929 244 879 151 778 c 5
 94 826 70 873 70 911 c 4
 70 1029 339 1095 538 1095 c 0
 792 1095 959 979 959 598 c 2
 959 278 l 2
 959 192 976 189 1006 185 c 0
 1069 178 1124 172 1124 139 c 0
 1124 85 1116 14 1091 -8 c 1
 1067 -4 1020 0 966 0 c 0x3c
 925 0 879 -2 836 -7 c 1x5c
 836 -7 772 33 772 136 c 1x9c
407 151 m 4
 537 151 706 243 732 293 c 1
 732 470 l 1
 380 407 268 369 268 272 c 4
 268 178 331 151 407 151 c 4
EndSplineSet
Validated: 1
EndChar

StartChar: b
Encoding: 323 98 67
Width: 1318
Flags: HMW
HStem: -27 171<679 823.5 671 885> -7 21G<120.5 163> 925 170<690.5 808.5> 1470 20G<196.5 258> 1481 20G<358 391>
VStem: 196 227<343 604 928 1209 1209 1244> 1046 235<405 665>
LayerCount: 2
Fore
SplineSet
423 604 m 2xae
 423 343 l 1
 464 235 593 144 749 144 c 0
 898 144 1046 275 1046 535 c 0
 1046 795 888 925 729 925 c 0
 582 925 423 817 423 604 c 2xae
423 1348 m 2
 423 928 l 1
 492 1040 631 1095 750 1095 c 0xae
 1015 1095 1281 908 1281 535 c 0
 1281 162 1017 -27 753 -27 c 0
 605 -27 471 27 351 141 c 1
 251 41 l 1
 214 8 179 -7 147 -7 c 0
 94 -7 55 32 55 84 c 0
 55 118 71 159 111 196 c 2
 196 274 l 1
 196 1209 l 2
 196 1279 166 1304 48 1310 c 1x6e
 30 1314 28 1323 28 1366 c 0
 28 1440 49 1494 61 1501 c 1xb6
 121 1493 173 1490 220 1490 c 0
 296 1490 348 1501 368 1501 c 0
 414 1501 424 1488 424 1403 c 0
 424 1387 423 1369 423 1348 c 2
EndSplineSet
Validated: 1
EndChar

StartChar: c
Encoding: 324 99 68
Width: 1043
Flags: HMW
HStem: 47 342
VStem: -23 512
LayerCount: 2
Fore
SplineSet
995 828 m 0
 995 759 951 687 823 687 c 4
 793 687 794 698 789 747 c 6
 774 890 l 1
 774 890 716 931 607 931 c 0
 396 931 268 740 268 534 c 0
 268 304 390 163 622 163 c 0
 726 163 869 212 951 284 c 1
 999 228 1008 177 1008 156 c 0
 1008 52 805 -27 605 -27 c 0
 299 -27 34 164 34 545 c 0
 34 902 319 1095 595 1095 c 0
 891 1095 995 969 995 828 c 0
EndSplineSet
Validated: 1
EndChar

StartChar: d
Encoding: 325 100 69
Width: 1316
Flags: HMW
VStem: -82 21
LayerCount: 2
Fore
SplineSet
892 464 m 2
 892 725 l 1
 820 855 692 926 572 926 c 0
 415 926 269 805 269 533 c 0
 269 273 427 143 586 143 c 0
 733 143 892 251 892 464 c 2
1119 1348 m 2
 1119 251 l 2
 1119 221 1123 186 1190 184 c 0
 1239 182 1284 170 1284 142 c 0
 1284 88 1275 14 1250 -8 c 1
 1209 -2 1170 0 1131 0 c 0
 1066 0 1009 -3 955 -8 c 1
 907 14 892 77 892 131 c 2
 892 140 l 1
 817 28 666 -27 535 -27 c 0
 285 -27 34 160 34 533 c 0
 34 906 298 1092 562 1094 c 1
 568 1094 l 2
 701 1094 809 1043 892 947 c 1
 892 1209 l 2
 892 1279 862 1304 744 1310 c 1
 726 1314 724 1323 724 1366 c 0
 724 1440 745 1494 757 1501 c 1
 817 1493 869 1490 916 1490 c 0
 992 1490 1044 1501 1064 1501 c 0
 1110 1501 1120 1488 1120 1403 c 0
 1120 1387 1119 1369 1119 1348 c 2
EndSplineSet
Validated: 1
EndChar

StartChar: e
Encoding: 326 101 70
Width: 1107
Flags: HMW
HStem: -27 190<513 656.5 513 706.5> 496 155<275 869 275 959 269 869> 935 161<521.5 661>
VStem: 34 235<496 496 496 730> 869 202<651 651>
LayerCount: 2
Fore
SplineSet
1071 591 m 0
 1071 537 1052 496 959 496 c 2
 269 496 l 1
 281 246 430 163 596 163 c 0
 717 163 850 207 954 285 c 1
 982 252 1011 203 1011 153 c 0
 1011 67 815 -27 598 -27 c 0
 327 -27 34 109 34 555 c 0
 34 905 316 1096 586 1096 c 0
 834 1096 1071 936 1071 591 c 0
869 651 m 1
 856 847 728 935 594 935 c 0
 449 935 294 832 275 651 c 1
 869 651 l 1
EndSplineSet
Validated: 1
EndChar

StartChar: f
Encoding: 327 102 71
Width: 920
Flags: HMW
HStem: -8 21G 0 186<139 399.5> 912 154<215 229 215 215> 912 155<456 539 456 552> 1050 20G 1401 145<522.5 584.5>
VStem: 229 227<249 251 251 912> 667 221<1194.5 1377.5>
LayerCount: 2
Back
SplineSet
476 912 m 5x56
 476 251 l 6
 476 221 477 186 540 186 c 4x56
 599 186 662 173 662 138 c 4x96
 662 84 653 13 629 -8 c 5
 561 -3 466 0 373 0 c 4x56
 266 0 162 -3 107 -8 c 5x96
 82 15 74 84 74 138 c 4
 74 173 132 186 186 186 c 4
 243 186 249 216 249 249 c 6
 249 912 l 5
 235 912 l 5
 235 912 110 910 104 905 c 5
 75 905 54 931 54 991 c 4x56
 54 1035 63 1059 87 1068 c 5
 98 1067 167 1066 216 1066 c 6
 249 1066 l 5x66
 249 1121 l 6
 249 1462 436 1546 608 1546 c 4
 764 1546 908 1454.92561983 908 1314 c 4
 908 1213.95454545 831 1172 751 1172 c 4
 713.875 1172 707 1183 707 1206 c 4
 688 1375 l 5
 652 1393 619 1401 590 1401 c 4
 495 1401 464 1314 464 1219 c 4
 464 1166 469 1109 476 1067 c 5
 572 1067 l 6x57
 621 1067 690 1069 701 1070 c 5
 725 1061 734 1036 734 993 c 4x4e
 734 933 713 907 684 907 c 5
 678 912 559 912 559 912 c 5
 476 912 l 5x56
EndSplineSet
Fore
SplineSet
456 912 m 5x56
 456 251 l 6
 456 221 457 186 520 186 c 4x56
 579 186 642 173 642 138 c 4x96
 642 84 633 13 609 -8 c 5
 541 -3 446 0 353 0 c 4x56
 246 0 142 -3 87 -8 c 5x96
 62 15 54 84 54 138 c 4
 54 173 112 186 166 186 c 4
 223 186 229 216 229 249 c 6
 229 912 l 5
 215 912 l 5
 215 912 90 910 84 905 c 5
 55 905 34 931 34 991 c 4x56
 34 1035 43 1059 67 1068 c 5
 78 1067 147 1066 196 1066 c 6
 229 1066 l 5x66
 229 1121 l 6
 229 1462 416 1546 588 1546 c 4
 744 1546 888 1455 888 1314 c 4
 888 1214 811 1172 731 1172 c 4
 694 1172 687 1183 687 1206 c 4
 668 1375 l 5
 632 1393 599 1401 570 1401 c 4
 475 1401 444 1314 444 1219 c 4
 444 1166 449 1109 456 1067 c 5
 552 1067 l 6x57
 601 1067 670 1069 681 1070 c 5
 705 1061 714 1036 714 993 c 4x4e
 714 933 693 907 664 907 c 5
 658 912 539 912 539 912 c 5
 456 912 l 5x56
EndSplineSet
Validated: 1
EndChar

StartChar: g
Encoding: 328 103 72
Width: 1159
Flags: HMW
HStem: -494 182<543.167 679.667> -43 176 -25 21G -8 21G 294 170<475.167 628.667 412.167 687.167> 927 168<415.667 562.167 356.167 618.667> 968 199<948.17 1018.67>
VStem: 14 216<632 748 632 785> 37 239<121.5 201.5> 70 185 804 207<630 731 566 745.5> 854 237<-200.5 -111.5>
LayerCount: 2
Fore
SplineSet
1096 -130 m 4xcc90
 1096 -434 842 -494 528 -494 c 4
 288 -494 75 -436 75 -338 c 4xcc60
 75 -239 100 -136 157 -8 c 5
 84 17 42 64 42 154 c 4x9ca0
 42 249 121 337 188 392 c 5
 85 468 39 576 39 681 c 4
 39 889 231 1095 514 1095 c 4xcd20
 632 1095 703 1076 777 1031 c 5
 804 1057 880 1167 1027 1167 c 4
 1120 1167 1127 1148 1127 1095 c 6
 1127 1078 l 6
 1127 970 1109 968 929 968 c 4
 911 968 889 970 868 970 c 5
 957 909 1016 795 1016 667 c 4xcb20
 1016 465 848 294 537 294 c 4
 424 294 341 325 314 330 c 5
 292 286 281 231 281 199 c 4
 281 44 1096 301 1096 -130 c 4xcc90
526 464 m 4xcd20
 742 464 809 574 809 686 c 4
 809 805 727 927 530 927 c 4
 335 927 255 809 255 687 c 4
 255 577 324 464 526 464 c 4xcd20
411 -43 m 5
 411 -43 303 -36 260 -25 c 5xac60
 260 -154 260 -274 351 -289 c 5
 439 -305 517 -312 580 -312 c 4
 811 -312 859 -246 859 -155 c 4xcc50
 859 -68 738 -43 606 -43 c 6
 411 -43 l 5
EndSplineSet
Validated: 1
EndChar

StartChar: h
Encoding: 329 104 73
Width: 1341
Flags: HMW
VStem: -186 506
LayerCount: 2
Fore
SplineSet
425 1348 m 2
 425 925 l 1
 511 1016 647 1096 807 1096 c 0
 972 1096 1124 991 1124 685 c 2
 1124 278 l 2
 1124 198 1150 181 1174 179 c 0
 1244 172 1309 172 1309 131 c 0
 1309 77 1299 14 1266 -8 c 1
 1192 -1 1140 0 1100 0 c 0
 1023 0 988 -8 931 -8 c 0
 913 -8 897 -3 897 61 c 2
 897 667 l 2
 897 851 825 918 735 918 c 0
 638 918 517 851 425 768 c 1
 425 251 l 2
 425 221 426 186 489 186 c 0
 533 186 581 173 581 138 c 0
 581 84 573 14 548 -8 c 1
 489 -3 404 0 317 0 c 0
 227 0 136 -3 76 -8 c 1
 51 15 43 84 43 138 c 0
 43 173 91 186 135 186 c 0
 192 186 198 216 198 249 c 2
 198 1209 l 2
 198 1279 168 1304 50 1310 c 1
 32 1314 30 1323 30 1366 c 0
 30 1440 51 1494 63 1501 c 1
 123 1493 175 1490 222 1490 c 0
 298 1490 350 1501 370 1501 c 0
 416 1501 426 1488 426 1403 c 0
 426 1387 425 1369 425 1348 c 2
EndSplineSet
Validated: 1
EndChar

StartChar: i
Encoding: 330 105 74
Width: 621
Flags: HMW
HStem: 227 21G 1245 244<242.5 294.5>
VStem: 22 636
LayerCount: 2
Fore
SplineSet
268 1245 m 0
 217 1245 98 1262 98 1366 c 0
 98 1447 154 1489 264 1489 c 0
 396 1489 419 1415 419 1365 c 0
 419 1267 321 1245 268 1245 c 0
433 980 m 2
 433 251 l 2
 433 221 434 186 497 186 c 0
 541 186 589 173 589 138 c 0
 589 84 581 14 556 -8 c 1
 500 -3 420 0 336 0 c 0
 249 0 157 -3 84 -8 c 1
 59 15 51 84 51 138 c 0
 51 173 99 186 143 186 c 0
 200 186 206 216 206 249 c 2
 206 786 l 2
 206 856 176 881 58 887 c 1
 40 891 38 900 38 943 c 0
 38 1017 59 1071 71 1078 c 1
 127 1070 176 1067 220 1067 c 0
 301 1067 356 1078 377 1078 c 0
 423 1078 433 1065 433 980 c 2
EndSplineSet
Validated: 1
EndChar

StartChar: j
Encoding: 331 106 75
Width: 705
Flags: HMW
HStem: 1171 319
VStem: 227 555 527 7
LayerCount: 2
Fore
SplineSet
482 1245 m 0x80
 431 1245 312 1262 312 1366 c 0
 312 1447 368 1489 478 1489 c 0
 610 1489 633 1415 633 1365 c 0
 633 1267 535 1245 482 1245 c 0x80
647 980 m 2
 647 154 l 2
 647 -92 603 -338 339 -338 c 0
 216 -338 27 -290 27 -131 c 0
 27 -74 84 -41 140 -41 c 0
 271 -41 203 -157 322 -157 c 0
 410 -157 420 -58 420 75 c 2
 420 786 l 2
 420 856 388 881 262 887 c 1
 244 891 242 900 242 943 c 0
 242 1017 264 1071 275 1078 c 1
 343 1070 401 1067 454 1067 c 0
 525 1067 572 1078 591 1078 c 0
 637 1078 647 1065 647 980 c 2
EndSplineSet
Validated: 1
EndChar

StartChar: k
Encoding: 332 107 76
Width: 1301
Flags: HMW
VStem: -56 21
LayerCount: 2
Fore
SplineSet
425 1348 m 2
 425 669 l 1
 741 857 l 1
 791 893 795 894 795 902 c 0
 795 920 720 886 720 970 c 0
 720 1012 725 1056 747 1080 c 1
 783 1073 879 1067 980 1067 c 0
 1052 1067 1126 1071 1182 1080 c 1
 1208 1069 1214 1020 1214 960 c 0
 1214 834 1154 931 963 801 c 1
 721 643 l 1
 785 563 950 360 1011 276 c 0
 1065 203 1057 186 1141 186 c 0
 1206 186 1266 178 1266 138 c 0
 1266 84 1257 14 1233 -8 c 1
 1163 -2 1088 0 1018 0 c 0
 933 0 854 -4 788 -8 c 1
 777 51 762 103 762 137 c 0
 762 161 786 176 848 182 c 1
 814 236 706 373 567 557 c 1
 425 469 l 1
 425 251 l 2
 425 221 426 186 489 186 c 0
 533 186 581 173 581 138 c 0
 581 84 573 14 548 -8 c 1
 489 -3 401 0 314 0 c 0
 222 0 131 -3 76 -8 c 1
 51 15 43 84 43 138 c 0
 43 173 91 186 135 186 c 0
 192 186 198 216 198 249 c 2
 198 1209 l 2
 198 1279 168 1304 50 1310 c 1
 32 1314 30 1323 30 1366 c 0
 30 1440 51 1494 63 1501 c 1
 123 1493 175 1490 222 1490 c 0
 298 1490 350 1501 370 1501 c 0
 416 1501 426 1488 426 1403 c 0
 426 1387 425 1369 425 1348 c 2
EndSplineSet
Validated: 1
EndChar

StartChar: l
Encoding: 333 108 77
Width: 613
Flags: HMW
VStem: 23 506
LayerCount: 2
Fore
SplineSet
425 251 m 0
 425 221 426 186 489 186 c 0
 533 186 581 173 581 138 c 0
 581 84 573 14 548 -8 c 1
 494 -3 406 0 318 0 c 0
 225 0 131 -3 76 -8 c 1
 51 15 43 84 43 138 c 0
 43 173 91 186 135 186 c 0
 192 186 198 216 198 249 c 2
 198 1209 l 2
 198 1279 168 1304 50 1310 c 1
 32 1314 30 1323 30 1366 c 0
 30 1440 51 1494 63 1501 c 1
 123 1493 175 1490 222 1490 c 0
 298 1490 350 1501 370 1501 c 0
 416 1501 426 1488 426 1403 c 0
 426 1387 425 1376 425 251 c 0
EndSplineSet
Validated: 1
EndChar

StartChar: m
Encoding: 334 109 78
Width: 2029
Flags: HMW
HStem: -8 194 0 186<123 360.5> 918 176<1414 1452> 1047 20G<197 257> 1058 20G<357 390>
VStem: 205 227<249 251 251 768> 884 227<228 256 256 667 667 685> 1562 227<228 256 256 667 667 685>
LayerCount: 2
Fore
SplineSet
423 980 m 2x8f
 423 925 l 1
 516 1022 660 1095 794 1095 c 0xa7
 906 1095 1011 1044 1072 915 c 1
 1187 1019 1345 1094 1483 1094 c 0x67
 1650 1094 1789 984 1789 685 c 2
 1789 256 l 2
 1789 200 1816 189 1840 187 c 0
 1925 180 2005 180 2005 139 c 0
 2005 85 1996 14 1972 -8 c 1
 1884 -2 1819 0 1770 0 c 0
 1681 0 1647 -8 1597 -8 c 0
 1579 -8 1562 5 1562 69 c 2
 1562 667 l 2
 1562 851 1494 918 1410 918 c 0
 1315 918 1197 854 1106 773 c 1xa7
 1109 746 1111 716 1111 685 c 2
 1111 256 l 2x67
 1111 200 1137 189 1161 187 c 0
 1241 180 1316 180 1316 139 c 0
 1316 85 1307 14 1283 -8 c 1
 1211 -2 1154 0 1107 0 c 0
 1018 0 966 -8 918 -8 c 0
 900 -8 884 5 884 69 c 2
 884 667 l 2
 884 851 816 918 732 918 c 0
 638 918 521 851 432 768 c 1
 432 251 l 2xa7
 432 221 436 186 499 186 c 0
 543 186 591 173 591 138 c 0x67
 591 84 583 14 558 -8 c 1
 497 -3 405 0 316 0 c 0
 223 0 133 -3 86 -8 c 1
 61 15 53 84 53 138 c 0
 53 173 101 186 145 186 c 0
 192 186 205 203 205 249 c 2
 205 786 l 2
 205 856 175 881 57 887 c 1x8f
 39 891 37 900 37 943 c 0
 37 1017 58 1071 70 1078 c 1x97
 126 1070 175 1067 219 1067 c 0
 295 1067 347 1078 367 1078 c 0
 413 1078 423 1065 423 980 c 2x8f
EndSplineSet
Validated: 1
EndChar

StartChar: n
Encoding: 335 110 79
Width: 1352
Flags: HMW
HStem: 51 21G 1098 20G
VStem: -58 841 -25 1332
LayerCount: 2
Fore
SplineSet
1295 -8 m 1xc0
 1222 -2 1166 0 1120 0 c 0
 1028 0 979 -8 930 -8 c 0
 912 -8 896 4 896 68 c 2
 896 667 l 2
 896 851 828 918 744 918 c 0
 647 918 526 855 434 778 c 1
 434 251 l 2
 434 221 435 186 498 186 c 0
 542 186 590 173 590 138 c 0
 590 84 582 14 557 -8 c 1
 519 -3 425 0 328 0 c 0
 232 0 132 -3 85 -8 c 1
 60 15 52 84 52 138 c 0
 52 173 100 186 144 186 c 0
 201 186 207 216 207 249 c 2
 207 786 l 2
 207 856 177 881 59 887 c 1
 41 891 39 900 39 943 c 0
 39 1017 60 1071 72 1078 c 1
 120 1070 163 1067 201 1067 c 0
 277 1067 329 1078 349 1078 c 0
 395 1078 405 1065 405 980 c 0
 405 964 404 946 404 925 c 1
 515 1023 671 1095 809 1095 c 0
 980 1095 1123 986 1123 685 c 2
 1123 255 l 2
 1123 199 1149 188 1173 186 c 0
 1253 179 1328 179 1328 138 c 0
 1328 84 1319 14 1295 -8 c 1xc0
EndSplineSet
Validated: 1
EndChar

StartChar: o
Encoding: 336 111 80
Width: 1194
Flags: HMW
HStem: -27 171<513 676.5 513 735.5> 925 170<513 676.5>
VStem: 35 234<405 665 405 721.5> 921 235<405 665>
LayerCount: 2
Fore
SplineSet
34 535 m 0
 34 908 315 1095 596 1095 c 0
 876 1095 1156 908 1156 535 c 0
 1156 161 876 -27 596 -27 c 0
 315 -27 34 161 34 535 c 0
268 535 m 0
 268 275 431 144 594 144 c 0
 758 144 922 275 922 535 c 0
 922 795 758 925 594 925 c 0
 431 925 268 795 268 535 c 0
EndSplineSet
Validated: 1
EndChar

StartChar: p
Encoding: 337 112 81
Width: 1284
Flags: HMW
VStem: 120 484 604 178
LayerCount: 2
Fore
SplineSet
399 584 m 2x00
 399 283 l 1
 471 191 596 142 716 142 c 0
 873 142 1012 263 1012 535 c 0
 1012 795 860 925 701 925 c 0
 554 925 399 811 399 584 c 2x00
399 91 m 1
 399 -155 l 2
 399 -185 400 -220 463 -220 c 0
 507 -220 555 -233 555 -268 c 0
 555 -322 547 -392 522 -414 c 1
 473 -403 385 -399 296 -399 c 0
 199 -399 100 -404 50 -414 c 1
 25 -391 17 -322 17 -268 c 0
 17 -233 65 -220 109 -220 c 0
 166 -220 172 -190 172 -157 c 2
 172 786 l 2
 172 856 142 881 24 887 c 1
 6 891 4 900 4 943 c 0
 4 1017 25 1071 37 1078 c 1
 93 1070 142 1067 186 1067 c 0
 262 1067 314 1078 334 1078 c 0
 380 1078 390 1065 390 980 c 2
 390 908 l 1
 463 1034 606 1095 734 1095 c 4
 993 1095 1247 908 1247 535 c 0
 1247 162 991 -27 728 -27 c 4
 589 -27 483 15 399 91 c 1
EndSplineSet
Validated: 1
EndChar

StartChar: q
Encoding: 338 113 82
Width: 1310
Flags: HMW
VStem: -9 528 691 508 697 502
LayerCount: 2
Fore
SplineSet
891 465 m 2x80
 891 736 l 1
 850 839 722 925 566 925 c 0
 417 925 269 794 269 534 c 0
 269 274 427 144 586 144 c 0
 733 144 891 252 891 465 c 2x80
891 -157 m 2
 891 141 l 1
 822 29 684 -27 565 -27 c 0
 300 -27 34 161 34 534 c 0
 34 907 298 1093 562 1095 c 1
 568 1095 l 1
 710 1094 844 1042 964 928 c 1
 1074 1023 l 1
 1109 1057 1146 1071 1178 1071 c 0
 1231 1071 1270 1032 1270 980 c 0
 1270 946 1253 907 1214 868 c 1
 1118 785 l 1
 1118 -155 l 2
 1118 -185 1119 -220 1182 -220 c 0
 1226 -220 1274 -233 1274 -268 c 0
 1274 -322 1266 -392 1241 -414 c 1
 1192 -403 1104 -399 1015 -399 c 0
 918 -399 819 -404 769 -414 c 1
 744 -391 736 -322 736 -268 c 0
 736 -233 784 -220 828 -220 c 0
 885 -220 891 -190 891 -157 c 2
EndSplineSet
Validated: 1
EndChar

StartChar: r
Encoding: 339 114 83
Width: 967
Flags: HMW
HStem: 49 21G
VStem: 183 487
LayerCount: 2
Back
SplineSet
432 980 m 6
 432 915 l 5
 491 1009 625 1095 736 1095 c 4
 834 1095 956 1044 956 905 c 4
 956 788.542553191 897.421052632 727 767 727 c 4
 739.557377049 727 740.588903719 752.229501098 736 792 c 6
 724 896 l 5
 705 905 685 909 665 909 c 4
 585 909 498 839 462 768 c 5
 462 262 l 6
 462 232 463 197 526 197 c 4
 570 197 618 184 618 149 c 4
 618 95 601 14 555 -8 c 5
 511 -3 431 0 350 0 c 4
 270 0 188 -3 143 -8 c 5
 95 14 80 95 80 149 c 4
 80 184 128 197 172 197 c 4
 229 197 235 227 235 260 c 6
 235 786 l 6
 235 856 205 881 87 887 c 5
 69 891 67 900 67 943 c 4
 67 1017 88 1071 100 1078 c 5
 152 1070 198 1067 239 1067 c 4
 310 1067 358 1078 377 1078 c 4
 423 1078 432 1065 432 980 c 6
EndSplineSet
Fore
SplineSet
403 980 m 6
 403 915 l 5
 462 1009 596 1095 707 1095 c 4
 805 1095 927 1044 927 905 c 4
 927 789 868 727 738 727 c 4
 711 727 712 752 707 792 c 6
 695 896 l 5
 676 905 656 909 636 909 c 4
 556 909 469 839 433 768 c 5
 433 262 l 6
 433 232 434 197 497 197 c 4
 541 197 589 184 589 149 c 4
 589 95 572 14 526 -8 c 5
 482 -3 402 0 321 0 c 4
 241 0 159 -3 114 -8 c 5
 66 14 51 95 51 149 c 4
 51 184 99 197 143 197 c 4
 200 197 206 227 206 260 c 6
 206 786 l 6
 206 856 176 881 58 887 c 5
 40 891 38 900 38 943 c 4
 38 1017 59 1071 71 1078 c 5
 123 1070 169 1067 210 1067 c 4
 281 1067 329 1078 348 1078 c 4
 394 1078 403 1065 403 980 c 6
EndSplineSet
Validated: 1
EndChar

StartChar: s
Encoding: 340 115 84
Width: 978
Flags: HMW
HStem: -27 160<454 556.5 454 607> 945 150<407.5 515.5>
VStem: 23 221<175 237.5> 32 247<707 846.5 707 911.5> 691 221<819.5 897 897 897> 703 234<226 396.5>
LayerCount: 2
Back
SplineSet
973 265 m 4xe4
 973 57 776 -27 510 -27 c 4
 238 -27 59 48 59 221 c 4
 59 254 62 364 234 364 c 4
 272 364 280 352 280 311 c 6
 280 175 l 5xe4
 332 147 444 133 536 133 c 4
 649 133 739 182 739 270 c 4xd4
 739 523 68 432 68 818 c 4
 68 1005 292 1095 500 1095 c 4
 815 1095 948 1001 948 835 c 4
 948 804 931 704 782 704 c 4
 727 704 727 722 727 757 c 6
 727 897 l 5xd8
 709 915 587 945 516 945 c 4
 371 945 315 882 315 811 c 4xd4
 315 603 973 674 973 265 c 4xe4
EndSplineSet
Fore
SplineSet
946 265 m 0xe4
 946 57 749 -27 483 -27 c 0
 211 -27 32 48 32 221 c 0
 32 254 35 364 207 364 c 0
 245 364 253 352 253 311 c 2
 253 175 l 1xe4
 305 147 417 133 509 133 c 0
 622 133 712 182 712 270 c 0xd4
 712 523 41 432 41 818 c 0
 41 1005 265 1095 473 1095 c 0
 788 1095 921 1001 921 835 c 0
 921 804 904 704 753 704 c 4
 714 704 718 726 714 757 c 6
 700 897 l 1xd8
 682 915 560 945 489 945 c 0
 344 945 288 882 288 811 c 0xd4
 288 603 946 674 946 265 c 0xe4
EndSplineSet
Validated: 1
EndChar

StartChar: t
Encoding: 341 116 85
Width: 818
Flags: HMW
VStem: 78 496
LayerCount: 2
Fore
SplineSet
740 200 m 1
 761 160 770 123 770 93 c 0
 770 15 618 -8 528 -8 c 0
 391 -8 239 63 239 332 c 2
 239 912 l 1
 196 912 l 2
 147 912 78 912 67 911 c 1
 43 920 34 944 34 988 c 0
 34 1048 55 1067 84 1067 c 2
 239 1067 l 1
 261 1265 239 1458 424 1458 c 0
 437 1458 451 1458 466 1449 c 1
 466 1067 l 1
 599 1067 l 1
 599 1067 718 1067 724 1072 c 1
 753 1072 774 1046 774 986 c 0
 774 943 765 918 741 909 c 1
 730 910 661 912 612 912 c 2
 466 912 l 1
 466 338 l 2
 466 229 504 172 574 172 c 0
 622 172 675 181 740 200 c 1
EndSplineSet
Validated: 1
EndChar

StartChar: u
Encoding: 342 117 86
Width: 1315
Flags: HMW
HStem: -27 179<591 650.5> -8 21G<981.5 1024> 0 182<1113.5 1278.5> 1060 20G<213 283.5 919 989.5> 1076 20G
VStem: 216 227<384 802 802 842> 922 227<301 802 802 842>
LayerCount: 2
Fore
SplineSet
1116 1006 m 6x8e
 1116 273 l 6
 1116 203 1116 182 1214 182 c 4x2e
 1277 182 1284 169 1284 126 c 4
 1284 52 1262 -1 1251 -8 c 5x4e
 1196 -2 1152 0 1116 0 c 4
 1045 0 1006 -8 976 -8 c 4
 921 -8 919 9 919 144 c 5
 825 35 685 -27 550 -27 c 4
 359 -27 183 96 183 384 c 6
 183 785 l 6
 183 865 157 882 133 884 c 4x8e
 63 891 -2 891 -2 932 c 4
 -2 986 7 1056 31 1078 c 5x96
 99 1070 156 1067 204 1067 c 4
 297 1067 354 1078 376 1078 c 4
 394 1078 410 1067 410 1006 c 6
 410 372 l 6
 410 218 503 152 613 152 c 4
 712 152 822 207 889 301 c 5
 889 785 l 6
 889 865 863 882 839 884 c 4
 769 891 704 891 704 932 c 4x8e
 704 986 712 1056 737 1078 c 5
 805 1070 862 1067 910 1067 c 4x96
 1021 1067 1089 1078 1115 1078 c 0
 1116 1078 1116 1067 1116 1006 c 6x8e
EndSplineSet
Validated: 1
EndChar

StartChar: v
Encoding: 343 118 87
Width: 1331
Flags: HMW
HStem: 0 21G<615.5 731.5> 890 179<122 351 246 514> 1075 20G
VStem: 36 1252<989.5 1020.5>
LayerCount: 2
Fore
SplineSet
447 825 m 2
 674 275 l 1
 877 823 l 2
 880 832 882 841 882 850 c 0
 882 870 871 888 836 888 c 0xd0
 809 888 783 899 783 929 c 2xb0
 783 936 l 1
 788 985 798 1058 817 1078 c 1xd0
 851 1074 928 1067 1028 1067 c 0
 1128 1067 1214 1074 1249 1078 c 1xb0
 1278 1064 1288 1024 1288 983 c 0
 1288 967 1285 950 1281 936 c 1
 1274 901 1224 888 1180 888 c 0
 1123 888 1117 856 1104 825 c 2
 864 242 l 2
 808 106 786 0 677 0 c 0
 554 0 555 76 481 242 c 2
 220 827 l 2
 206 858 201 890 144 890 c 0xd0
 100 890 50 903 43 938 c 0
 39 957 36 979 36 1000 c 0xb0
 36 1034 46 1067 75 1078 c 1
 110 1074 196 1067 296 1067 c 0xd0
 406 1067 489 1074 527 1078 c 1xb0
 546 1058 556 986 561 938 c 1
 561 931 l 2
 561 900 530 890 498 890 c 0
 454 890 441 872 441 852 c 0
 441 843 443 834 447 825 c 2
EndSplineSet
Validated: 1
EndChar

StartChar: w
Encoding: 344 119 88
Width: 1831
Flags: HMW
HStem: -27 21G
LayerCount: 2
Fore
SplineSet
1030 242 m 1
 890 597 l 1
 784 242 l 1
 735 106 714 0 617 0 c 0
 494 0 488 73 421 242 c 2
 187 835 l 2
 176 862 167 887 114 887 c 0
 83 887 46 900 43 935 c 1
 38 954 36 976 36 997 c 0
 36 1032 45 1067 71 1079 c 1
 101 1074 178 1067 266 1067 c 0
 371 1067 451 1074 487 1079 c 1
 506 1059 516 985 521 935 c 1
 521 928 l 2
 521 897 490 887 458 887 c 0
 414 887 401 870 401 852 c 0
 401 843 403 834 407 825 c 2
 614 255 l 1
 787 825 l 2
 790 834 792 843 792 852 c 0
 792 870 777 887 726 887 c 0
 699 887 673 898 673 928 c 2
 673 935 l 2
 673 939 674 943 674 947 c 0
 677 995 681 1061 687 1079 c 1
 725 1075 808 1067 918 1067 c 0
 1006 1067 1084 1075 1114 1079 c 1
 1140 1067 1148 1032 1148 997 c 0
 1148 976 1145 954 1141 935 c 1
 1137 900 1102 887 1070 887 c 0
 1021 887 1010 864 999 840 c 1
 1076 647 1148 450 1223 255 c 1
 1396 825 l 2
 1399 834 1401 843 1401 852 c 0
 1401 870 1390 887 1355 887 c 0
 1328 887 1302 898 1302 928 c 2
 1302 935 l 1
 1308 985 1318 1059 1336 1079 c 1
 1366 1075 1437 1067 1527 1067 c 0
 1632 1067 1722 1075 1759 1079 c 1
 1781 1067 1787 1034 1787 1000 c 0
 1787 978 1784 955 1780 935 c 0
 1773 900 1723 887 1679 887 c 0
 1622 887 1616 857 1603 827 c 1
 1393 242 l 2
 1344 106 1323 0 1226 0 c 0
 1103 0 1102 75 1030 242 c 1
EndSplineSet
Validated: 1
EndChar

StartChar: x
Encoding: 345 120 89
Width: 1213
Flags: HMW
HStem: -26 21G 0 176 0 179<98.5 328.5> 890 179<124 361.5> 893 201 1075 20G
VStem: 42 1134<67 123>
LayerCount: 2
Fore
SplineSet
503 825 m 2x86
 623 673 l 1x86
 753 825 l 2
 762 836 769 851 769 865 c 0x92
 769 909 688 873 688 931 c 0x86
 688 982 706 1075 723 1095 c 1
 755 1085 814 1069 909 1069 c 0
 999 1069 1084 1085 1115 1095 c 1
 1145 1080 1154 1041 1154 1000 c 0
 1154 918 1127 890 1061 890 c 0
 991 890 967 854 945 827 c 2
 715 557 l 1x32
 964 244 l 2x86
 985 219 1012 179 1091 179 c 0
 1148 179 1176 156 1176 90 c 0x26
 1176 44 1162 -5 1140 -26 c 1x86
 1107 -17 1028 0 937 0 c 0
 828 0 739 -17 706 -26 c 1
 684 -6 662 87 662 138 c 0
 662 190 756 165 756 197 c 1
 757 211 746 228 735 242 c 2
 596 418 l 1
 446 242 l 2x46
 435 228 424 211 425 197 c 1x86
 425 165 519 190 519 138 c 0
 519 87 497 -6 475 -26 c 1x26
 444 -17 378 0 279 0 c 0x86
 188 0 111 -17 78 -26 c 1
 56 -5 42 44 42 90 c 0
 42 156 70 179 127 179 c 0
 206 179 233 219 254 244 c 2
 504 535 l 1
 273 827 l 2x32
 251 854 227 890 157 890 c 0
 91 890 64 918 64 1000 c 0x86
 64 1041 73 1080 103 1095 c 1
 134 1085 219 1069 309 1069 c 0x92
 414 1069 497 1085 533 1095 c 1
 550 1075 568 982 568 931 c 0
 568 873 487 909 487 865 c 0x8a
 487 851 494 836 503 825 c 2x86
EndSplineSet
Validated: 1
EndChar

StartChar: y
Encoding: 346 121 90
Width: 1380
Flags: HMW
HStem: 1089 20G
LayerCount: 2
Fore
SplineSet
446 825 m 2
 703 253 l 1
 926 825 l 2
 929 834 931 843 931 852 c 0
 931 910 832 868 832 931 c 2
 832 938 l 1
 838 992 848 1073 866 1095 c 1
 900 1086 977 1069 1077 1069 c 0
 1177 1069 1263 1086 1298 1095 c 1
 1328 1081 1337 1041 1337 1000 c 0
 1337 919 1310 890 1229 890 c 0
 1171 890 1167 858 1153 827 c 2
 753 -95 l 1
 674 -269 571 -347 413 -347 c 0
 284 -347 183 -287 183 -228 c 0
 183 -148 195 -128 229 -128 c 0
 263 -128 320 -157 409 -157 c 0
 507 -157 493 -133 621 123 c 1
 575 123 552 127 539 157 c 1
 219 827 l 2
 205 858 200 890 143 890 c 0
 62 890 35 919 35 1000 c 0
 35 1041 44 1081 74 1095 c 1
 109 1085 195 1069 295 1069 c 0
 405 1069 488 1085 526 1095 c 1
 544 1073 554 992 560 938 c 1
 560 931 l 2
 560 867 440 910 440 852 c 0
 440 843 441 834 446 825 c 2
EndSplineSet
Validated: 1
EndChar

StartChar: z
Encoding: 347 122 91
Width: 1009
Flags: HMW
HStem: 0 21G<401 522> 928 155
LayerCount: 2
Fore
SplineSet
133 -12 m 0
 131 -13 126 -13 121 -13 c 0
 62 -13 43 51 43 126 c 0
 43 173 63 208 109 264 c 0
 283 475 526 772 651 928 c 1
 297 928 l 2
 253 928 210 734 206 734 c 0
 61 734 40 750 40 757 c 0
 40 875 78 1016 100 1083 c 1
 257 1077 381 1068 534 1068 c 0
 634 1068 746 1072 889 1083 c 1
 942 1077 952 1043 952 976 c 0
 952 927 900 863 813 754 c 2
 450 301 l 2
 374 206 319 143 319 143 c 1
 672 143 l 2
 736 143 766 275 814 390 c 1
 823 390 832 391 843 391 c 0
 903 391 978 383 978 340 c 0
 978 252 915 36 895 -15 c 1
 713 -5 575 0 469 0 c 0
 333 0 229 -5 133 -12 c 0
EndSplineSet
Validated: 1
EndChar

StartChar: braceleft
Encoding: 348 123 92
Width: 756
Flags: HMW
HStem: 47 342 1487 20G
VStem: -150 512 107 568
LayerCount: 2
Fore
SplineSet
92 583 m 0xc0
 55 583 35 634 35 685 c 0
 35 735 55 785 92 785 c 0
 214 785 214 844 214 979 c 0
 214 1422 371 1586 499 1586 c 0
 624 1586 728 1540 728 1476 c 0
 728 1415 689 1402 642 1402 c 0
 613 1402 580 1416 559 1416 c 0
 473 1416 447 1365 447 1029 c 0
 447 877 423 720 288 684 c 1
 423 647 447 490 447 339 c 0
 447 3 473 -48 559 -48 c 0
 579 -48 612 -35 642 -35 c 0
 689 -35 728 -47 728 -108 c 0
 728 -172 625 -218 499 -218 c 0
 371 -218 214 -54 214 389 c 0
 214 524 214 583 92 583 c 0xc0
EndSplineSet
Validated: 1
EndChar

StartChar: bar
Encoding: 349 124 93
Width: 420
Flags: HMW
HStem: 0 21 857 597 857 630
VStem: 697 630
LayerCount: 2
Fore
SplineSet
94 -85 m 2x90
 94 1568 l 2
 94 1623 134 1636 229 1636 c 0
 295 1636 325 1631 325 1585 c 2
 325 -63 l 2
 325 -156 271 -160 209 -160 c 0
 156 -160 94 -158 94 -85 c 2x90
EndSplineSet
Validated: 1
EndChar

StartChar: braceright
Encoding: 350 125 94
Width: 755
Flags: HMW
HStem: 47 342 1487 20G
VStem: 81 568 394 512
LayerCount: 2
Fore
SplineSet
664 583 m 0xc0
 542 583 542 524 542 389 c 0
 542 -54 385 -218 257 -218 c 0
 131 -218 28 -172 28 -108 c 0
 28 -47 67 -35 114 -35 c 0
 144 -35 177 -48 197 -48 c 0
 283 -48 309 3 309 339 c 0
 309 490 333 647 468 684 c 1
 333 720 309 877 309 1029 c 0
 309 1365 283 1416 197 1416 c 0
 176 1416 143 1402 114 1402 c 0
 67 1402 28 1415 28 1476 c 0
 28 1540 132 1586 257 1586 c 0
 385 1586 542 1422 542 979 c 0
 542 844 542 785 664 785 c 0
 701 785 721 735 721 685 c 0
 721 634 701 583 664 583 c 0xc0
EndSplineSet
Validated: 1
EndChar

StartChar: asciitilde
Encoding: 351 126 95
Width: 964
Flags: HMW
HStem: 724 163<679.5 721.5 667 810> 815 168<243.5 305>
VStem: 43 878<751 945> 757 163
LayerCount: 2
Fore
SplineSet
921 945 m 1x90
 919 920 l 2
 910 806 858 724 762 724 c 0x90
 597 724 354 815 256 815 c 0
 223 815 214 788 208 739 c 1
 204 733 185 731 161 731 c 0
 117 731 43 744 43 758 c 1
 46 786 l 2
 57 890 104 983 221 983 c 0x60
 400 983 624 887 710 887 c 0
 740 887 754 913 758 960 c 1
 758 960 779 963 803 963 c 0
 844 963 893 952 921 945 c 1x90
EndSplineSet
Validated: 1
EndChar

StartChar: exclamdown
Encoding: 352 161 96
Width: 440
Flags: HMW
HStem: 1008 441 1051 20G<166.5 258.5>
VStem: -17 543
LayerCount: 2
Fore
SplineSet
213 1071 m 0x60
 304 1071 276 1050 292 835 c 0
 311 574 360 90 360 49 c 0
 360 -8 331 -29 270 -29 c 2
 154 -29 l 2
 93 -29 64 -8 64 49 c 0
 64 90 110 574 129 835 c 0
 145 1050 120 1071 213 1071 c 0x60
44 1350 m 0
 44 1433 99 1513 225 1513 c 0
 350 1513 400 1430 400 1350 c 0
 400 1269 350 1187 225 1187 c 0
 99 1187 44 1266 44 1350 c 0
EndSplineSet
Validated: 1
EndChar

StartChar: cent
Encoding: 353 162 97
Width: 1063
Flags: HMW
HStem: 47 342
VStem: -7 512
LayerCount: 2
Fore
SplineSet
1011 798 m 0
 1011 743 970 667 851 667 c 0
 797 667 790 673 790 727 c 2
 790 860 l 1
 790 860 732 901 623 901 c 0
 412 901 284 724 284 534 c 0
 284 329 406 203 638 203 c 0
 742 203 885 252 967 324 c 1
 1015 268 1024 217 1024 196 c 0
 1024 121 919 60 786 31 c 1
 786 -261 l 1
 779 -293 795 -304 699 -304 c 0
 675 -304 657 -298 657 -262 c 0
 657 -194 656 -97 655 14 c 1
 644 13 632 13 621 13 c 0
 603 13 584 14 566 15 c 1
 566 -261 l 1
 559 -293 575 -304 479 -304 c 0
 455 -304 437 -298 437 -262 c 0
 437 -189 436 -84 435 37 c 1
 215 96 50 265 50 545 c 0
 50 813 230 983 442 1042 c 1
 441 1171 440 1360 437 1373 c 1
 437 1392 461 1406 516 1406 c 0
 550 1406 569 1400 574 1385 c 1
 573 1372 566 1296 566 1240 c 2
 566 1063 l 1
 581 1064 596 1065 611 1065 c 0
 629 1065 646 1065 662 1064 c 1
 661 1192 659 1361 657 1373 c 1
 657 1392 681 1406 736 1406 c 0
 770 1406 789 1400 794 1385 c 1
 793 1372 786 1296 786 1240 c 2
 786 1046 l 1
 949 1006 1011 907 1011 798 c 0
EndSplineSet
Validated: 1
EndChar

StartChar: sterling
Encoding: 354 163 98
Width: 1177
Flags: HMW
HStem: 17 20G 42 21G 1064 21G 1066 345 1487 20G
VStem: -83 20 64 568
LayerCount: 2
Fore
SplineSet
120 -11 m 1xce
 80 12 67 95 67 152 c 0
 67 187 125 200 179 200 c 0
 236 200 242 230 242 263 c 2
 242 671 l 1
 242 671 105 667 97 663 c 1
 65 663 42 692 42 758 c 0
 42 806 52 833 78 843 c 1
 91 842 167 841 221 841 c 2
 242 841 l 1
 242 934 l 2
 242 1396 468 1512 669 1512 c 0
 768 1512 857 1467 923 1367 c 1
 918 1393 913 1441 913 1452 c 0
 913 1490 939 1498 1011 1498 c 0
 1035 1498 1068 1490 1068 1490 c 1
 1068 1490 1110 1252 1110 1094 c 0
 1110 1066 1010 1051 954 1051 c 1
 891 1244 783 1351 692 1351 c 0
 559 1351 473 1231 473 969 c 0
 473 930 472 889 472 842 c 1
 562 842 l 2
 616 842 692 844 705 845 c 1
 731 835 741 808 741 760 c 0
 741 694 718 665 686 665 c 1
 675 669 508 671 473 671 c 1
 473 200 l 2
 473 184 480 164 505 164 c 0
 947 164 865 268 983 550 c 1
 992 555 1006 557 1022 557 c 0
 1068 557 1135 517 1135 466 c 1
 1123 371 1051 138 1021 31 c 0
 1014 7 1005 -11 986 -11 c 0
 971 -11 777 0 464 0 c 0
 301 0 165 -3 120 -11 c 1xce
EndSplineSet
Validated: 1
EndChar

StartChar: yen
Encoding: 355 165 99
Width: 1524
Flags: HMW
HStem: -11 21G 0 200<554 810> 359 139<664 1092> 587 139<664 1116> 1297 200<141.5 374> 1300 196 1485 20G
VStem: 644 231<263 265 250 592>
LayerCount: 2
Fore
SplineSet
644 369 m 1x71
 572 368 330 366 321 363 c 1
 295 363 276 383 276 430 c 0
 276 463 284 481 305 489 c 1
 316 488 377 486 421 486 c 0
 441 486 534 487 644 487 c 1
 644 587 l 1
 569 587 305 584 296 581 c 1
 271 581 252 598 252 638 c 0
 252 677 260 698 281 707 c 1
 292 706 353 704 397 704 c 0
 415 704 487 705 578 705 c 1
 267 1234 l 2
 247 1267 221 1297 166 1297 c 0x79
 117 1297 58 1310 38 1345 c 1
 38 1387 34 1442 34 1481 c 0
 34 1492 34 1500 43 1505 c 1x33
 122 1500 220 1497 325 1497 c 0x39
 423 1497 517 1500 580 1505 c 1
 588 1481 597 1395 605 1337 c 0
 605 1335 606 1333 606 1331 c 0
 606 1285 475 1313 475 1274 c 0
 475 1262 484 1248 493 1232 c 0
 559 1114 737 807 737 807 c 2
 748 789 762 763 770 758 c 1
 777 760 792 788 802 807 c 2
 802 807 970 1103 1047 1232 c 0
 1056 1247 1065 1262 1065 1274 c 0
 1065 1313 934 1285 934 1331 c 0
 934 1333 935 1335 935 1337 c 0
 943 1395 952 1481 960 1505 c 1x33
 1019 1500 1105 1497 1195 1497 c 0x39
 1300 1497 1398 1500 1477 1505 c 1x33
 1486 1500 1486 1492 1486 1481 c 0
 1486 1474 1485 1467 1483 1459 c 1
 1483 1444 l 2
 1483 1423 1484 1401 1484 1379 c 0
 1484 1367 1483 1356 1482 1345 c 1
 1462 1310 1403 1297 1354 1297 c 0
 1298 1297 1272 1267 1253 1234 c 2
 943 706 l 1
 1030 706 1092 706 1094 706 c 0
 1138 706 1200 707 1210 708 c 1
 1231 700 1239 678 1239 639 c 0
 1239 600 1221 583 1195 583 c 1
 1185 587 1011 587 1011 587 c 1
 876 587 l 1
 876 488 l 1
 984 488 1068 488 1070 488 c 0
 1114 488 1175 489 1186 490 c 1
 1207 483 1215 464 1215 431 c 0
 1215 385 1196 365 1170 365 c 1
 1162 369 987 369 987 369 c 1
 875 369 l 1
 875 265 l 2
 875 235 876 200 939 200 c 0x79
 993 200 1051 187 1051 152 c 0
 1051 95 1043 12 1018 -11 c 1xb1
 950 -6 859 0 761 0 c 0x71
 668 0 579 -6 512 -11 c 1xb1
 480 12 469 95 469 152 c 0
 469 187 527 200 581 200 c 0
 638 200 644 230 644 263 c 2
 644 369 l 1x71
EndSplineSet
Validated: 1
EndChar

StartChar: section
Encoding: 356 167 100
Width: 1036
Flags: HMW
HStem: -155 161<510 562.5 510 700.5> 1236 150<441 565.5>
VStem: 58 248<664 724 664 745.5> 80 247<1074.5 1122 1048 1186.5> 729 234<82.5 181.5> 751 234<531 605>
LayerCount: 2
Fore
SplineSet
699 460 m 1xe4
 715 471 751 499 751 561 c 0
 751 649 663 695 615 714 c 0
 440 782 408 788 386 796 c 1
 375 796 306 760 306 688 c 0
 306 640 324 592 468 543 c 0
 640 484 679 469 699 460 c 1xe4
882 345 m 1
 933 287 963 238 963 137 c 0
 963 7 895 -155 506 -155 c 0
 273 -155 49 -67 49 85 c 0
 49 109 56 175 179 175 c 0
 209 175 217 176 226 176 c 0
 319 176 337 163 351 53 c 1
 360 19 486 6 534 6 c 0
 591 6 729 23 729 142 c 0
 729 221 688 276 386 369 c 0
 162 438 58 538 58 690 c 0xe8
 58 801 133 865 189 893 c 1
 99 965 80 1041 80 1108 c 0
 80 1265 240 1386 536 1386 c 0
 862 1386 968 1279 968 1173 c 0
 968 1146 967 1093 858 1082 c 0
 836 1080 822 1080 807 1080 c 0
 699 1080 709 1111 675 1206 c 0
 668 1226 591 1236 540 1236 c 0
 342 1236 327 1142 327 1102 c 0xd0
 327 994 490 967 666 901 c 0
 870 824 985 724 985 556 c 0
 985 456 945 392 882 345 c 1
EndSplineSet
Validated: 1
EndChar

StartChar: currency
Encoding: 357 164 101
Width: 1026
Flags: HMW
HStem: 685 0<512 512> 1448 68
LayerCount: 2
Fore
SplineSet
512 685 m 0
 434 685 368 703 316 735 c 1
 243 660 l 1
 243 660 165 578 163 572 c 1
 156 565 147 561 137 561 c 0
 108 561 44 614 44 651 c 0
 44 663 80 694 132 747 c 2
 213 829 l 1
 171 889 151 962 151 1034 c 0
 151 1108 172 1183 216 1244 c 1
 193 1268 l 1
 193 1268 67 1392 57 1396 c 1
 49 1403 46 1412 46 1422 c 0
 46 1451 100 1515 135 1515 c 0
 150 1515 177 1482 232 1427 c 2
 322 1337 l 1
 372 1366 436 1384 512 1384 c 0
 588 1384 653 1366 704 1338 c 1
 794 1427 l 2
 848 1480 875 1515 890 1515 c 0
 925 1515 979 1452 979 1422 c 0
 979 1412 977 1403 968 1396 c 1
 959 1392 833 1268 833 1268 c 1
 811 1246 l 1
 858 1184 881 1109 881 1034 c 0
 881 961 859 887 814 826 c 1
 894 747 l 2
 946 695 982 662 982 651 c 0
 982 614 917 561 889 561 c 0
 879 561 870 565 863 572 c 1
 861 578 783 660 783 660 c 1
 710 734 l 1
 657 703 591 685 512 685 c 0
730 1034 m 0
 730 1189 619 1266 512 1266 c 0
 403 1266 298 1188 298 1034 c 0
 298 879 404 804 512 804 c 0
 622 804 730 882 730 1034 c 0
EndSplineSet
Validated: 1
EndChar

StartChar: quotesingle
Encoding: 358 39 102
Width: 479
Flags: HMW
HStem: 1545 20G 1555 20G
VStem: -21 495 -11 481
LayerCount: 2
Fore
SplineSet
122 986 m 0x00
 122 1031 221 1139 221 1155 c 0
 221 1193 44 1181 44 1340 c 0
 44 1442 121 1512 232 1512 c 0
 339 1512 423 1432 423 1331 c 0
 423 1155 300 955 170 955 c 0
 140 955 122 967 122 986 c 0x00
EndSplineSet
Validated: 1
EndChar

StartChar: quotedblleft
Encoding: 359 8220 103
Width: 1085
Flags: HMW
HStem: 1545 20G
VStem: 51 477 564 479
LayerCount: 2
Fore
SplineSet
421 1481 m 0
 421 1436 322 1328 322 1312 c 0
 322 1274 499 1286 499 1127 c 0
 499 1025 422 955 311 955 c 0
 204 955 120 1035 120 1136 c 0
 120 1312 243 1512 373 1512 c 0
 403 1512 421 1500 421 1481 c 0
882 1481 m 0
 882 1436 783 1328 783 1312 c 0
 783 1274 960 1286 960 1127 c 0
 960 1025 883 955 772 955 c 0
 665 955 581 1035 581 1136 c 0
 581 1312 704 1512 834 1512 c 0
 864 1512 882 1500 882 1481 c 0
EndSplineSet
Validated: 1
EndChar

StartChar: guillemotleft
Encoding: 360 171 104
Width: 1297
Flags: HMW
HStem: -1 21G<590 610.5 1122 1142.5> 1061 8
VStem: 37 1222<129 578.5>
LayerCount: 2
Fore
SplineSet
569 534 m 0
 569 623 1107 1061 1107 1061 c 2
 1111 1064 1116 1069 1128 1069 c 0
 1155 1069 1249 963 1249 915 c 0
 1249 904 1245 895 1236 886 c 2
 838 534 l 1
 1246 182 l 2
 1255 173 1259 164 1259 153 c 0
 1259 105 1157 -1 1128 -1 c 0
 1116 -1 1111 4 1107 7 c 2
 1107 7 569 445 569 534 c 0
37 534 m 0
 37 623 575 1061 575 1061 c 2
 579 1064 584 1069 596 1069 c 0
 623 1069 717 963 717 915 c 0
 717 904 713 895 704 886 c 2
 306 534 l 1
 714 182 l 2
 723 173 727 164 727 153 c 0
 727 105 625 -1 596 -1 c 0
 584 -1 579 4 575 7 c 2
 575 7 37 445 37 534 c 0
EndSplineSet
Validated: 1
EndChar

StartChar: guilsinglleft
Encoding: 361 8249 105
Width: 1024
Flags: HMW
HStem: -1 21G<763 783.5> 1049 20G<763 782.5> 1061 8
VStem: 210 690<129 578.5>
LayerCount: 2
Fore
SplineSet
210 534 m 0xb0
 210 623 748 1061 748 1061 c 2
 752 1064 757 1069 769 1069 c 0
 796 1069 890 963 890 915 c 0
 890 904 886 895 877 886 c 2
 479 534 l 1
 887 182 l 2
 896 173 900 164 900 153 c 0
 900 105 798 -1 769 -1 c 0
 757 -1 752 4 748 7 c 2
 748 7 210 445 210 534 c 0xb0
EndSplineSet
Validated: 1
EndChar

StartChar: guilsinglright
Encoding: 362 8250 106
Width: 1024
Flags: HMW
HStem: -1 21G<316.5 337> 1049 20G<317.5 337> 1061 8
VStem: 200 690<129 578.5>
LayerCount: 2
Fore
SplineSet
890 534 m 0xd0
 890 445 352 7 352 7 c 2
 348 4 343 -1 331 -1 c 0
 302 -1 200 105 200 153 c 0
 200 164 204 173 213 182 c 2
 621 534 l 1
 223 886 l 2
 214 895 210 904 210 915 c 0
 210 963 304 1069 331 1069 c 0
 343 1069 348 1064 352 1061 c 2xb0
 352 1061 890 623 890 534 c 0xd0
EndSplineSet
Validated: 1
EndChar

StartChar: fi
Encoding: 363 64257 107
Width: 1519
Flags: HMW
HStem: 227 21G 907 5
VStem: 920 636
LayerCount: 2
Fore
SplineSet
1069 916 m 1
 1097 909 1104 894 1104 815 c 1
 1104 249 l 2
 1104 216 1098 186 1041 186 c 0
 997 186 949 173 949 138 c 0
 949 84 957 15 982 -8 c 1
 1055 -3 1147 0 1234 0 c 0
 1318 0 1398 -3 1454 -8 c 1
 1479 14 1487 84 1487 138 c 0
 1487 173 1439 186 1395 186 c 0
 1332 186 1331 221 1331 251 c 2
 1331 980 l 2
 1331 1065 1321 1078 1275 1078 c 0
 1254 1078 1199 1067 1118 1067 c 1
 1070 1067 767 1067 552 1067 c 2
 456 1067 l 1
 449 1109 444 1166 444 1219 c 0
 444 1314 475 1401 570 1401 c 0
 599 1401 632 1393 668 1375 c 1
 668 1308 667 1252 667 1206 c 0
 667 1183 677 1172 731 1172 c 0
 811 1172 888 1211 888 1304 c 0
 888 1451 744 1546 588 1546 c 0
 416 1546 229 1462 229 1121 c 2
 229 1066 l 1
 196 1066 l 2
 147 1066 78 1067 67 1068 c 1
 43 1059 34 1035 34 991 c 0
 34 931 55 905 84 905 c 1
 90 910 215 912 215 912 c 1
 229 912 l 1
 229 249 l 2
 229 216 223 186 166 186 c 0
 112 186 54 173 54 138 c 0
 54 84 62 15 87 -8 c 1
 142 -3 246 0 353 0 c 0
 446 0 541 -3 609 -8 c 1
 633 13 642 84 642 138 c 0
 642 173 579 186 520 186 c 0
 457 186 456 221 456 251 c 2
 456 912 l 1
 539 912 l 1
 539 912 871 914 1069 916 c 1
1166 1245 m 0
 1115 1245 996 1262 996 1366 c 0
 996 1447 1052 1489 1162 1489 c 0
 1294 1489 1317 1415 1317 1365 c 0
 1317 1267 1219 1245 1166 1245 c 0
EndSplineSet
Validated: 9
Ligature2: "'liga' Standard Ligatures in Latin lookup 0-1" f i
EndChar

StartChar: fl
Encoding: 364 64258 108
Width: 1381
Flags: HMW
VStem: 929 506
LayerCount: 2
Fore
SplineSet
966 1364 m 6
 966 249 l 6
 966 216 960 186 903 186 c 4
 859 186 811 173 811 138 c 4
 811 84 819 15 844 -8 c 5
 899 -3 993 0 1086 0 c 4
 1174 0 1262 -3 1316 -8 c 5
 1341 14 1349 84 1349 138 c 4
 1349 173 1301 186 1257 186 c 4
 1194 186 1193 221 1193 251 c 4
 1193 1428 1194 1440 1194 1457 c 4
 1194 1537 947.515625 1546 680 1546 c 0
 419 1546 229 1462 229 1121 c 2
 229 1066 l 1
 196 1066 l 2
 147 1066 78 1067 67 1068 c 1
 43 1059 34 1035 34 991 c 0
 34 931 55 905 84 905 c 1
 90 910 215 912 215 912 c 1
 229 912 l 1
 229 249 l 2
 229 216 223 186 166 186 c 0
 112 186 54 173 54 138 c 0
 54 84 62 15 87 -8 c 1
 142 -3 246 0 353 0 c 0
 446 0 541 -3 609 -8 c 1
 633 13 642 84 642 138 c 0
 642 173 579 186 520 186 c 0
 457 186 456 221 456 251 c 2
 456 912 l 1
 539 912 l 1
 539 912 658 912 664 907 c 1
 693 907 714 933 714 993 c 0
 714 1036 705 1061 681 1070 c 1
 670 1069 601 1067 552 1067 c 2
 456 1067 l 1
 449 1109 444 1166 444 1219 c 0
 444 1314 498 1401 664 1401 c 0
 774.505859375 1401 966 1405 966 1364 c 6
EndSplineSet
Validated: 524329
LCarets2: 1 0 
Ligature2: "'liga' Standard Ligatures in Latin lookup 0-1" f l
EndChar

StartChar: endash
Encoding: 365 8211 109
Width: 1528
Flags: HMW
HStem: 559 171<493 1124>
VStem: 293 983<615 670>
LayerCount: 2
Fore
SplineSet
472 729 m 1
 524 730 1090 730 1097 730 c 0
 1151 730 1227 732 1240 733 c 1
 1266 723 1276 696 1276 648 c 0
 1276 582 1253 553 1221 553 c 1
 1209 558 994 559 994 559 c 1
 493 559 l 1
 493 559 355 555 348 551 c 1
 316 551 293 580 293 646 c 0
 293 694 303 721 329 731 c 1
 342 730 418 729 472 729 c 1
EndSplineSet
Validated: 1
EndChar

StartChar: periodcentered
Encoding: 366 183 110
Width: 442
Flags: HMW
HStem: 769 326<161 286.5>
VStem: 43 356<892 972.5 892 974>
LayerCount: 2
Fore
SplineSet
43 932 m 0
 43 1016 98 1095 224 1095 c 0
 349 1095 399 1013 399 932 c 0
 399 852 349 769 224 769 c 0
 98 769 43 849 43 932 c 0
EndSplineSet
Validated: 1
EndChar

StartChar: paragraph
Encoding: 367 182 111
Width: 1276
Flags: HMW
HStem: 42 21G
VStem: -331 630 451 224
LayerCount: 2
Fore
SplineSet
980 1554 m 0
 1034 1554 1155 1564 1186 1566 c 0
 1197 1566 1244 1511 1244 1397 c 0
 1244 1305 1048 1420 1048 1232 c 2
 1048 717 l 2
 1048 137 1055 87 1091 79 c 1
 1146 73 1207 66 1207 12 c 0
 1207 -40 1184 -124 1129 -142 c 1
 1110 -137 1058 -125 1000 -125 c 0
 924 -125 855 -122 830 -122 c 0
 822 -122 820 19 820 238 c 0
 820 373 821 537 821 1332 c 0
 821 1337 763 1337 727 1337 c 0
 708 1337 674 1337 675 1332 c 1
 675 717 l 2
 675 326 678 91 678 -48 c 0
 678 -85 676 -127 652 -127 c 0
 637 -127 607 -125 571 -125 c 0
 482 -125 398 -137 369 -142 c 1
 314 -124 291 -40 291 12 c 0
 291 66 352 73 407 79 c 1
 449 88 449 151 451 887 c 1
 137 887 33 1009 33 1241 c 0
 33 1405 164 1566 529 1566 c 0
 579 1566 620 1554 980 1554 c 0
EndSplineSet
Validated: 1
EndChar

StartChar: bullet
Encoding: 368 8226 112
Width: 1161
Flags: HMW
HStem: -29 228 1283 232
LayerCount: 2
Fore
SplineSet
583 300 m 0
 307 300 163 496 163 690 c 0
 163 879 301 1067 586 1067 c 0
 865 1067 998 882 998 693 c 0
 998 498 855 300 583 300 c 0
EndSplineSet
Validated: 1
EndChar

StartChar: quotesinglbase
Encoding: 369 8218 113
Width: 497
Flags: HMW
HStem: 1545 20G 1555 20G
VStem: 33 495 43 481
LayerCount: 2
Fore
SplineSet
156 -225 m 0x00
 156 -180 255 -72 255 -56 c 0
 255 -18 78 -30 78 129 c 0
 78 231 155 301 266 301 c 0
 373 301 457 221 457 120 c 0
 457 -56 334 -256 204 -256 c 0
 174 -256 156 -244 156 -225 c 0x00
EndSplineSet
Validated: 1
EndChar

StartChar: quotedblbase
Encoding: 370 8222 114
Width: 1085
Flags: HMW
HStem: 1545 20G
VStem: 51 477 564 479
LayerCount: 2
Fore
SplineSet
659 -225 m 0
 659 -180 758 -72 758 -56 c 0
 758 -18 581 -30 581 129 c 0
 581 231 658 301 769 301 c 0
 876 301 960 221 960 120 c 0
 960 -56 837 -256 707 -256 c 0
 677 -256 659 -244 659 -225 c 0
198 -225 m 0
 198 -180 297 -72 297 -56 c 0
 297 -18 120 -30 120 129 c 0
 120 231 197 301 308 301 c 0
 415 301 499 221 499 120 c 0
 499 -56 376 -256 246 -256 c 0
 216 -256 198 -244 198 -225 c 0
EndSplineSet
Validated: 1
EndChar

StartChar: quotedblright
Encoding: 371 8221 115
Width: 1085
Flags: HMW
HStem: 1545 20G
VStem: 51 477 564 479
LayerCount: 2
Fore
SplineSet
659 986 m 0
 659 1031 758 1139 758 1155 c 0
 758 1193 581 1181 581 1340 c 0
 581 1442 658 1512 769 1512 c 0
 876 1512 960 1432 960 1331 c 0
 960 1155 837 955 707 955 c 0
 677 955 659 967 659 986 c 0
198 986 m 0
 198 1031 297 1139 297 1155 c 0
 297 1193 120 1181 120 1340 c 0
 120 1442 197 1512 308 1512 c 0
 415 1512 499 1432 499 1331 c 0
 499 1155 376 955 246 955 c 0
 216 955 198 967 198 986 c 0
EndSplineSet
Validated: 1
EndChar

StartChar: guillemotright
Encoding: 372 187 116
Width: 1292
Flags: HMW
HStem: -1 21G<153.5 174 685.5 706> 1061 8
VStem: 37 1222<129 578.5>
LayerCount: 2
Fore
SplineSet
727 534 m 0
 727 445 189 7 189 7 c 2
 185 4 180 -1 168 -1 c 0
 139 -1 37 105 37 153 c 0
 37 164 41 173 50 182 c 2
 458 534 l 1
 60 886 l 2
 51 895 47 904 47 915 c 0
 47 963 141 1069 168 1069 c 0
 180 1069 185 1064 189 1061 c 2
 189 1061 727 623 727 534 c 0
1259 534 m 0
 1259 445 721 7 721 7 c 2
 717 4 712 -1 700 -1 c 0
 671 -1 569 105 569 153 c 0
 569 164 573 173 582 182 c 2
 990 534 l 1
 592 886 l 2
 583 895 579 904 579 915 c 0
 579 963 673 1069 700 1069 c 0
 712 1069 717 1064 721 1061 c 2
 721 1061 1259 623 1259 534 c 0
EndSplineSet
Validated: 1
EndChar

StartChar: questiondown
Encoding: 373 191 117
Width: 1318
Flags: HMW
HStem: 4 163<892.5 1026 892.5 1111> 1216 326<946.5 1072>
VStem: 539 219<272.5 397.5 272.5 512.5> 947 213<820.5 918> 1158 221<208 303.5 199.5 361 199.5 392.5>
LayerCount: 2
Fore
SplineSet
1190 1379 m 0xe8
 1190 1295 1135 1216 1009 1216 c 0
 884 1216 834 1298 834 1379 c 0
 834 1459 884 1542 1009 1542 c 0
 1135 1542 1190 1462 1190 1379 c 0xe8
961 167 m 0
 1091 167 1158 208 1158 208 c 1
 1158 361 l 2
 1158 424 1165 431 1219 431 c 0
 1338 431 1379 337 1379 270 c 0xe8
 1379 129 1266 4 956 4 c 0
 712 4 539 119 539 328 c 0
 539 697 947 708 947 899 c 0
 947 937 945 963 945 990 c 0
 945 1042 976 1051 1003 1051 c 0
 1037 1051 1078 1049 1087 1049 c 0
 1128 1049 1160 972 1160 880 c 0xf0
 1160 761 1121 743 1007 645 c 0
 919 569 758 483 758 312 c 0
 758 233 824 167 961 167 c 0
EndSplineSet
Validated: 1
EndChar

StartChar: grave
Encoding: 374 96 118
Width: 656
Flags: HMW
HStem: 1149 476<136 613 136 502>
VStem: 43 570<1149 1585>
LayerCount: 2
Fore
SplineSet
613 1149 m 1
 502 1149 l 1
 386 1238 199 1401 161 1438 c 0
 97 1501 43 1534 43 1564 c 0
 43 1606 82 1625 190 1625 c 0
 285 1625 317 1602 361 1532 c 0
 411 1453 556 1233 613 1149 c 1
EndSplineSet
Validated: 1
EndChar

StartChar: acute
Encoding: 375 180 119
Width: 656
Flags: HMW
HStem: 1149 476<43 520 43 520>
VStem: 43 570<1149 1585>
LayerCount: 2
Fore
SplineSet
43 1149 m 1
 100 1233 245 1453 295 1532 c 0
 339 1602 371 1625 466 1625 c 0
 574 1625 613 1606 613 1564 c 0
 613 1534 559 1501 495 1438 c 0
 457 1401 270 1238 154 1149 c 1
 43 1149 l 1
EndSplineSet
Validated: 1
EndChar

StartChar: circumflex
Encoding: 376 710 120
Width: 930
Flags: HMW
HStem: 1149 476<125.5 510 410 801>
VStem: 71 778<1189 1225>
LayerCount: 2
Fore
SplineSet
410 1625 m 1
 510 1625 l 1
 597 1536 733 1374 762 1337 c 0
 811 1275 849 1240 849 1210 c 0
 849 1168 830 1149 772 1149 c 0
 703 1149 684 1174 646 1222 c 2
 465 1453 l 1
 284 1222 l 2
 246 1174 227 1149 158 1149 c 0
 93 1149 71 1168 71 1210 c 0
 71 1240 109 1275 158 1337 c 0
 187 1374 322 1536 410 1625 c 1
EndSplineSet
Validated: 1
EndChar

StartChar: tilde
Encoding: 377 732 121
Width: 999
Flags: HMW
HStem: 1225 163<655.5 679.5 637 768> 1316 168<321.5 364.5 240.5 371>
VStem: 121 758<1252 1446> 715 163
LayerCount: 2
Fore
SplineSet
879 1446 m 1x90
 877 1421 l 2
 868 1307 816 1225 720 1225 c 0x90
 591 1225 408 1316 334 1316 c 0
 301 1316 292 1289 286 1240 c 1
 282 1234 263 1232 239 1232 c 0
 195 1232 121 1245 121 1259 c 1
 124 1287 l 2
 135 1391 182 1484 299 1484 c 0x60
 430 1484 606 1388 668 1388 c 0
 698 1388 712 1414 716 1461 c 1
 716 1461 737 1464 761 1464 c 0
 802 1464 851 1453 879 1446 c 1x90
EndSplineSet
Validated: 1
EndChar

StartChar: macron
Encoding: 378 175 122
Width: 822
Flags: HMW
HStem: 699 21G 701 345
LayerCount: 2
Fore
SplineSet
700 1243 m 2x00
 104 1243 l 2
 72 1243 66 1280 66 1315 c 0
 66 1359 77 1392 112 1392 c 2
 699 1392 l 2
 732 1392 747 1379 747 1327 c 0
 747 1288 739 1243 700 1243 c 2x00
EndSplineSet
Validated: 1
EndChar

StartChar: breve
Encoding: 379 728 123
Width: 1104
Flags: HMW
HStem: 1234 136<521 583 521 638.5>
VStem: 234 194<1466.5 1515>
LayerCount: 2
Fore
SplineSet
554 1234 m 0
 380 1234 250 1332 234 1515 c 1
 428 1515 l 1
 428 1418 490 1370 552 1370 c 0
 614 1370 676 1418 676 1515 c 1
 870 1515 l 1
 854 1332 723 1234 554 1234 c 0
EndSplineSet
Validated: 1
EndChar

StartChar: dotaccent
Encoding: 380 729 124
Width: 590
Flags: HMW
HStem: 1200 326<231 356.5>
VStem: 113 356<1323 1403.5 1323 1405>
LayerCount: 2
Fore
SplineSet
113 1363 m 0
 113 1447 168 1526 294 1526 c 0
 419 1526 469 1444 469 1363 c 0
 469 1283 419 1200 294 1200 c 0
 168 1200 113 1280 113 1363 c 0
EndSplineSet
Validated: 1
EndChar

StartChar: dieresis
Encoding: 381 168 125
Width: 975
Flags: HMW
HStem: 1236 272<142 247 732 837.5>
VStem: 43 889<1338.5 1406 1338.5 1407>
LayerCount: 2
Fore
SplineSet
43 1372 m 0
 43 1442 89 1508 195 1508 c 0
 299 1508 342 1440 342 1372 c 0
 342 1305 299 1236 195 1236 c 0
 89 1236 43 1303 43 1372 c 0
633 1372 m 0
 633 1442 679 1508 785 1508 c 0
 890 1508 932 1440 932 1372 c 0
 932 1305 890 1236 785 1236 c 0
 679 1236 633 1303 633 1372 c 0
EndSplineSet
Validated: 1
EndChar

StartChar: ring
Encoding: 382 730 126
Width: 644
Flags: HMW
HStem: 1186 225 1448 68
LayerCount: 2
Fore
SplineSet
324 1186 m 0
 193 1186 72 1267 72 1412 c 0
 72 1552 179 1636 326 1636 c 0
 474 1636 572 1541 572 1415 c 0
 572 1282 462 1186 324 1186 c 0
175 1411 m 0
 175 1306 247 1254 320 1254 c 0
 393 1254 466 1307 466 1412 c 0
 466 1515 393 1566 321 1566 c 0
 248 1566 175 1514 175 1411 c 0
EndSplineSet
Validated: 1
EndChar

StartChar: cedilla
Encoding: 383 184 127
Width: 464
Flags: HMW
HStem: -495 111<143 196.5 131.5 247.5> -150 161<98 163>
VStem: 98 104<-85 11 -85 11 -85 11> 295 126<-308 -249.5>
LayerCount: 2
Fore
SplineSet
43 -480 m 1
 64 -372 l 1
 86 -379 116 -384 147 -384 c 0
 246 -384 295 -335 295 -281 c 0
 295 -218 228 -150 98 -150 c 1
 98 11 l 1
 202 11 l 1
 202 -85 l 1
 350 -110 421 -203 421 -294 c 0
 421 -395 332 -495 163 -495 c 0
 123 -495 81 -490 43 -480 c 1
EndSplineSet
Validated: 1
EndChar

StartChar: hungarumlaut
Encoding: 384 733 128
Width: 1334
Flags: HMW
HStem: 1149 476<153 630 153 630 610 630 528.5 721 610 610>
VStem: 153 1027<1149 1585>
LayerCount: 2
Fore
SplineSet
721 1149 m 1
 610 1149 l 1
 667 1233 812 1453 862 1532 c 0
 906 1602 938 1625 1033 1625 c 0
 1141 1625 1180 1606 1180 1564 c 0
 1180 1534 1126 1501 1062 1438 c 0
 1024 1401 837 1238 721 1149 c 1
264 1149 m 1
 153 1149 l 1
 210 1233 355 1453 405 1532 c 0
 449 1602 481 1625 576 1625 c 0
 684 1625 723 1606 723 1564 c 0
 723 1534 669 1501 605 1438 c 0
 567 1401 380 1238 264 1149 c 1
EndSplineSet
Validated: 1
EndChar

StartChar: ogonek
Encoding: 385 731 129
Width: 644
Flags: HMW
HStem: -420 431 1350 140
LayerCount: 2
Fore
SplineSet
470 -259 m 1
 514 -402 l 1
 443 -433 373 -449 314 -449 c 0
 181 -449 88 -385 88 -254 c 0
 88 -136 195 14 401 100 c 1
 401 0 l 1
 308 -46 253 -143 253 -211 c 0
 253 -274 287 -294 330 -294 c 0
 376 -294 432 -276 470 -259 c 1
EndSplineSet
Validated: 1
EndChar

StartChar: caron
Encoding: 386 711 130
Width: 930
Flags: HMW
HStem: 1149 476<125.5 510 125.5 410>
VStem: 71 778<1549 1585>
LayerCount: 2
Fore
SplineSet
510 1149 m 1
 410 1149 l 1
 322 1238 187 1400 158 1437 c 0
 109 1499 71 1534 71 1564 c 0
 71 1606 93 1625 158 1625 c 0
 227 1625 246 1600 284 1552 c 2
 465 1321 l 1
 646 1552 l 2
 684 1600 703 1625 772 1625 c 0
 830 1625 849 1606 849 1564 c 0
 849 1534 811 1499 762 1437 c 0
 733 1400 597 1238 510 1149 c 1
EndSplineSet
Validated: 1
EndChar

StartChar: emdash
Encoding: 387 8212 131
Width: 1528
Flags: HMW
HStem: 559 171<200 1377>
VStem: 0 1529<615 670>
LayerCount: 2
Fore
SplineSet
179 729 m 1
 231 730 1343 730 1350 730 c 0
 1404 730 1480 732 1493 733 c 1
 1519 723 1529 696 1529 648 c 0
 1529 582 1506 553 1474 553 c 1
 1462 558 1247 559 1247 559 c 1
 200 559 l 1
 200 559 62 555 55 551 c 1
 23 551 0 580 0 646 c 0
 0 694 10 721 36 731 c 1
 49 730 125 729 179 729 c 1
EndSplineSet
Validated: 1
EndChar

StartChar: AE
Encoding: 388 198 132
Width: 2288
Flags: HMW
HStem: 604 0
VStem: 2224 600 2983 255
LayerCount: 2
Fore
SplineSet
1170 238 m 1
 1149 523 l 1
 624 523 l 1
 459 254 l 2
 449 237 437 223 438 211 c 1
 438 173 565 200 565 157 c 0
 565 155 565 152 564 149 c 0
 544 94 511 12 493 -11 c 1
 426 -6 345 0 243 0 c 0
 157 0 69 -7 3 -11 c 1
 -1 -7 -5 2 -5 11 c 0
 -5 40 14 101 24 141 c 1
 44 176 94 189 135 189 c 0
 190 189 215 219 237 252 c 2
 880 1247 l 1
 888 1262 897 1275 897 1289 c 0
 897 1330 781 1291 781 1337 c 0
 781 1342 782 1348 787 1358 c 1
 806 1407 840 1482 862 1503 c 1
 1079 1491 1234 1490 1396 1490 c 0
 1641 1490 1874 1501 1971 1503 c 1
 1994 1482 2123 1115 2123 1072 c 0
 2123 1055 2095 992 1989 992 c 0
 1954 992 1887 1248 1857 1311 c 1
 1702 1311 1534 1310 1342 1310 c 0
 1322 1310 1313 1298 1313 1269 c 0
 1313 1262 1313 1254 1314 1246 c 2
 1353 869 l 1
 1420 894 1548 921 1648 921 c 0
 1721 921 1793 883 1793 779 c 0
 1793 711 1740 662 1677 662 c 1
 1613 733 1542 753 1462 753 c 0
 1431 753 1398 750 1368 746 c 1
 1416 244 l 2
 1419 214 1423 179 1456 179 c 0
 1648 179 1817 178 1972 178 c 1
 1996 249 2021 537 2065 537 c 0
 2173 537 2214 472 2215 456 c 1
 2215 447 l 2
 2215 372 2159 10 2135 -11 c 1
 2041 -5 1870 0 1625 0 c 0
 1402 0 1199 0 980 -11 c 1
 980 13 992 91 1008 149 c 0
 1026 214 1170 158 1170 232 c 2
 1170 238 l 1
1092 1267 m 1
 1092 1267 916 1007 718 675 c 1
 1138 675 l 1
 1119 1007 1092 1267 1092 1267 c 1
EndSplineSet
Validated: 1
EndChar

StartChar: ordfeminine
Encoding: 389 170 133
Width: 886
Flags: HMW
HStem: 698 129<289.5 339.5> 1391 120<369.5 469>
VStem: 46 171<881 950 881 1006.5> 561 164<930 1059 1059 1059>
LayerCount: 2
Fore
SplineSet
590 817 m 1
 515 740 395 698 284 698 c 0
 154 698 46 767 46 913 c 0
 46 1100 261 1131 560 1175 c 1
 560 1336 529 1391 409 1391 c 0
 330 1391 201 1355 132 1282 c 1
 91 1317 73 1351 73 1378 c 0
 73 1464 272 1511 420 1511 c 0
 604 1511 725 1427 725 1151 c 2
 725 919 l 2
 725 857 737 855 759 852 c 0
 805 847 845 843 845 819 c 0
 845 780 839 728 821 712 c 1
 803 715 769 718 730 718 c 0
 700 718 667 717 636 713 c 1
 636 713 590 742 590 817 c 1
317 827 m 0
 414 827 541 894 561 930 c 1
 561 1059 l 1
 300 1013 217 985 217 915 c 0
 217 847 262 827 317 827 c 0
EndSplineSet
Validated: 1
EndChar

StartChar: Lslash
Encoding: 390 321 134
Width: 1321
Flags: HMW
HStem: 17 20G 42 21G 699 21G 701 345
VStem: -222 20
LayerCount: 2
Fore
SplineSet
146 1503 m 1xc8
 179 1494 289 1490 384 1490 c 0
 484 1490 567 1494 602 1503 c 1
 641 1481 655 1413 655 1359 c 0
 655 1324 607 1311 563 1311 c 0
 500 1311 499 1276 499 1246 c 2
 499 910 l 1
 575 941 634 965 754 1015 c 0
 771 1022 787 1026 798 1026 c 0
 836 1026 868 924 868 898 c 0
 868 881 859 868 838 859 c 0
 755 825 594 758 499 718 c 1
 499 214 l 2
 499 198 500 179 513 179 c 0
 685 179 838 178 978 178 c 1
 1018 249 1098 537 1157 537 c 0
 1265 537 1300 472 1300 456 c 0
 1300 407 1144 11 1102 -11 c 1
 953 -5 772 0 601 0 c 0
 423 0 256 -6 146 -11 c 1
 106 12 93 95 93 152 c 0
 93 187 151 200 205 200 c 0
 262 200 268 230 268 263 c 2
 268 624 l 1
 238 612 214 602 208 599 c 0
 193 592 180 588 170 588 c 0
 135 588 96 661 96 708 c 0
 96 731 108 750 146 766 c 0
 192 785 232 801 268 816 c 1
 268 1229 l 2
 268 1262 262 1292 205 1292 c 0
 161 1292 93 1299 93 1344 c 0
 93 1398 107 1481 146 1503 c 1xc8
EndSplineSet
Validated: 1
EndChar

StartChar: Oslash
Encoding: 391 216 135
Width: 1752
Flags: HMW
HStem: -16 217 1297 207
LayerCount: 2
Fore
SplineSet
876 153 m 0
 1211 154 1381 448 1381 743 c 0
 1381 904 1331 1065 1230 1178 c 1
 1048 880 810 493 637 214 c 1
 704 176 784 153 876 153 c 0
401 126 m 1
 212 274 116 511 116 747 c 0
 116 1132 370 1512 876 1512 c 0
 1011 1512 1128 1485 1227 1438 c 1
 1282 1527 1323 1592 1339 1621 c 1
 1347 1643 1361 1647 1387 1647 c 0
 1391 1647 1398 1648 1407 1648 c 0
 1432 1648 1475 1643 1475 1608 c 0
 1475 1593 1471 1575 1460 1556 c 0
 1433 1512 1393 1446 1345 1367 c 1
 1539 1221 1636 985 1636 747 c 0
 1636 361 1380 -27 876 -27 c 0
 744 -27 630 -1 532 45 c 1
 488 -26 453 -80 431 -113 c 1
 411 -148 381 -160 340 -160 c 0
 281 -160 262 -136 262 -91 c 0
 262 -70 295 -47 321 -3 c 0
 336 22 364 67 401 126 c 1
1121 1269 m 1
 1053 1310 971 1333 876 1333 c 0
 541 1333 371 1038 371 743 c 0
 371 584 420 426 518 313 c 1
 693 591 942 983 1121 1269 c 1
EndSplineSet
Validated: 1
EndChar

StartChar: OE
Encoding: 392 338 136
Width: 2536
Flags: HMW
HStem: -16 217 1297 207
VStem: 1362 600 2121 255
LayerCount: 2
Fore
SplineSet
1757 1490 m 0
 1970 1490 2178 1501 2259 1503 c 1
 2289 1482 2393 1116 2393 1073 c 0
 2393 1057 2358 992 2250 992 c 0
 2209 992 2159 1248 2131 1311 c 1
 1982 1311 1820 1310 1636 1310 c 0
 1603 1310 1602 1275 1602 1246 c 2
 1602 869 l 1
 1673 894 1802 921 1902 921 c 0
 1976 921 2034 887 2034 793 c 0
 2034 717 1972 662 1905 662 c 1
 1849 733 1779 753 1699 753 c 0
 1668 753 1635 750 1602 746 c 1
 1602 244 l 2
 1602 214 1603 179 1636 179 c 0
 1832 179 2003 178 2161 178 c 1
 2197 249 2267 537 2320 537 c 0
 2428 537 2463 472 2463 456 c 0
 2463 407 2323 -4 2285 -26 c 1
 2188 -17 2012 0 1757 0 c 0
 1469 0 1182 -27 876 -27 c 0
 372 -27 116 361 116 747 c 0
 116 1132 370 1512 876 1512 c 0
 1364 1512 1347 1490 1757 1490 c 0
876 153 m 0
 1200 153 1367 157 1371 163 c 1
 1371 1323 l 2
 1371 1328 1204 1333 876 1333 c 0
 541 1333 371 1038 371 743 c 0
 371 448 541 154 876 153 c 0
EndSplineSet
Validated: 1
EndChar

StartChar: ordmasculine
Encoding: 393 186 137
Width: 906
Flags: HMW
HStem: 699 124<389 507 389 549.5> 1388 123<389 507>
VStem: 42 170<1012 1200 1012 1241> 684 170<1012 1200>
LayerCount: 2
Fore
SplineSet
42 1106 m 0
 42 1376 245 1511 448 1511 c 0
 651 1511 854 1376 854 1106 c 0
 854 836 651 699 448 699 c 0
 245 699 42 836 42 1106 c 0
212 1106 m 0
 212 918 330 823 448 823 c 0
 566 823 684 918 684 1106 c 0
 684 1294 566 1388 448 1388 c 0
 330 1388 212 1294 212 1106 c 0
EndSplineSet
Validated: 1
EndChar

StartChar: ae
Encoding: 394 230 138
Width: 1897
Flags: HMW
HStem: -27 178<448 503.5> -27 190<1310 1444.5 1306 1499.5> 496 155<1083 1647 1083 1737 1077 1647> 929 166<557 708> 935 161<1314.5 1446.5>
VStem: 111 236<229 324.5 229 402> 852 225<293 496 470 496> 1647 202<651 651>
LayerCount: 2
Fore
SplineSet
1849 591 m 0x77
 1849 537 1830 496 1737 496 c 2
 1077 496 l 1
 1089 246 1228 163 1384 163 c 0
 1505 163 1638 213 1742 285 c 1
 1780 252 1823 208 1823 158 c 0
 1823 72 1613 -27 1386 -27 c 0
 1234 -27 1074 24 971 167 c 1
 819 31 567 -27 440 -27 c 0
 261 -27 111 71 111 273 c 0
 111 531 421 570 851 631 c 1
 851 853 803 929 613 929 c 0
 501 929 318 879 220 778 c 1
 163 826 139 873 139 911 c 0
 139 1029 420 1095 628 1095 c 0x77
 792 1095 921 1049 994 920 c 1
 1092 1035 1235 1096 1374 1096 c 0x6f
 1617 1096 1849 936 1849 591 c 0x77
1647 651 m 1xaf
 1634 847 1511 935 1382 935 c 0
 1247 935 1100 832 1083 651 c 1
 1647 651 l 1xaf
486 151 m 0
 632 151 822 243 852 293 c 1
 852 470 l 1
 468 407 347 373 347 276 c 0
 347 182 410 151 486 151 c 0
EndSplineSet
Validated: 1
EndChar

StartChar: dotlessi
Encoding: 395 305 139
Width: 683
Flags: HMW
HStem: 227 21G 1171 345 1245 244
VStem: 79 636 196 636
LayerCount: 2
Fore
SplineSet
490 980 m 2x80
 490 251 l 2
 490 221 491 186 554 186 c 0
 598 186 646 173 646 138 c 0
 646 84 638 14 613 -8 c 1
 557 -3 477 0 393 0 c 0
 306 0 214 -3 141 -8 c 1
 116 15 108 84 108 138 c 0
 108 173 156 186 200 186 c 0
 257 186 263 216 263 249 c 2
 263 786 l 2
 263 856 233 881 115 887 c 1
 97 891 95 900 95 943 c 0
 95 1017 116 1071 128 1078 c 1
 184 1070 233 1067 277 1067 c 0
 358 1067 413 1078 434 1078 c 0
 480 1078 490 1065 490 980 c 2x80
EndSplineSet
Validated: 1
EndChar

StartChar: lslash
Encoding: 396 322 140
Width: 655
Flags: HMW
HStem: 699 21G 701 345
VStem: 67 506
LayerCount: 2
Fore
SplineSet
469 251 m 0x20
 469 221 470 186 533 186 c 0
 577 186 625 173 625 138 c 0
 625 84 617 14 592 -8 c 1
 538 -3 450 0 362 0 c 0
 269 0 175 -3 120 -8 c 1
 95 15 87 84 87 138 c 0
 87 173 135 186 179 186 c 0
 236 186 242 216 242 249 c 2
 242 1209 l 2
 242 1279 212 1304 94 1310 c 1
 76 1314 74 1323 74 1366 c 0
 74 1440 95 1494 107 1501 c 1
 167 1493 219 1490 266 1490 c 0
 342 1490 394 1501 414 1501 c 0
 460 1501 470 1488 470 1403 c 0
 470 1387 469 1376 469 251 c 0x20
151 621 m 0
 142 617 134 616 126 616 c 0
 79 616 36 694 36 744 c 0
 36 774 53 803 98 820 c 0
 263 883 487 969 599 1013 c 0
 618 1020 635 1025 648 1025 c 0
 663 1025 673 1019 682 999 c 0
 700 960 719 918 719 887 c 0
 719 867 711 851 691 843 c 0
 521 770 332 697 151 621 c 0
EndSplineSet
Validated: 5
EndChar

StartChar: oslash
Encoding: 397 248 141
Width: 1264
Flags: HMW
HStem: -27 171<549.5 713 549.5 772> 925 170<549.5 713>
VStem: 71 234<405 665 405 721.5> 958 235<405 665>
LayerCount: 2
Fore
SplineSet
71 535 m 0
 71 908 351 1095 632 1095 c 0
 713 1095 795 1080 870 1048 c 1
 910 1113 941 1163 957 1191 c 1
 965 1213 979 1217 1005 1217 c 0
 1009 1217 1016 1218 1025 1218 c 0
 1046 1218 1083 1213 1083 1178 c 0
 1083 1163 1079 1145 1068 1126 c 0
 1044 1086 1014 1038 981 984 c 1
 1106 892 1193 742 1193 535 c 0
 1193 161 912 -27 632 -27 c 0
 549 -27 466 -11 391 22 c 1
 359 -30 331 -73 311 -105 c 0
 289 -139 261 -152 220 -152 c 0
 176 -152 162 -128 162 -83 c 0
 162 -62 185 -37 211 5 c 0
 222 23 242 54 268 95 c 1
 151 188 71 335 71 535 c 0
381 273 m 1
 498 458 652 699 772 891 c 1
 728 914 679 925 631 925 c 0
 468 925 305 795 305 535 c 0
 305 424 334 337 381 273 c 1
489 179 m 1
 534 155 582 144 631 144 c 0
 795 144 958 275 958 535 c 0
 958 652 925 743 874 807 c 1
 751 605 606 368 489 179 c 1
EndSplineSet
Validated: 1
EndChar

StartChar: oe
Encoding: 398 339 142
Width: 2043
Flags: HMW
HStem: -27 171<549.5 713 549.5 717> -27 190<1438 1582 1437 1638> 496 155<1199 1793 1199 1883 1193 1793> 925 170<549.5 713> 935 161<1445.5 1585>
VStem: 71 234<405 665 405 721.5> 958 235<496 496 496 665> 1793 202<651 651>
LayerCount: 2
Fore
SplineSet
71 535 m 0xb7
 71 908 351 1095 632 1095 c 0xb7
 803 1095 975 1019 1078 868 c 1
 1178 1017 1346 1096 1510 1096 c 0
 1758 1096 1995 936 1995 591 c 0
 1995 537 1976 496 1883 496 c 2
 1193 496 l 1
 1205 246 1354 163 1520 163 c 0x6f
 1644 163 1781 213 1888 285 c 1
 1926 252 1969 208 1969 158 c 0
 1969 72 1754 -27 1522 -27 c 0
 1354 -27 1178 31 1075 196 c 1
 972 47 802 -27 632 -27 c 0
 351 -27 71 161 71 535 c 0xb7
305 535 m 0
 305 275 468 144 631 144 c 0
 795 144 958 275 958 535 c 0
 958 795 795 925 631 925 c 0
 468 925 305 795 305 535 c 0
1793 651 m 1xaf
 1780 847 1652 935 1518 935 c 0
 1373 935 1218 832 1199 651 c 1
 1793 651 l 1xaf
EndSplineSet
Validated: 1
EndChar

StartChar: germandbls
Encoding: 399 223 143
Width: 1422
Flags: HMW
VStem: 59 567 477 523
LayerCount: 2
Fore
SplineSet
746 1516 m 0x80
 1057 1516 1233 1335 1233 1154 c 0
 1233 1004 1120 854 871 787 c 1
 1239 739 1396 578 1396 375 c 0
 1396 76 1101 -27 762 -27 c 0
 715 -27 670 -24 627 -20 c 1
 627 139 l 1
 1102 139 1147 259 1147 379 c 0
 1147 536 994 697 477 697 c 1x40
 477 169 486 130 486 26 c 0
 486 5 483 -12 471 -12 c 0
 452 -12 423 0 335 0 c 0
 304 0 195 -6 124 -12 c 1
 104 3 96 74 96 117 c 0
 96 170 121 175 178 184 c 0
 242 194 250 218 250 245 c 2
 250 980 l 2
 250 1412 493 1516 746 1516 c 0x80
507 849 m 0
 858 849 1015 1000 1015 1137 c 0
 1015 1253 920 1359 745 1359 c 0
 503 1359 477 1176 477 1000 c 2
 477 872 l 2
 477 858 481 849 507 849 c 0
EndSplineSet
Validated: 1
EndChar

StartChar: onesuperior
Encoding: 400 185 144
Width: 515
Flags: HMW
HStem: 453 23
VStem: 166 389
LayerCount: 2
Fore
SplineSet
353 1474 m 2
 353 600 l 2
 353 581 354 558 396 558 c 0
 436 558 480 547 480 519 c 0
 480 476 472 418 446 399 c 1
 400 403 336 405 267 405 c 0
 203 405 141 403 95 399 c 1
 62 417 52 476 52 519 c 0
 52 547 96 558 137 558 c 0
 174 558 178 577 178 599 c 2
 178 1295 l 2
 178 1317 174 1337 137 1337 c 0
 96 1337 52 1347 52 1376 c 0
 52 1417 57 1466 70 1495 c 1
 124 1491 171 1489 210 1489 c 0
 256 1489 293 1491 331 1495 c 1
 347 1495 353 1488 353 1474 c 2
EndSplineSet
Validated: 1
EndChar

StartChar: logicalnot
Encoding: 401 172 145
Width: 1116
Flags: HMW
HStem: 722 170<255 260 207 505.5>
VStem: 868 170<719 719 719 721 721 721>
LayerCount: 2
Fore
SplineSet
1038 719 m 1
 1042 499 1038 462 1043 404 c 1
 1033 378 1006 368 958 368 c 0
 892 368 863 391 863 423 c 1
 866 436 868 600 868 650 c 2
 868 721 l 1
 868 721 756 722 255 722 c 1
 255 722 117 718 110 714 c 1
 78 714 55 743 55 809 c 0
 55 857 65 884 91 894 c 1
 104 893 180 892 234 892 c 0
 286 892 950 893 957 893 c 0
 1011 893 1038 893 1038 835 c 2
 1038 719 l 1
EndSplineSet
Validated: 1
EndChar

StartChar: mu
Encoding: 402 181 146
AltUni2: 0003bc.ffffffff.0
Width: 1341
Flags: HMW
HStem: -120 21G 898 244
VStem: 29 636
LayerCount: 2
Fore
SplineSet
1141 1019 m 2
 1141 273 l 2
 1141 203 1141 182 1239 182 c 0
 1302 182 1309 169 1309 126 c 0
 1309 52 1287 -1 1276 -8 c 1
 1221 -2 1177 0 1141 0 c 0
 1070 0 1031 -8 1001 -8 c 0
 946 -8 944 9 944 144 c 1
 853 35 713 -27 582 -27 c 0
 533 -27 486 -19 442 -2 c 1
 442 -95 l 2
 442 -125 443 -160 506 -160 c 0
 550 -160 598 -173 598 -208 c 0
 598 -262 590 -332 565 -354 c 1
 509 -349 429 -346 345 -346 c 0
 258 -346 166 -349 93 -354 c 1
 68 -331 60 -262 60 -208 c 0
 60 -173 108 -160 152 -160 c 0
 209 -160 215 -130 215 -97 c 2
 215 802 l 2
 215 882 189 899 165 901 c 0
 95 908 30 908 30 949 c 0
 30 1003 38 1074 63 1096 c 1
 131 1085 188 1080 236 1080 c 0
 329 1080 386 1095 408 1095 c 0
 426 1095 442 1083 442 1019 c 2
 442 372 l 2
 442 218 535 152 645 152 c 0
 740 152 849 207 914 301 c 1
 914 802 l 2
 914 882 888 899 864 901 c 0
 794 908 729 908 729 949 c 0
 729 1003 737 1074 762 1096 c 1
 830 1085 887 1080 935 1080 c 0
 1028 1080 1085 1095 1107 1095 c 0
 1125 1095 1141 1083 1141 1019 c 2
EndSplineSet
Validated: 1
EndChar

StartChar: trademark
Encoding: 403 8482 147
Width: 2227
Flags: HMW
HStem: 33 21G 705 11 1494 20G 1499 11
VStem: 312 312 381 566 1047 146 1743 268
LayerCount: 2
Fore
SplineSet
405 804 m 2xe7
 405 1359 l 2
 405 1368 405 1380 391 1380 c 2
 255 1380 l 1
 241 1348 219 1213 200 1213 c 0
 127 1213 104 1251 104 1261 c 0
 104 1286 144 1493 156 1506 c 1
 160 1506 160 1505 164 1505 c 0
 228 1499 338 1491 496 1491 c 0
 655 1491 764 1499 828 1505 c 0
 831 1505 831 1506 836 1506 c 1
 847 1493 888 1286 888 1261 c 0
 888 1251 865 1213 791 1213 c 0
 772 1213 750 1348 737 1380 c 1
 600 1380 l 2
 586 1380 586 1367 586 1359 c 2
 586 805 l 2
 586 787 587 766 624 766 c 0xeb
 657 766 691 759 691 738 c 0
 691 695 687 635 672 619 c 1
 624 621 564 626 496 626 c 0
 430 626 368 622 321 619 c 1
 306 635 301 695 301 738 c 0
 301 758 335 766 367 766 c 0
 402 766 405 785 405 804 c 2xe7
1003 1503 m 1
 1054 1499 1094 1495 1163 1495 c 0
 1208 1495 1250 1499 1272 1499 c 0
 1275 1499 1277 1498 1279 1498 c 0
 1292 1496 1483 1062 1550 916 c 1
 1616 1073 1800 1496 1814 1498 c 2
 1814 1498 1818 1499 1821 1499 c 0xd7
 1845 1499 1894 1495 1942 1495 c 0
 2000 1495 2034 1496 2076 1503 c 1
 2095 1486 2102 1427 2102 1382 c 0
 2102 1362 2067 1354 2036 1354 c 0
 2002 1354 1998 1336 1998 1317 c 2
 1998 812 l 2
 1998 791 2002 775 2036 775 c 0
 2067 775 2102 766 2102 746 c 0
 2102 704 2093 646 2070 630 c 1
 2034 633 1985 636 1935 636 c 0
 1879 636 1825 633 1786 630 c 1
 1768 646 1761 708 1761 748 c 0
 1761 769 1796 776 1827 776 c 0
 1864 776 1865 797 1865 814 c 2
 1865 1303 l 2
 1865 1306 1597 687 1597 687 c 2
 1597 686 1562 656 1533 656 c 0
 1508 656 1493 677 1482 701 c 0
 1454 764 1213 1306 1213 1303 c 2
 1213 814 l 2
 1213 798 1213 776 1250 776 c 0
 1282 776 1316 768 1316 748 c 0
 1316 708 1309 646 1291 630 c 1
 1257 633 1208 636 1160 636 c 0
 1101 636 1045 633 1003 630 c 1
 980 646 972 708 972 748 c 0
 972 769 1006 776 1037 776 c 0
 1071 776 1075 794 1075 813 c 2
 1075 1320 l 2
 1075 1381 972 1337 972 1388 c 0
 972 1426 979 1488 1003 1503 c 1
EndSplineSet
Validated: 33
EndChar

StartChar: Eth
Encoding: 404 208 148
Width: 1713
Flags: HMW
HStem: -14 21G 1066 345
VStem: 248 582 268 582
LayerCount: 2
Fore
SplineSet
146 1503 m 1xd0
 268 1491 410 1490 514 1490 c 0
 653 1490 772 1503 857 1503 c 0
 1369 1503 1597 1122 1597 747 c 0
 1597 366 1376 -11 887 -11 c 0
 788 -11 687 0 525 0 c 0
 431 0 289 -7 146 -11 c 1
 106 12 93 95 93 152 c 0
 93 187 151 200 205 200 c 0
 262 200 268 230 268 263 c 2
 268 684 l 1
 187 683 121 681 116 679 c 1
 84 679 61 708 61 774 c 0
 61 822 71 849 97 859 c 1
 110 858 186 856 240 856 c 0
 247 856 256 856 268 856 c 1
 268 1229 l 2
 268 1262 262 1292 205 1292 c 0
 161 1292 93 1299 93 1344 c 0
 93 1398 107 1481 146 1503 c 1xd0
499 173 m 1
 887 173 l 2
 1179 173 1337 458 1337 743 c 0
 1337 1028 1171 1322 857 1322 c 2
 499 1322 l 1
 499 857 l 1
 635 857 773 858 777 858 c 0
 831 858 907 860 920 861 c 1
 946 851 956 824 956 776 c 0
 956 710 933 681 901 681 c 1
 889 686 674 687 674 687 c 1
 571 687 l 1
 571 687 542 686 499 686 c 1
 499 173 l 1
EndSplineSet
Validated: 1
EndChar

StartChar: onehalf
Encoding: 405 189 149
Width: 2297
Flags: HMW
HStem: -7 843 425 411 453 23 792 20G
VStem: 160 389
LayerCount: 2
Fore
SplineSet
347 1474 m 2x28
 347 600 l 2
 347 581 348 558 390 558 c 0
 430 558 474 547 474 519 c 0
 474 476 466 418 440 399 c 1
 394 403 330 405 261 405 c 0
 197 405 135 403 89 399 c 1
 56 417 46 476 46 519 c 0
 46 547 90 558 131 558 c 0
 168 558 172 577 172 599 c 2
 172 1295 l 2
 172 1317 168 1337 131 1337 c 0
 90 1337 46 1347 46 1376 c 0
 46 1417 51 1466 64 1495 c 1
 118 1491 165 1489 204 1489 c 0
 250 1489 287 1491 325 1495 c 1
 341 1495 347 1488 347 1474 c 2x28
535 107 m 0
 702 393 1159 1247 1300 1505 c 0
 1326 1553 1370 1573 1409 1573 c 0
 1450 1573 1487 1542 1487 1491 c 0
 1487 1471 1481 1449 1467 1425 c 0
 1315 1155 947 480 700 26 c 0
 672 -26 629 -47 592 -47 c 0
 546 -47 516 -12 516 43 c 0
 516 62 522 84 535 107 c 0
1512 1026 m 1x40
 1581 1061 1703 1087 1837 1087 c 0
 2036 1087 2229 1016 2229 812 c 0x10
 2229 655 2091 506 1696 137 c 1
 1916 137 l 2
 2074 137 2064 225 2103 319 c 1
 2117 330 2132 334 2149 334 c 0
 2195 334 2266 308 2266 308 c 1
 2266 257 2202 52 2184 26 c 1
 2147 -4 2006 -7 1881 -7 c 2
 1528 -7 l 1x80
 1506 10 1479 91 1476 158 c 1
 1623 332 2032 655 2032 812 c 0x10
 2032 904 1954 946 1864 946 c 0
 1688 946 1636 886 1599 700 c 1
 1549 700 1453 719 1453 739 c 0
 1453 780 1494 972 1512 1026 c 1x40
EndSplineSet
Validated: 1
EndChar

StartChar: plusminus
Encoding: 406 177 150
Width: 944
Flags: HMW
HStem: 0 59 828 615 828 647
VStem: 764 647
LayerCount: 2
Fore
SplineSet
721 831 m 0x90
 775 831 851 833 864 834 c 1
 890 824 900 797 900 749 c 0
 900 676 877 644 845 644 c 1
 832 649 578 650 578 650 c 1
 565 650 l 1
 566 576 566 524 566 416 c 0
 566 389 566 379 569 347 c 1
 558 321 531 310 484 310 c 0
 411 310 379 333 379 365 c 1
 384 379 385 632 385 632 c 1
 385 648 l 1
 367 648 l 1
 367 648 113 647 100 642 c 1
 68 642 45 674 45 747 c 0
 45 795 55 822 81 832 c 1
 94 831 170 829 224 829 c 2
 383 829 l 1
 383 843 l 1
 383 843 382 1097 377 1110 c 1
 377 1142 409 1166 482 1166 c 0
 529 1166 556 1155 567 1129 c 1
 566 1116 564 1040 564 986 c 2
 564 830 l 1
 648 831 714 831 721 831 c 0x90
264 170 m 0
 595 175 791 172 824 175 c 1
 850 165 860 138 860 90 c 0
 860 24 837 -5 805 -5 c 1
 794 0 578 1 578 1 c 1
 565 1 l 1
 565 1 153 -2 140 -7 c 1
 108 -7 85 22 85 88 c 0
 85 136 95 163 121 173 c 1
 134 172 210 170 264 170 c 0
EndSplineSet
Validated: 1
EndChar

StartChar: Thorn
Encoding: 407 222 151
Width: 1465
Flags: HMW
HStem: 42 21G 1487 20G
VStem: 231 568 235 565 236 565 1035 630 1036 630
LayerCount: 2
Fore
SplineSet
268 263 m 2xc0
 268 1227 l 2
 268 1260 262 1290 205 1290 c 0
 151 1290 93 1303 93 1338 c 0
 93 1395 106 1475 146 1498 c 1
 210 1493 296 1490 385 1490 c 0
 479 1490 567 1493 632 1498 c 1
 665 1475 675 1395 675 1338 c 0
 675 1303 617 1290 563 1290 c 0
 506 1290 499 1262 499 1234 c 2
 499 1210 l 1
 915 1210 l 2
 1236 1210 1395 1008 1395 811 c 0
 1395 612 1231 414 915 414 c 2
 499 414 l 1
 499 265 l 2
 499 235 500 200 563 200 c 0
 617 200 675 187 675 152 c 0
 675 95 665 15 632 -8 c 1
 567 -3 479 0 385 0 c 0
 296 0 210 -3 146 -8 c 1
 106 15 93 95 93 152 c 0
 93 187 151 200 205 200 c 0
 262 200 268 230 268 263 c 2xc0
499 583 m 1
 915 583 l 2
 1077 583 1164 693 1164 804 c 0
 1164 922 1082 1042 915 1042 c 2
 499 1042 l 1
 499 583 l 1
EndSplineSet
Validated: 1
EndChar

StartChar: onequarter
Encoding: 408 188 152
Width: 2073
Flags: HMW
HStem: 27 16 46 15 356 262 369 258 453 23 1093 14
VStem: 160 389 1164 418 1653 433
LayerCount: 2
Fore
SplineSet
347 1474 m 2x0a
 347 600 l 2
 347 581 348 558 390 558 c 0
 430 558 474 547 474 519 c 0
 474 476 466 418 440 399 c 1
 394 403 330 405 261 405 c 0
 197 405 135 403 89 399 c 1
 56 417 46 476 46 519 c 0
 46 547 90 558 131 558 c 0
 168 558 172 577 172 599 c 2
 172 1295 l 2
 172 1317 168 1337 131 1337 c 0
 90 1337 46 1347 46 1376 c 0
 46 1417 51 1466 64 1495 c 1
 118 1491 165 1489 204 1489 c 0
 250 1489 287 1491 325 1495 c 1
 341 1495 347 1488 347 1474 c 2x0a
505 107 m 0
 672 393 1129 1247 1270 1505 c 0
 1296 1553 1340 1573 1379 1573 c 0
 1420 1573 1457 1542 1457 1491 c 0
 1457 1471 1451 1449 1437 1425 c 0
 1285 1155 917 480 670 26 c 0
 642 -26 599 -47 562 -47 c 0
 516 -47 486 -12 486 43 c 0
 486 62 492 84 505 107 c 0
1660 470 m 1xd580
 1661 502 1661 549 1661 603 c 2
 1661 776 l 2
 1661 855 1661 921 1662 958 c 1
 1628 905 1593 847 1555 790 c 1
 1507 726 1422 586 1374 506 c 0
 1369 497 1365 488 1365 484 c 0
 1365 469 1439 468 1544 468 c 0
 1580 468 1625 468 1660 470 c 1xd580
1661 194 m 2
 1661 336 l 1
 1441 336 l 2
 1370 336 1297 336 1264 353 c 1
 1218 392 1199 494 1199 511 c 0
 1199 522 1202 533 1208 546 c 1
 1329 744 1462 922 1569 1062 c 0
 1591 1090 1639 1094 1692 1094 c 0
 1713 1094 1734 1093 1765 1093 c 0
 1804 1093 1833 1080 1833 1041 c 0
 1833 936 1831 820 1831 699 c 2
 1831 480 l 2
 1831 476 1831 473 1837 473 c 0
 1900 473 1951 474 1986 474 c 0
 2030 474 2044 462 2048 440 c 1
 2047 403 2039 381 2022 356 c 1xe580
 2011 336 1974 336 1889 336 c 2
 1831 336 l 1
 1831 196 l 2
 1831 174 1831 148 1878 148 c 0
 1917 148 1960 138 1960 113 c 0
 1960 71 1952 12 1928 -5 c 1
 1881 -1 1816 1 1747 1 c 0
 1681 1 1618 -1 1571 -5 c 1
 1542 12 1532 71 1532 113 c 0
 1532 138 1575 148 1615 148 c 0
 1657 148 1661 170 1661 194 c 2
EndSplineSet
Validated: 1
EndChar

StartChar: divide
Encoding: 409 247 153
Width: 1064
Flags: HMW
HStem: 65 346<467.5 600.5> 527 171<242 873> 805 346<467.5 600.5>
VStem: 42 983<583 638>
LayerCount: 2
Fore
SplineSet
221 697 m 1
 273 698 839 698 846 698 c 0
 900 698 976 700 989 701 c 1
 1015 691 1025 664 1025 616 c 0
 1025 550 1002 521 970 521 c 1
 958 526 743 527 743 527 c 1
 242 527 l 1
 242 527 104 523 97 519 c 1
 65 519 42 548 42 614 c 0
 42 662 52 689 78 699 c 1
 91 698 167 697 221 697 c 1
342 238 m 0
 342 326 401 411 534 411 c 0
 667 411 720 323 720 238 c 0
 720 153 667 65 534 65 c 0
 401 65 342 149 342 238 c 0
342 978 m 0
 342 1067 401 1151 534 1151 c 0
 667 1151 720 1063 720 978 c 0
 720 893 667 805 534 805 c 0
 401 805 342 890 342 978 c 0
EndSplineSet
Validated: 1
EndChar

StartChar: brokenbar
Encoding: 410 166 154
Width: 408
Flags: HMW
HStem: 0 21 857 597 857 630
VStem: 544 630
LayerCount: 2
Fore
SplineSet
88 932 m 2xb0
 88 1568 l 2
 88 1623 128 1636 223 1636 c 0
 289 1636 319 1631 319 1585 c 2
 319 954 l 2
 319 861 265 857 203 857 c 0
 150 857 88 859 88 932 c 2xb0
88 -84 m 2
 88 552 l 2
 88 607 128 620 223 620 c 0
 289 620 319 615 319 569 c 2
 319 -62 l 2
 319 -155 265 -159 203 -159 c 0
 150 -159 88 -157 88 -84 c 2
EndSplineSet
Validated: 1
EndChar

StartChar: degree
Encoding: 411 176 155
Width: 742
Flags: HMW
HStem: 916 0<365 365> 1448 68
LayerCount: 2
Fore
SplineSet
365 916 m 0
 151 916 44 1065 44 1214 c 0
 44 1363 151 1513 365 1513 c 0
 580 1513 689 1363 689 1214 c 0
 689 1065 581 916 365 916 c 0
558 1214 m 0
 558 1347 460 1412 365 1412 c 0
 268 1412 175 1345 175 1214 c 0
 175 1082 269 1017 365 1017 c 0
 461 1017 558 1083 558 1214 c 0
EndSplineSet
Validated: 1
EndChar

StartChar: thorn
Encoding: 412 254 156
Width: 1391
Flags: HMW
HStem: 227 21G 1245 244
VStem: 79 636 177 484 661 178
LayerCount: 2
Fore
SplineSet
462 91 m 1xc0
 462 -155 l 2
 462 -185 463 -220 526 -220 c 0
 570 -220 618 -233 618 -268 c 0
 618 -322 610 -392 585 -414 c 1
 536 -403 448 -399 359 -399 c 0
 262 -399 163 -404 113 -414 c 1
 88 -391 80 -322 80 -268 c 0
 80 -233 128 -220 172 -220 c 0
 229 -220 235 -190 235 -157 c 2
 235 1209 l 2
 235 1279 205 1304 87 1310 c 1
 69 1314 67 1323 67 1366 c 0
 67 1440 88 1494 100 1501 c 1
 156 1493 205 1490 249 1490 c 0
 330 1490 385 1501 406 1501 c 0
 452 1501 462 1488 462 1403 c 2
 462 922 l 1
 541 1038 689 1095 819 1095 c 0
 1069 1095 1320 908 1320 535 c 0
 1320 162 1066 -27 812 -27 c 0
 665 -27 551 15 462 91 c 1xc0
462 584 m 2
 462 293 l 1
 534 195 662 142 782 142 c 0
 939 142 1085 263 1085 535 c 0
 1085 795 927 925 768 925 c 0
 621 925 462 811 462 584 c 2
EndSplineSet
Validated: 1
EndChar

StartChar: threequarters
Encoding: 413 190 157
Width: 2462
Flags: HMW
HStem: 26 16 45 15 355 262 368 258 908 196 1092 14 1221 151 1386 36
VStem: 1553 418 2042 433
LayerCount: 2
Fore
SplineSet
445 546 m 0xdbc0
 556 546 692 607 692 743 c 0
 692 914 532 930 370 930 c 0
 331 930 291 927 248 926 c 1
 240 926 l 1
 233 929 228 945 228 993 c 0
 228 1027 236 1054 248 1066 c 1
 265 1065 357 1065 377 1065 c 0
 537 1065 610 1156 610 1243 c 0
 610 1319 546 1394 428 1394 c 0
 316 1394 195 1347 164 1182 c 1
 162 1178 154 1176 147 1176 c 0
 116 1176 39 1193 39 1202 c 0
 49 1303 66 1374 83 1429 c 2
 94 1465 l 1
 217 1496 326 1508 427 1508 c 0
 696 1508 797 1373 797 1245 c 0
 797 1144 721 1047 611 1011 c 1
 774 984 884 876 884 751 c 0
 884 528 702 421 468 421 c 0
 358 421 242 431 113 453 c 1
 109 465 l 1
 109 473 105 482 101 492 c 0
 85 546 68 610 58 707 c 0
 58 716 135 733 165 733 c 0
 175 733 182 733 183 727 c 0
 214 602 329 546 445 546 c 0xdbc0
835 107 m 0
 1002 393 1459 1247 1600 1505 c 0
 1626 1553 1670 1573 1709 1573 c 0
 1750 1573 1787 1542 1787 1491 c 0
 1787 1471 1781 1449 1767 1425 c 0
 1615 1155 1247 480 1000 26 c 0
 972 -26 929 -47 892 -47 c 0
 846 -47 816 -12 816 43 c 0
 816 62 822 84 835 107 c 0
2049 469 m 1
 2050 501 2050 548 2050 602 c 2
 2050 775 l 2
 2050 854 2050 920 2051 957 c 1
 2017 904 1982 846 1944 789 c 1
 1896 725 1811 585 1763 505 c 0
 1758 496 1754 487 1754 483 c 0
 1754 468 1828 467 1933 467 c 0
 1969 467 2014 467 2049 469 c 1
2050 193 m 2
 2050 335 l 1
 1830 335 l 2
 1759 335 1686 335 1653 352 c 1
 1607 391 1588 493 1588 510 c 0
 1588 521 1591 532 1597 545 c 1
 1718 743 1851 921 1958 1061 c 0
 1980 1089 2028 1093 2081 1093 c 0
 2102 1093 2123 1092 2154 1092 c 0xd7c0
 2193 1092 2222 1079 2222 1040 c 0
 2222 935 2220 819 2220 698 c 2
 2220 479 l 2
 2220 475 2220 472 2226 472 c 0
 2289 472 2340 473 2375 473 c 0
 2419 473 2433 461 2437 439 c 1
 2436 402 2428 380 2411 355 c 1xebc0
 2400 335 2363 335 2278 335 c 2
 2220 335 l 1
 2220 195 l 2
 2220 173 2220 147 2267 147 c 0
 2306 147 2349 137 2349 112 c 0
 2349 70 2341 11 2317 -6 c 1
 2270 -2 2205 0 2136 0 c 0
 2070 0 2007 -2 1960 -6 c 1
 1931 11 1921 70 1921 112 c 0
 1921 137 1964 147 2004 147 c 0
 2046 147 2050 169 2050 193 c 2
EndSplineSet
Validated: 1
EndChar

StartChar: twosuperior
Encoding: 414 178 158
Width: 899
Flags: HMW
HStem: 409 843 841 411 1208 20G
LayerCount: 2
Fore
SplineSet
102 1442 m 1x40
 171 1477 293 1503 427 1503 c 0
 626 1503 819 1432 819 1228 c 0x20
 819 1071 681 922 286 553 c 1
 506 553 l 2
 664 553 654 641 693 735 c 1
 707 746 722 750 739 750 c 0
 785 750 856 724 856 724 c 1
 856 673 792 468 774 442 c 1
 737 412 596 409 471 409 c 2
 118 409 l 1x80
 96 426 69 507 66 574 c 1
 213 748 622 1071 622 1228 c 0x20
 622 1320 544 1362 454 1362 c 0
 278 1362 226 1302 189 1116 c 1
 139 1116 43 1135 43 1155 c 0
 43 1196 84 1388 102 1442 c 1x40
EndSplineSet
Validated: 1
EndChar

StartChar: registered
Encoding: 415 174 159
Width: 1690
Flags: HMW
HStem: -29 228 398 11 1283 232
VStem: 826 423 919 319
LayerCount: 2
Fore
SplineSet
852 -27 m 0xe0
 432 -27 49 252 49 748 c 0
 49 1228 391 1516 859 1516 c 0
 1329 1516 1641 1190 1641 758 c 0
 1641 302 1289 -27 852 -27 c 0xe0
853 111 m 0
 1198 111 1477 382 1477 758 c 0
 1477 1115 1231 1382 859 1382 c 0
 489 1382 218 1145 218 750 c 0
 218 342 521 111 853 111 c 0
683 356 m 5
 521 356 l 5
 521 1169 l 5
 521 1169 746 1178 867 1178 c 0
 982 1178 1191 1174 1191 963 c 0
 1191 860 1148 799 1062 774 c 1
 1260 730 1212 604 1217 356 c 1
 1065 356 l 1
 1065 531 l 2
 1065 689 1047 722 909 722 c 2
 683 722 l 5
 683 356 l 5
680 1065 m 5
 680 816 l 5
 680 816 816 814 906 814 c 0
 1002 814 1050 838 1050 949 c 0
 1050 1010 1025 1068 918 1068 c 0
 700 1068 680 1065 680 1065 c 5
EndSplineSet
Validated: 33
EndChar

StartChar: eth
Encoding: 416 240 160
Width: 1698
Flags: HMW
HStem: -29 411 1492 20G<608 987.5>
LayerCount: 2
Fore
SplineSet
880 1012 m 0
 1068 1087 1265 1158 1442 1230 c 0
 1462 1238 1470 1254 1470 1274 c 0
 1470 1293 1458 1320 1446 1344 c 0
 1437 1364 1427 1370 1412 1370 c 0
 1399 1370 1381 1365 1362 1358 c 0
 1240 1309 996 1213 816 1142 c 0
 804 1130 800 1110 800 1089 c 0
 800 1057 827 1007 856 1007 c 0
 864 1007 871 1008 880 1012 c 0
492 1052 m 0
 577 1299 613 1357 812 1357 c 0
 979 1357 1133 1163 1133 857 c 2
 1133 812 l 1
 1019 866 899 887 802 887 c 0
 412 887 253 665 253 440 c 0
 253 208 414 -27 784 -27 c 0
 1206 -27 1380 277 1380 745 c 0
 1380 1281 1142 1512 792 1512 c 0
 673 1512 544 1492 407 1455 c 1
 376 1332 346 1227 313 1088 c 1
 313 1074 425 1048 473 1048 c 0
 484 1048 491 1049 492 1052 c 0
786 124 m 0
 586 124 490 271 490 421 c 0
 490 570 591 722 789 722 c 0
 958 722 1075 686 1133 641 c 1
 1133 242 952 124 786 124 c 0
EndSplineSet
Validated: 5
EndChar

StartChar: multiply
Encoding: 417 215 161
Width: 1247
Flags: HMW
HStem: 0 96 800 632 800 663
VStem: 767 663
LayerCount: 2
Fore
SplineSet
343 991 m 2x90
 623 711 l 1
 898 987 l 2
 921 1010 940 1020 959 1020 c 0
 985 1020 1069 970 1069 909 c 0
 1069 892 1062 874 1042 854 c 2
 762 572 l 1
 1043 293 l 2
 1062 274 1069 255 1069 239 c 0
 1069 174 978 126 961 126 c 0
 940 126 919 141 889 171 c 0
 796 264 709 351 624 434 c 1
 344 154 l 2
 325 135 306 128 290 128 c 0
 225 128 177 218 177 236 c 0
 177 257 192 278 222 308 c 2
 485 572 l 1
 210 847 l 2
 187 870 177 889 177 908 c 0
 177 934 227 1018 288 1018 c 0
 305 1018 323 1011 343 991 c 2x90
EndSplineSet
Validated: 1
EndChar

StartChar: threesuperior
Encoding: 418 179 162
Width: 936
Flags: HMW
HStem: 908 196 952 150 1221 151 1290 102 1336 36 1386 36
LayerCount: 2
Fore
SplineSet
452 546 m 0x00
 563 546 699 607 699 743 c 0
 699 914 539 930 377 930 c 0
 338 930 298 927 255 926 c 1
 247 926 l 1
 240 929 235 945 235 993 c 0
 235 1027 243 1054 255 1066 c 1
 272 1065 364 1065 384 1065 c 0
 544 1065 617 1156 617 1243 c 0
 617 1319 553 1394 435 1394 c 0
 323 1394 202 1347 171 1182 c 1
 169 1178 161 1176 154 1176 c 0
 123 1176 46 1193 46 1202 c 0
 56 1303 73 1374 90 1429 c 2
 101 1465 l 1
 224 1496 333 1508 434 1508 c 0
 703 1508 804 1373 804 1245 c 0
 804 1144 728 1047 618 1011 c 1
 781 984 891 876 891 751 c 0
 891 528 709 421 475 421 c 0
 365 421 249 431 120 453 c 1
 116 465 l 1
 116 473 112 482 108 492 c 0
 92 546 75 610 65 707 c 0
 65 716 142 733 172 733 c 0
 182 733 189 733 190 727 c 0
 221 602 336 546 452 546 c 0x00
EndSplineSet
Validated: 1
EndChar

StartChar: copyright
Encoding: 419 169 163
Width: 1690
Flags: HMW
HStem: -29 228 398 11 1283 232
VStem: 826 423 919 319
LayerCount: 2
Fore
SplineSet
852 -27 m 0xe0
 432 -27 49 252 49 748 c 0
 49 1228 391 1516 859 1516 c 0
 1329 1516 1641 1190 1641 758 c 0
 1641 302 1289 -27 852 -27 c 0xe0
853 111 m 0
 1198 111 1477 382 1477 758 c 0
 1477 1115 1231 1382 859 1382 c 0
 489 1382 218 1145 218 750 c 0
 218 342 521 111 853 111 c 0
875 322 m 0
 563 322 417 543 417 761 c 0
 417 973 557 1182 839 1182 c 0
 917 1182 999 1155 1042 1071 c 1
 1042 1071 1039 1129 1038 1149 c 1
 1038 1171 1046 1175 1092 1175 c 0
 1152 1175 1170 1171 1178 1105 c 0
 1187 1047 1198 987 1198 957 c 0
 1198 905 1186 903 1138 899 c 0
 1097 897 1096 897 1093 897 c 0
 1073 897 1064 910 1053 927 c 0
 996 1008 916 1049 842 1049 c 0
 718 1049 608 958 608 776 c 0
 608 586 705 467 883 467 c 0
 986 467 1099 513 1202 607 c 1
 1216 581 1223 555 1223 528 c 0
 1223 471 1102 322 875 322 c 0
EndSplineSet
Validated: 1
EndChar

StartChar: foursuperior
Encoding: 478 8308 222
Width: 1124
Flags: HMW
HStem: 422 16 441 15 751 262 764 258 1488 14
VStem: 121 418 610 433
LayerCount: 2
Fore
SplineSet
617 865 m 1xde
 618 897 618 944 618 998 c 2
 618 1171 l 2
 618 1250 618 1316 619 1353 c 1
 585 1300 550 1242 512 1185 c 1
 464 1121 379 981 331 901 c 0
 326 892 322 883 322 879 c 0
 322 864 396 863 501 863 c 0
 537 863 582 863 617 865 c 1xde
618 589 m 2
 618 731 l 1
 398 731 l 2
 327 731 254 731 221 748 c 1
 175 787 156 889 156 906 c 0
 156 917 159 928 165 941 c 1
 286 1139 419 1317 526 1457 c 0
 548 1485 596 1489 649 1489 c 0
 670 1489 691 1488 722 1488 c 0
 761 1488 790 1475 790 1436 c 0
 790 1331 788 1215 788 1094 c 2
 788 875 l 2
 788 871 788 868 794 868 c 0
 857 868 908 869 943 869 c 0
 987 869 1001 857 1005 835 c 1
 1004 798 996 776 979 751 c 1xee
 968 731 931 731 846 731 c 2
 788 731 l 1
 788 591 l 2
 788 569 788 543 835 543 c 0
 874 543 917 533 917 508 c 0
 917 466 909 407 885 390 c 1
 838 394 773 396 704 396 c 0
 638 396 575 394 528 390 c 1
 499 407 489 466 489 508 c 0
 489 533 532 543 572 543 c 0
 614 543 618 565 618 589 c 2
EndSplineSet
Validated: 1
EndChar

StartChar: kgreenlandic
Encoding: 480 312 223
Width: 1362
Flags: HMW
VStem: 0 21
LayerCount: 2
Fore
SplineSet
481 927 m 2
 481 629 l 1
 818 861 822 862 824 864 c 0
 868 891 871 893 871 902 c 0
 871 920 787 886 787 970 c 0
 787 1012 792 1056 814 1080 c 1
 848 1073 939 1067 1036 1067 c 0
 1111 1067 1190 1071 1249 1080 c 1
 1275 1069 1281 1020 1281 960 c 0
 1281 834 1213 938 1019 801 c 2
 771 626 l 1
 838 563 997 355 1056 275 c 0
 1110 202 1103 186 1187 186 c 0
 1252 186 1312 178 1312 138 c 0
 1312 84 1303 14 1279 -8 c 1
 1209 -2 1134 0 1064 0 c 0
 979 0 900 -4 834 -8 c 1
 822 51 808 103 808 137 c 0
 808 161 832 176 894 182 c 1
 861 234 757 363 623 537 c 1
 481 439 l 1
 481 251 l 2
 481 221 482 186 545 186 c 0
 589 186 637 173 637 138 c 0
 637 84 629 14 604 -8 c 1
 545 -3 457 0 370 0 c 0
 278 0 187 -3 132 -8 c 1
 107 15 99 84 99 138 c 0
 99 173 147 186 191 186 c 0
 248 186 254 216 254 249 c 2
 254 788 l 2
 254 858 224 883 106 889 c 1
 88 893 86 902 86 945 c 0
 86 1019 107 1073 119 1080 c 1
 179 1072 231 1067 278 1067 c 0
 354 1067 406 1080 426 1080 c 0
 472 1080 482 1067 482 982 c 0
 482 966 481 948 481 927 c 2
EndSplineSet
Validated: 1
EndChar

StartChar: uni030F
Encoding: 487 783 230
Width: 1334
Flags: HMW
HStem: 1149 476<703 723 246 612>
VStem: 153 1027<1149 1585>
LayerCount: 2
Fore
SplineSet
1180 1149 m 1
 1069 1149 l 1
 953 1238 766 1401 728 1438 c 0
 664 1501 610 1534 610 1564 c 0
 610 1606 649 1625 757 1625 c 0
 852 1625 884 1602 928 1532 c 0
 978 1453 1123 1233 1180 1149 c 1
723 1149 m 1
 612 1149 l 1
 496 1238 309 1401 271 1438 c 0
 207 1501 153 1534 153 1564 c 0
 153 1606 192 1625 300 1625 c 0
 395 1625 427 1602 471 1532 c 0
 521 1453 666 1233 723 1149 c 1
EndSplineSet
Validated: 1
EndChar

StartChar: uni0326
Encoding: 490 806 233
Width: 597
Flags: HMW
HStem: -110 20G
VStem: 76 495
LayerCount: 2
Fore
SplineSet
207 -588 m 0
 207 -558 296 -488 296 -469 c 0
 296 -416 119 -443 119 -284 c 0
 119 -182 196 -112 307 -112 c 0
 414 -112 498 -192 498 -293 c 0
 498 -444 380 -619 255 -619 c 0
 225 -619 207 -607 207 -588 c 0
EndSplineSet
Validated: 1
EndChar

StartChar: dotlessj
Encoding: 494 567 237
Width: 752
Flags: HMW
HStem: 1171 319
VStem: 139 555 439 7
LayerCount: 2
Fore
SplineSet
559 980 m 2x80
 559 154 l 2
 559 -92 515 -338 251 -338 c 0
 128 -338 -61 -290 -61 -131 c 0
 -61 -74 -4 -41 52 -41 c 0
 183 -41 115 -157 234 -157 c 0
 322 -157 332 -58 332 75 c 2
 332 786 l 2
 332 856 302 881 184 887 c 1
 166 891 164 900 164 943 c 0
 164 1017 185 1071 197 1078 c 1
 253 1070 302 1067 346 1067 c 0
 427 1067 482 1078 503 1078 c 0
 549 1078 559 1065 559 980 c 2x80
EndSplineSet
Validated: 1
EndChar

StartChar: dotaccentcmb
Encoding: 495 775 238
Width: 590
Flags: HMW
HStem: 1200 326<231 356.5>
VStem: 113 356<1323 1403.5 1323 1405>
LayerCount: 2
Fore
SplineSet
113 1363 m 0
 113 1447 168 1526 294 1526 c 0
 419 1526 469 1444 469 1363 c 0
 469 1283 419 1200 294 1200 c 0
 168 1200 113 1280 113 1363 c 0
EndSplineSet
Validated: 1
EndChar

StartChar: commaaccent
Encoding: 517 -1 260
Width: 597
Flags: HMW
HStem: -108 20G
VStem: 66 495
LayerCount: 2
Fore
SplineSet
197 -588 m 0
 197 -558 286 -488 286 -469 c 0
 286 -416 109 -443 109 -284 c 0
 109 -182 186 -112 297 -112 c 0
 404 -112 488 -192 488 -293 c 0
 488 -444 370 -619 245 -619 c 0
 215 -619 197 -607 197 -588 c 0
EndSplineSet
Validated: 1
EndChar

StartChar: gcedilla
Encoding: 522 291 263
Width: 1260
Flags: HMW
HStem: 1675 20G
VStem: 393 495
LayerCount: 2
Fore
SplineSet
1197 -130 m 0
 1197 -434 943 -494 629 -494 c 0
 389 -494 176 -436 176 -338 c 0
 176 -239 201 -136 258 -8 c 1
 185 17 143 64 143 154 c 0
 143 249 222 337 289 392 c 1
 172 468 120 576 120 681 c 0
 120 889 317 1095 608 1095 c 0
 729 1095 802 1076 878 1031 c 1
 905 1057 981 1167 1128 1167 c 0
 1231 1167 1239 1148 1239 1095 c 2
 1239 1078 l 2
 1239 970 1220 968 1030 968 c 0
 1012 968 990 970 969 970 c 1
 1058 909 1117 795 1117 667 c 0
 1117 465 949 294 638 294 c 0
 525 294 442 325 415 330 c 1
 393 286 382 231 382 199 c 0
 382 44 1197 301 1197 -130 c 0
627 464 m 0
 843 464 910 574 910 686 c 0
 910 805 826 927 624 927 c 0
 420 927 336 809 336 687 c 0
 336 577 410 464 627 464 c 0
512 -43 m 1
 512 -43 404 -36 361 -25 c 1
 361 -154 361 -274 452 -289 c 1
 540 -305 618 -312 681 -312 c 0
 912 -312 960 -246 960 -155 c 0
 960 -68 839 -43 707 -43 c 2
 512 -43 l 1
524 1195 m 0
 524 1225 613 1295 613 1314 c 0
 613 1367 436 1340 436 1499 c 0
 436 1601 513 1671 624 1671 c 0
 731 1671 815 1591 815 1490 c 0
 815 1339 697 1164 572 1164 c 0
 542 1164 524 1176 524 1195 c 0
EndSplineSet
Validated: 1
EndChar

StartChar: Hbar
Encoding: 528 294 269
Width: 1891
Flags: HMW
HStem: 692 226 1064 21G 1066 345 1478 20G
VStem: 230 590 1208 603
LayerCount: 2
Fore
SplineSet
179 -11 m 1x9c
 139 12 126 95 126 152 c 0
 126 187 184 200 238 200 c 0
 295 200 301 230 301 263 c 2
 301 1229 l 2
 301 1262 295 1292 238 1292 c 0
 194 1292 126 1299 126 1344 c 0
 126 1398 140 1481 179 1503 c 1
 243 1498 329 1490 418 1490 c 0
 512 1490 600 1497 665 1502 c 1
 698 1479 708 1395 708 1338 c 0
 708 1303 650 1290 596 1290 c 0
 533 1290 532 1255 532 1225 c 2
 532 1124 l 1
 1358 1124 l 1
 1358 1227 l 2
 1358 1260 1352 1290 1295 1290 c 0
 1241 1290 1183 1303 1183 1338 c 0
 1183 1395 1196 1479 1236 1502 c 1
 1300 1497 1386 1490 1475 1490 c 0
 1569 1490 1657 1497 1722 1502 c 1
 1755 1479 1765 1395 1765 1338 c 0
 1765 1303 1707 1290 1653 1290 c 0
 1590 1290 1589 1255 1589 1225 c 2
 1589 265 l 2
 1589 235 1590 200 1653 200 c 0
 1707 200 1765 187 1765 152 c 0
 1765 95 1755 12 1722 -11 c 1
 1657 -6 1569 0 1475 0 c 0
 1386 0 1300 -6 1236 -11 c 1
 1196 12 1183 95 1183 152 c 0
 1183 187 1241 200 1295 200 c 0
 1352 200 1358 230 1358 263 c 2
 1358 686 l 2
 1358 696 1358 707 1339 707 c 2
 551 707 l 2
 532 707 532 696 532 686 c 2
 532 265 l 2
 532 235 533 200 596 200 c 0
 650 200 708 187 708 152 c 0
 708 95 698 12 665 -11 c 1
 600 -6 512 0 418 0 c 0
 329 0 243 -6 179 -11 c 1x9c
532 1003 m 1
 532 884 l 2
 532 874 532 863 551 863 c 2
 1339 863 l 2
 1358 863 1358 874 1358 884 c 2
 1358 1003 l 1
 532 1003 l 1
EndSplineSet
Validated: 1
EndChar

StartChar: ij
Encoding: 535 307 276
Width: 1318
Flags: HMW
HStem: 227 21G 1171 319 1245 244<270 322 1244 1296>
VStem: 50 636 1014 555 1314 7
LayerCount: 2
Fore
SplineSet
560 1067 m 1x90
 424 1067 271 1070 98 1078 c 1
 86 1071 66 1017 66 943 c 0
 66 900 68 891 86 887 c 1
 204 881 234 856 234 786 c 2
 234 249 l 2
 234 216 227 186 170 186 c 0
 126 186 78 173 78 138 c 0
 78 84 87 15 112 -8 c 1
 185 -3 277 0 364 0 c 0
 448 0 528 -3 584 -8 c 1
 609 14 616 84 616 138 c 0
 616 173 568 186 524 186 c 0
 461 186 460 221 460 251 c 2
 460 887 l 1
 938 887 l 5
 972 884 981 872 981 838 c 6
 981 75 l 6
 981 -58 974 -157 914 -157 c 0
 821 -157 874 -91 772 -91 c 0
 716 -91 659 -124 659 -181 c 0
 659 -302 824 -338 931 -338 c 0
 1168 -338 1208 -92 1208 154 c 6
 1208 980 l 6
 1208 1065 1198 1078 1152 1078 c 4
 1133 1078 1086 1067 1015 1067 c 4
 880 1067 733 1067 560 1067 c 1x90
1073 1245 m 4xb0
 1022 1245 903 1262 903 1366 c 4
 903 1447 959 1489 1069 1489 c 4
 1201 1489 1224 1415 1224 1365 c 4
 1224 1267 1126 1245 1073 1245 c 4xb0
296 1245 m 0
 245 1245 126 1262 126 1366 c 0
 126 1447 182 1489 292 1489 c 0
 424 1489 446 1415 446 1365 c 0
 446 1267 349 1245 296 1245 c 0
EndSplineSet
Validated: 9
EndChar

StartChar: IJ
Encoding: 536 306 277
Width: 1643
Flags: HMW
HStem: 1171 319 1487 20G
VStem: 208 568 1138 555
LayerCount: 2
Fore
SplineSet
122 1503 m 1x70
 186 1498 273 1490 362 1490 c 0xb0
 456 1490 543 1498 608 1503 c 1
 641 1480 652 1395 652 1338 c 0
 652 1303 594 1290 540 1290 c 0
 477 1290 476 1255 476 1225 c 2
 476 265 l 2
 476 235 477 200 540 200 c 0
 594 200 652 187 652 152 c 0
 652 95 641 12 608 -11 c 1
 543 -6 456 0 362 0 c 0
 273 0 186 -6 122 -11 c 1
 82 12 70 95 70 152 c 0
 70 187 128 200 182 200 c 0
 239 200 244 230 244 263 c 2
 244 1229 l 2
 244 1262 239 1292 182 1292 c 0
 138 1292 70 1299 70 1344 c 0
 70 1398 83 1481 122 1503 c 1x70
1168 351 m 6
 1167 1227 l 6
 1167 1260 1161 1290 1104 1290 c 4
 1050 1290 992 1303 992 1338 c 4
 992 1395 1005 1475 1045 1498 c 5
 1109 1493 1195 1490 1284 1490 c 4
 1378 1490 1466 1493 1531 1498 c 5
 1564 1475 1574 1395 1574 1338 c 4
 1574 1303 1516 1290 1462 1290 c 4
 1399 1290 1398 1255 1398 1225 c 6
 1398 375 l 6
 1398 145 1350 -85 1062 -85 c 4
 940 -85 753 -41 753 104 c 4
 753 164 813 199 872 199 c 4
 1004 199 936 106 1054 106 c 4
 1156 106 1168 211 1168 351 c 6
EndSplineSet
Validated: 1
EndChar

StartChar: hbar
Encoding: 537 295 278
Width: 1367
Flags: HMW
VStem: -142 506
LayerCount: 2
Fore
SplineSet
469 1248 m 1
 758 1248 l 2
 791 1248 806 1237 806 1193 c 0
 806 1164 799 1127 759 1127 c 2
 469 1127 l 1
 469 925 l 1
 555 1016 691 1096 851 1096 c 0
 1016 1096 1168 991 1168 685 c 2
 1168 278 l 2
 1168 198 1194 181 1218 179 c 0
 1288 172 1353 172 1353 131 c 0
 1353 77 1343 14 1310 -8 c 1
 1236 -1 1184 0 1144 0 c 0
 1067 0 1032 -8 975 -8 c 0
 957 -8 941 -3 941 61 c 2
 941 667 l 2
 941 851 869 918 779 918 c 0
 682 918 561 851 469 768 c 1
 469 251 l 2
 469 221 470 186 533 186 c 0
 577 186 625 173 625 138 c 0
 625 84 617 14 592 -8 c 1
 533 -3 448 0 361 0 c 0
 271 0 180 -3 120 -8 c 1
 95 15 87 84 87 138 c 0
 87 173 135 186 179 186 c 0
 236 186 242 216 242 249 c 2
 242 1127 l 1
 93 1127 l 2
 61 1127 55 1156 55 1181 c 0
 55 1219 66 1248 101 1248 c 2
 237 1248 l 1
 225 1289 187 1305 94 1310 c 1
 76 1314 74 1323 74 1366 c 0
 74 1440 95 1494 107 1501 c 1
 167 1493 219 1490 266 1490 c 0
 342 1490 394 1501 414 1501 c 0
 460 1501 470 1488 470 1403 c 0
 470 1387 469 1369 469 1348 c 2
 469 1248 l 1
EndSplineSet
Validated: 1
EndChar

StartChar: uni0311
Encoding: 538 785 279
Width: 1104
Flags: HMW
HStem: 1379 136<521 583>
VStem: 676 194<1234 1282.5>
LayerCount: 2
Fore
SplineSet
554 1515 m 0
 723 1515 854 1417 870 1234 c 1
 676 1234 l 1
 676 1331 614 1379 552 1379 c 0
 490 1379 428 1331 428 1234 c 1
 234 1234 l 1
 250 1417 380 1515 554 1515 c 0
EndSplineSet
Validated: 1
EndChar

StartChar: Euro
Encoding: 551 8364 291
Width: 1503
Flags: HMW
HStem: -29 228 1283 232
LayerCount: 2
Fore
SplineSet
642 833 m 1
 441 832 l 1
 437 801 436 769 436 738 c 0
 436 722 437 706 438 690 c 1
 701 690 l 2
 745 690 806 693 817 694 c 1
 838 685 846 664 846 625 c 0
 846 571 827 548 801 548 c 1
 795 551 716 552 663 552 c 0
 637 552 617 551 617 551 c 1
 464 551 l 1
 528 349 698 183 970 183 c 0
 1110 183 1263 228 1400 330 c 1
 1427 294 1439 260 1439 228 c 0
 1439 76 1168 -27 943 -27 c 0
 518 -27 280 241 213 551 c 1
 127 551 l 2
 94 551 53 548 50 546 c 1
 24 546 5 570 5 623 c 0
 5 662 13 684 34 692 c 1
 41 691 66 690 94 690 c 2
 195 690 l 1
 195 704 194 719 194 734 c 0
 194 767 195 799 199 831 c 1
 116 831 l 2
 89 831 60 828 58 827 c 1
 32 827 13 850 13 904 c 0
 13 943 21 964 42 973 c 1
 50 972 83 972 117 972 c 2
 225 972 l 1
 309 1281 556 1512 896 1512 c 0
 1106 1512 1362 1417 1362 1277 c 0
 1362 1245 1350 1210 1323 1175 c 1
 1195 1277 1044 1325 913 1325 c 0
 681 1325 535 1168 472 972 c 1
 725 972 l 2
 769 972 831 973 841 974 c 1
 862 966 870 944 870 905 c 0
 870 852 852 828 826 828 c 1
 816 832 642 833 642 833 c 1
EndSplineSet
Validated: 1
EndChar

StartChar: uni0110
Encoding: 558 272 298
Width: 1713
Flags: HMW
HStem: -14 21G 1066 345
VStem: 248 582 268 582
LayerCount: 2
Fore
SplineSet
146 1503 m 1xd0
 268 1491 410 1490 514 1490 c 0
 653 1490 772 1503 857 1503 c 0
 1369 1503 1597 1122 1597 747 c 0
 1597 366 1376 -11 887 -11 c 0
 788 -11 687 0 525 0 c 0
 431 0 289 -7 146 -11 c 1
 106 12 93 95 93 152 c 0
 93 187 151 200 205 200 c 0
 262 200 268 230 268 263 c 2
 268 684 l 1
 187 683 121 681 116 679 c 1
 84 679 61 708 61 774 c 0
 61 822 71 849 97 859 c 1
 110 858 186 856 240 856 c 0
 247 856 256 856 268 856 c 1
 268 1229 l 2
 268 1262 262 1292 205 1292 c 0
 161 1292 93 1299 93 1344 c 0
 93 1398 107 1481 146 1503 c 1xd0
499 173 m 1
 887 173 l 2
 1179 173 1337 458 1337 743 c 0
 1337 1028 1171 1322 857 1322 c 2
 499 1322 l 1
 499 857 l 1
 585 857 672 858 674 858 c 0
 728 858 804 860 817 861 c 1
 843 851 853 824 853 776 c 0
 853 710 830 681 798 681 c 1
 786 686 571 687 571 687 c 1
 540 687 536 687 499 686 c 1
 499 173 l 1
EndSplineSet
Validated: 1
EndChar

StartChar: uni0111
Encoding: 559 273 299
Width: 1344
Flags: HMW
VStem: -43 21 13 21
LayerCount: 2
Fore
SplineSet
931 464 m 2
 931 725 l 1
 859 855 731 926 611 926 c 0
 454 926 308 805 308 533 c 0
 308 273 466 143 625 143 c 0
 772 143 931 251 931 464 c 2
931 1143 m 1
 841 1142 664 1140 657 1138 c 1
 634 1138 618 1153 618 1186 c 0
 618 1215 625 1231 644 1238 c 1
 653 1237 707 1235 746 1235 c 0
 769 1235 845 1236 924 1236 c 1
 921 1300 871 1305 783 1310 c 1
 765 1314 763 1323 763 1366 c 0
 763 1440 784 1494 796 1501 c 1
 856 1493 908 1490 955 1490 c 0
 1031 1490 1083 1501 1103 1501 c 0
 1149 1501 1159 1488 1159 1403 c 0
 1159 1387 1158 1369 1158 1348 c 2
 1158 1237 l 1
 1191 1237 1225 1238 1233 1239 c 1
 1251 1233 1258 1217 1258 1187 c 0
 1258 1154 1242 1139 1219 1139 c 1
 1215 1141 1189 1141 1158 1142 c 1
 1158 251 l 2
 1158 221 1162 186 1229 184 c 0
 1278 182 1323 170 1323 142 c 0
 1323 88 1314 14 1289 -8 c 1
 1248 -2 1209 0 1170 0 c 0
 1105 0 1048 -3 994 -8 c 1
 946 14 931 77 931 131 c 2
 931 140 l 1
 856 28 705 -27 574 -27 c 0
 324 -27 73 160 73 533 c 0
 73 906 337 1092 601 1094 c 1
 607 1094 l 2
 740 1094 848 1043 931 947 c 1
 931 1143 l 1
EndSplineSet
Validated: 1
EndChar

